<svg xmlns="http://www.w3.org/2000/svg" version="1.0" preserveAspectRatio="xMidYMid meet" viewBox="460.9 281.23 608.97 375.4">
 <g fill="#64452e">
  <path d="M650.8 656.3 c-1.6 -0.2 -2.8 -0.9 -2.8 -1.4 0 -0.5 -0.5 -0.9 -1.1 -0.9 -1.4 0 -8.9 -7.4 -8.9 -8.8 0 -0.6 -0.5 -1.2 -1.2 -1.4 -0.6 -0.2 -1.3 -3.2 -1.6 -6.9 -0.3 -3.5 -0.8 -6.6 -1.3 -6.9 -0.5 -0.3 -1.1 -10 -1.5 -21.5 -0.4 -11.6 -1.1 -21.3 -1.6 -21.6 -0.5 -0.3 -1 -13.5 -1.1 -29.4 -0.2 -22.3 0.1 -28.9 1.1 -29.2 0.6 -0.3 1.2 -1 1.2 -1.6 0 -1.5 4.4 -5.7 5.9 -5.7 0.6 0 1.1 -0.4 1.1 -1 0 -0.5 1.8 -1.3 4 -1.6 2.2 -0.4 4 -1 4 -1.5 0 -0.5 33.2 -0.9 75.5 -0.9 42.1 0 75.5 0.4 75.5 0.9 0 0.4 1.5 1.1 3.4 1.4 3.2 0.5 10.6 6.6 10.6 8.7 0 0.5 0.7 1.6 1.6 2.4 1.2 1.2 1.6 5 2.1 17.6 0.3 8.8 0.9 16 1.3 16 0.4 0 1 8.9 1.4 19.7 0.4 10.9 1.2 20 1.6 20.3 0.5 0.3 1 10 1.2 21.5 l0.3 21 -4.4 4.3 c-2.4 2.3 -5.1 4.2 -6.1 4.2 -1 0 -2 0.6 -2.2 1.3 -0.4 0.9 -16.9 1.2 -77.9 1.3 -42.6 0.1 -78.6 -0.1 -80.1 -0.3z m159.1 -11.4 c3.5 -3.5 3.7 -5.2 2.4 -29.1 -0.6 -12.4 -0.7 -12.7 -3.1 -13.3 -1.3 -0.3 -3.1 -1.3 -3.9 -2 -1.3 -1.3 -1.2 -1.5 0.1 -1.5 0.9 0 1.6 -0.4 1.6 -1 0 -0.5 0.7 -1 1.5 -1 0.8 0 1.5 -0.7 1.5 -1.5 0 -0.8 0.5 -1.5 1 -1.5 1.3 0 1.3 -2.7 0.1 -3.2 -0.5 -0.1 -1.3 -8.5 -1.7 -18.5 -0.4 -10.1 -1 -18.3 -1.4 -18.3 -0.4 0 -1 -5 -1.3 -11 -0.6 -10.3 -0.8 -11.2 -3.3 -13.5 -1.5 -1.4 -3.3 -2.5 -4 -2.5 -0.7 0 -1.4 -0.5 -1.6 -1 -0.2 -0.8 -24.4 -1.2 -76.4 -1.3 l-76 -0.2 -3.7 3.6 c-2 2 -3.7 4.6 -3.7 5.8 0 1.1 -0.4 2.1 -1 2.1 -0.5 0 -1 2 -1 4.5 0 2.5 0.4 4.5 0.8 4.5 0.5 0 1.2 10.2 1.6 22.8 0.4 12.6 1.1 22.8 1.7 23 0.5 0.2 0.9 3.5 0.9 7.2 l0 6.9 3.5 0.7 c1.9 0.3 3.5 1 3.5 1.5 0 0.5 0.6 0.9 1.3 0.9 0.6 0 1.9 0.5 2.7 1 1.3 0.9 1.3 1.1 0 2 -0.8 0.5 -2.5 1 -3.7 1 -4.7 0 -6.3 3.2 -6.3 12.5 0 4.7 0.4 8.5 0.9 8.5 0.4 0 1.1 1.8 1.4 4 0.5 3.9 4.3 8.9 7.7 10.3 0.8 0.3 36 0.6 78.2 0.6 l76.6 0.1 3.1 -3.1z"/>
  <path d="M699.6 622.4 c-4.2 -4.1 0 -7.4 9.4 -7.4 9.4 0 13.6 3.3 9.4 7.4 -1.1 1.2 -3.6 1.6 -9.4 1.6 -5.8 0 -8.3 -0.4 -9.4 -1.6z"/>
  <path d="M732.8 620.3 c-1.8 -0.5 -2.4 -3.7 -1.2 -6.7 0.4 -0.9 2.3 -1.9 4.5 -2.2 2.1 -0.4 3.9 -1 3.9 -1.4 0 -1 8.2 -2 10.8 -1.3 1.6 0.4 2.2 1.3 2.2 3.4 0 1.9 -0.5 2.9 -1.5 2.9 -0.8 0 -1.5 0.4 -1.5 0.9 0 0.5 -1.5 1.3 -3.2 1.6 -1.8 0.4 -3.5 1.1 -3.8 1.5 -0.7 0.9 -8 1.9 -10.2 1.3z"/>
  <path d="M683 619.1 c0 -0.5 -1.8 -1.1 -4 -1.5 -2.2 -0.3 -4 -1.1 -4 -1.6 0 -0.6 -0.6 -1 -1.3 -1 -1.6 0 -4.7 -3.6 -4.7 -5.5 0 -0.8 0.7 -1.5 1.5 -1.5 0.8 0 1.5 -0.4 1.5 -1 0 -0.5 0.7 -1 1.5 -1 0.8 0 1.5 0.4 1.5 0.9 0 0.5 1.8 1.1 4 1.5 2.2 0.3 4 1 4 1.5 0 0.5 1.3 1.2 2.9 1.6 3 0.6 4.7 3.9 3.5 6.9 -0.6 1.7 -6.4 2.3 -6.4 0.7z"/>
  <path d="M784.3 617.3 c-1.3 -0.2 -2.3 -0.9 -2.3 -1.4 0 -0.5 -0.6 -0.9 -1.4 -0.9 -2.1 0 -4.6 -2.8 -4 -4.5 0.7 -1.6 9.4 -2.2 9.4 -0.6 0 0.5 1.1 1.2 2.5 1.5 4.1 1 2.8 7.3 -1.3 6.5 -0.4 -0.1 -1.7 -0.4 -2.9 -0.6z"/>
  <path d="M659.9 598.3 c-0.2 -3.3 0.3 -6.8 1 -7.3 0.5 -0.3 1.1 -1.7 1.5 -3.2 0.3 -1.6 1.1 -2.8 1.6 -2.8 0.6 0 1 -0.6 1 -1.3 0 -1.4 3.5 -4.7 5.1 -4.7 2 0 3.9 2.9 3.9 5.9 0 1.7 -0.4 3.1 -0.9 3.1 -0.5 0 -1.2 1.4 -1.6 3 -0.4 1.7 -1.1 3 -1.6 3 -0.5 0 -0.9 0.6 -0.9 1.4 0 4 -8.9 6.7 -9.1 2.9z"/>
  <path d="M761.8 597.7 c-1.4 -1.3 -2.9 -3.4 -3.3 -4.5 -0.3 -1.2 -1.1 -2.2 -1.6 -2.2 -0.5 0 -0.9 -0.7 -0.9 -1.5 0 -0.9 -0.6 -1.8 -1.4 -2.1 -0.8 -0.3 -1.7 -1.6 -2 -3 -0.4 -1.3 -1.1 -2.4 -1.6 -2.4 -0.6 0 -1 -0.7 -1 -1.5 0 -0.9 -0.6 -1.8 -1.4 -2.1 -0.8 -0.3 -1.7 -1.7 -2.1 -3.2 -0.4 -1.5 -1.2 -3 -1.8 -3.4 -1.7 -1 -1.6 -20 0.1 -20.5 0.6 -0.3 1.2 -1 1.2 -1.8 0 -2.5 8 -9.6 11.6 -10.2 1.9 -0.3 3.4 -1 3.4 -1.4 0 -0.5 2.7 -0.9 6 -0.9 3.3 0 6 0.4 6 0.9 0 0.5 1.4 1.1 3.1 1.5 1.8 0.3 4.2 1.7 5.5 3.1 1.3 1.4 2.8 2.5 3.4 2.5 0.5 0 1 0.7 1 1.5 0 0.8 0.4 1.5 0.9 1.5 0.5 0 1.2 1.4 1.6 3 0.4 1.7 1.1 3 1.6 3 0.5 0 0.9 3.4 0.9 7.5 0 4.1 -0.4 7.5 -0.9 7.5 -0.5 0 -1.2 1.3 -1.6 2.9 -0.3 1.6 -1.3 3.2 -2.1 3.5 -0.8 0.3 -1.4 1.2 -1.4 2.1 0 0.8 -0.4 1.5 -0.9 1.5 -0.5 0 -1.2 1.4 -1.6 3 -0.4 1.7 -1.1 3 -1.6 3 -0.5 0 -1.1 1.1 -1.5 2.5 -0.3 1.4 -1 2.5 -1.5 2.5 -0.5 0 -1.3 0.8 -1.6 1.8 -1.3 3.3 -6.9 8.2 -9.5 8.2 -1.4 0 -3.6 -1.1 -5 -2.3z m12.7 -29.9 c1.4 -1.6 2 -3.8 2 -7.3 0 -7.1 -2.3 -9.5 -9 -9.5 -6.7 0 -9.5 2.8 -9.5 9.5 0 6.7 2.8 9.5 9.5 9.5 4 0 5.5 -0.5 7 -2.2z"/>
  <path d="M680.6 575.1 c-0.9 -1.4 0.2 -5 2 -6.8 0.7 -0.7 2.7 -1.6 4.3 -1.9 1.7 -0.4 3.1 -1 3.1 -1.5 0 -1.4 5 -1 6.6 0.5 2.6 2.7 1.1 5.6 -3.6 7.1 -1.4 0.4 -2.7 1.1 -3 1.6 -0.9 1.4 -8.7 2.2 -9.4 1z"/>
  <path d="M719 571.1 c0 -0.5 -1.8 -1.1 -4.1 -1.5 -2.2 -0.4 -5 -1.5 -6.2 -2.6 l-2.1 -2 2.2 -2 c2.2 -2.1 10.2 -2.9 10.2 -1 0 0.6 1 1 2.3 1 4.6 0 6.7 1.2 6.7 3.7 0 1.3 -0.6 3.1 -1.4 3.9 -1.6 1.5 -7.6 2 -7.6 0.5z"/>
  <path d="M832.2 653.3 c-1.8 -0.4 -2.3 -1 -2 -3.1 l0.3 -2.7 29.6 -0.3 c28.4 -0.2 29.7 -0.2 30.2 1.7 1.1 4.5 0.3 4.6 -28.5 4.7 -15 0.1 -28.3 0 -29.6 -0.3z"/>
  <path d="M472.3 651.5 c-1.9 -2.1 -1.6 -3.4 1.2 -4.1 1.4 -0.3 2.5 -1 2.5 -1.5 0 -0.5 14.5 -1 32.2 -1.1 29.7 -0.3 32 -0.4 30.5 -1.9 -0.9 -0.9 -1.9 -2.8 -2.2 -4.2 -0.4 -1.4 -1.3 -2.8 -2.1 -3.1 -0.8 -0.3 -1.4 -1.6 -1.4 -3 0 -1.3 -0.5 -2.6 -1 -2.8 -0.6 -0.2 -1.4 -2.9 -1.7 -6.1 -0.3 -3.1 -0.9 -5.7 -1.4 -5.7 -0.4 0 -1.1 -2.9 -1.4 -6.5 -0.4 -3.6 -1.1 -6.5 -1.5 -6.5 -0.5 0 -1.2 -3 -1.6 -6.7 -0.3 -3.8 -1 -7 -1.5 -7.3 -0.5 -0.3 -1.1 -3.8 -1.5 -7.8 -0.4 -4 -1 -7.2 -1.5 -7.2 -0.4 0 -1.1 -2.9 -1.4 -6.5 -0.4 -3.6 -1.1 -6.5 -1.6 -6.5 -0.4 0 -1.1 -3.1 -1.5 -7 -0.3 -3.8 -1 -7 -1.4 -7 -0.5 0 -1.1 -3.4 -1.5 -7.5 -0.4 -4.1 -1.1 -7.5 -1.5 -7.5 -0.4 0 -1.1 -3.3 -1.5 -7.2 -0.4 -4 -1.1 -7.5 -1.6 -7.8 -0.4 -0.3 -1.1 -3.7 -1.5 -7.5 -0.4 -3.9 -1.2 -7.3 -1.8 -7.7 -1.6 -1.1 -1.5 -23 0.2 -23.5 0.6 -0.3 1.2 -1 1.2 -1.6 0 -1.5 4.4 -5.7 5.8 -5.7 0.6 0 1.2 -0.5 1.4 -1.1 0.2 -0.5 2.2 -1.3 4.6 -1.6 2.3 -0.3 4.2 -0.9 4.2 -1.4 0 -0.4 4.1 -1.1 9 -1.5 5 -0.3 9 -1 9 -1.4 0 -0.5 4.5 -1.2 10 -1.5 5.5 -0.4 10 -1.1 10 -1.5 0 -0.4 4.3 -1.1 9.5 -1.5 5.2 -0.4 9.5 -1 9.5 -1.5 0 -0.4 4.1 -1.1 9 -1.5 5 -0.4 9 -1.1 9 -1.5 0 -0.4 4.5 -1.1 10 -1.5 5.5 -0.3 10 -1 10 -1.5 0 -0.4 4.1 -1.1 9 -1.5 5 -0.4 9 -1.1 9 -1.5 0 -0.5 4.3 -1.1 9.5 -1.5 5.2 -0.4 9.5 -1.1 9.5 -1.5 0 -0.4 4.5 -1.1 10 -1.5 5.5 -0.3 10 -1.1 10 -1.6 0 -0.5 2 -0.9 4.5 -0.9 2.5 0 4.5 0.4 4.5 0.9 0 0.5 1.1 1.2 2.5 1.5 3.8 1 9.6 7.3 10.2 11.2 0.3 1.9 0.9 3.4 1.3 3.4 0.4 0 1 3.2 1.4 7.2 0.4 4 1 7.5 1.5 7.8 0.5 0.3 1.2 3.3 1.6 6.8 0.4 3.4 1 6.2 1.5 6.2 0.4 0 1 2.6 1.3 5.7 0.3 3.2 1.1 5.9 1.7 6.1 0.5 0.2 1 2.1 1 4.2 0 3 -0.5 4 -2 4.5 -4.7 1.5 -7 -1.2 -7 -8.2 0 -1.7 -0.4 -3.3 -1 -3.5 -0.5 -0.1 -1.2 -3.6 -1.6 -7.5 -0.4 -4 -1 -7.3 -1.5 -7.3 -0.4 0 -1.1 -2.9 -1.4 -6.5 -0.4 -3.6 -1.1 -6.5 -1.5 -6.5 -0.4 0 -1 -2.3 -1.4 -5 -0.5 -3.9 -1.4 -5.8 -4.2 -8.5 -3.4 -3.4 -3.7 -3.5 -11.4 -3.5 -4.4 0 -8 0.4 -8 0.9 0 0.5 -4.3 1.2 -9.5 1.6 -5.2 0.4 -9.5 1.1 -9.5 1.5 0 0.4 -4 1.1 -9 1.5 -4.9 0.4 -9 1.1 -9 1.5 0 0.5 -4.5 1.2 -10 1.5 -5.5 0.4 -10 1.1 -10 1.5 0 0.4 -4.3 1.1 -9.5 1.5 -5.2 0.4 -9.5 1 -9.5 1.5 0 0.4 -4 1.1 -9 1.5 -4.9 0.4 -9 1.1 -9 1.5 0 0.4 -4.7 1.1 -10.5 1.5 -5.8 0.4 -10.5 1 -10.5 1.5 0 0.4 -4.5 1.1 -10 1.5 -5.5 0.3 -10 1 -10 1.5 0 0.4 -2.7 1 -6 1.4 -3.3 0.4 -6 1.1 -6 1.6 0 0.6 -0.6 1 -1.3 1 -0.7 0 -2.1 1 -3.2 2.3 -1.7 1.9 -2 3.7 -2 13.5 0.1 7 0.5 11.6 1.1 12 0.6 0.4 1.5 3.7 1.8 7.5 0.4 3.7 1.1 6.7 1.5 6.7 0.5 0 1.1 3.2 1.5 7.2 0.4 4 1 7.5 1.5 7.8 0.5 0.3 1.2 3.3 1.6 6.8 0.4 3.4 1 6.2 1.5 6.2 0.4 0 1 3.2 1.4 7.2 0.4 4 1 7.5 1.5 7.8 0.4 0.3 1.1 3.4 1.5 6.9 0.3 3.6 1 6.7 1.5 7 0.5 0.3 1.2 3.4 1.6 6.9 0.4 3.4 1.1 6.2 1.6 6.2 0.5 0 0.9 0.7 0.9 1.5 0 1.1 1.2 1.5 4.5 1.5 4.1 0 4.5 0.2 4.5 2.4 0 1.7 -0.7 2.6 -2.6 3 -1.5 0.4 -3.3 1.3 -4 2.1 -1.6 1.5 -1.9 3.5 -0.5 3.5 0.4 0 1.1 3.5 1.5 7.7 0.3 4.2 1 7.9 1.5 8.2 0.4 0.3 1.1 2.3 1.5 4.4 0.4 2 1.1 3.7 1.5 3.7 0.5 0 1.2 1.1 1.5 2.5 1 3.8 7.3 9.6 11.2 10.2 1.9 0.3 3.4 1 3.4 1.4 0 0.5 2.9 0.9 6.5 0.9 3.6 0 6.5 -0.4 6.5 -0.9 0 -0.5 3.8 -1.2 8.5 -1.6 4.7 -0.4 8.5 -1.1 8.5 -1.5 0 -0.5 3.4 -1.1 7.5 -1.5 4.1 -0.4 7.5 -1.1 7.5 -1.5 0 -0.5 2.9 -1.2 6.5 -1.5 3.6 -0.4 6.5 -1.1 6.5 -1.5 0 -1.2 10.2 -2.2 11.2 -1.2 2.1 2.1 -0.2 5.2 -4.3 5.8 -2.1 0.4 -3.9 1 -3.9 1.4 0 0.5 -3.4 1.1 -7.5 1.5 -4.1 0.4 -7.5 1.1 -7.5 1.6 0 0.4 -1.5 1 -3.2 1.2 -1.8 0.2 0 0.5 4 0.5 4 0.1 7.2 0.6 7.2 1.2 0 0.6 1.4 1 3 1 1.7 0 3 -0.4 3 -1 0 -0.5 1.4 -1 3 -1 1.7 0 3 0.5 3 1 0 0.6 0.9 1 2 1 2 0 2.5 1.5 1.4 4.4 -0.6 1.4 -8.2 1.6 -76.8 1.6 -64.4 -0.1 -76.3 -0.3 -77.3 -1.5z"/>
  <path d="M498 625.2 c0 -0.5 -5.5 -1.2 -12.2 -1.6 -6.7 -0.4 -12.5 -1.1 -12.8 -1.6 -0.3 -0.5 -3 -1 -6 -1.2 -5.2 -0.3 -5.5 -0.5 -5.8 -3 l-0.3 -2.8 8 0 c4.5 0 8.1 0.4 8.1 0.9 0 0.4 4.6 1.1 10.3 1.5 5.6 0.4 10.4 1.1 10.5 1.7 0.2 0.5 1.4 0.9 2.7 0.9 2.9 0 3.8 1.3 3 4 -0.6 2 -5.5 3 -5.5 1.2z"/>
  <path d="M862.3 620.4 c-1.7 -0.7 -1.6 -2.2 0.1 -3.9 0.9 -1 6.1 -1.6 17.8 -2.1 21 -0.9 24.6 -0.1 20.1 4.4 -1.4 1.4 -4.3 1.7 -19.2 1.9 -9.7 0.1 -18.2 0 -18.8 -0.3z"/>
  <path d="M836.5 614 c-0.6 -1 24.5 -27 26 -27 0.4 0 1.8 -1.1 3.1 -2.5 3.6 -3.9 7.4 -2.9 7.4 2 0 1.5 -16.6 18.5 -18 18.5 -0.5 0 -2.4 1.6 -4.3 3.5 -1.9 1.9 -3.7 3.5 -4.1 3.5 -0.4 0 -1.4 0.7 -2.2 1.5 -1.7 1.7 -7 2 -7.9 0.5z"/>
  <path d="M506 613.1 c0 -0.5 -1.3 -1.2 -3 -1.6 -1.6 -0.4 -3 -1 -3 -1.5 0 -0.5 -0.9 -1.2 -2 -1.5 -3.1 -1 -12 -10.3 -12 -12.5 0 -1.6 0.7 -2 3 -2 1.7 0 3 0.5 3 1 0 0.6 0.7 1 1.5 1 0.8 0 2.3 0.9 3.2 2 1 1.1 2.1 2 2.6 2 0.4 0 3 2.2 5.8 4.9 5.2 5.1 6.5 9.1 2.9 9.1 -1.1 0 -2 -0.4 -2 -0.9z"/>
  <path d="M554.1 599.4 c-2.8 -1.3 -5.3 -4.7 -5.8 -8 -0.3 -1.9 -0.9 -3.4 -1.4 -3.4 -0.4 0 -1.1 -2.9 -1.4 -6.5 -0.4 -3.6 -1.1 -6.5 -1.5 -6.5 -0.5 0 -1.2 -2.6 -1.6 -5.7 -0.4 -3.2 -1 -6 -1.5 -6.3 -0.5 -0.3 -1.1 -3.8 -1.5 -7.8 -0.4 -4 -1 -7.2 -1.4 -7.2 -0.4 0 -1.1 -3.3 -1.5 -7.2 -0.3 -4 -1.1 -7.5 -1.6 -7.8 -0.4 -0.3 -1.1 -3.8 -1.5 -7.8 -0.4 -4 -1 -7.2 -1.5 -7.2 -0.4 0 -1.1 -3.1 -1.5 -7 -0.3 -3.8 -1.1 -7 -1.5 -7 -0.5 0 -0.9 -2 -0.9 -4.5 0 -2.5 0.5 -4.5 1 -4.5 0.6 0 1 -0.5 1 -1.1 0 -2.2 4.5 -5.9 7.3 -5.9 1.5 0 2.7 -0.4 2.7 -0.9 0 -0.4 4.4 -1.1 9.7 -1.5 5.4 -0.4 10 -1.2 10.3 -1.7 0.3 -0.5 4.6 -1.2 9.5 -1.5 5 -0.4 9.2 -1.1 9.5 -1.5 0.3 -0.5 4.9 -1.1 10.3 -1.5 5.3 -0.4 9.7 -1 9.7 -1.5 0 -0.4 4.3 -1 9.5 -1.4 5.2 -0.4 9.5 -1.1 9.5 -1.5 0 -0.5 4.5 -1.2 10 -1.5 5.5 -0.4 10 -1.1 10 -1.5 0 -0.5 4.3 -1.1 9.5 -1.5 5.2 -0.4 9.5 -1.1 9.5 -1.6 0 -0.5 3.6 -0.9 8 -0.9 7.5 0 8.3 0.2 10.5 2.6 1.4 1.5 2.5 3.5 2.5 4.5 0 1.1 0.4 1.9 0.9 1.9 0.5 0 1.2 2.5 1.6 5.5 0.3 3 1 5.5 1.4 5.5 0.5 0 1.1 2.7 1.5 6 0.4 3.3 1.1 6 1.6 6 0.6 0 1 2.3 1 5 0 4.7 -0.1 5 -2.6 5 -1.7 0 -2.8 -0.6 -3.1 -2 -0.3 -1.1 -0.9 -2 -1.4 -2 -0.4 0 -1.1 -2.7 -1.5 -6 -0.4 -3.3 -1 -6 -1.5 -6 -0.4 0 -1.1 -3.1 -1.5 -7 -0.3 -3.8 -1.1 -7 -1.5 -7 -0.5 0 -0.9 -0.6 -0.9 -1.3 0 -2.1 -3.8 -4.7 -7 -4.7 -1.7 0 -3 0.4 -3 0.9 0 0.5 -4.5 1.3 -10 1.6 -5.5 0.4 -10 1.1 -10 1.5 0 0.5 -4.3 1.1 -9.5 1.5 -5.2 0.4 -9.5 1.1 -9.5 1.5 0 0.5 -3.9 1.1 -8.7 1.5 -4.9 0.4 -9 1.1 -9.3 1.6 -0.3 0.5 -4.9 1.1 -10.3 1.5 -5.3 0.4 -9.7 1 -9.7 1.4 0 0.4 -4.6 1 -10.2 1.4 -5.7 0.4 -10.5 1.1 -10.8 1.6 -0.3 0.4 -4.7 1.1 -9.8 1.5 -5 0.4 -9.2 1.1 -9.2 1.6 0 0.4 -1.9 0.9 -4.2 1.1 l-4.3 0.3 0.2 8.9 c0 4.9 0.5 9.1 1.1 9.5 0.5 0.3 1.2 3.7 1.6 7.6 0.4 3.8 1.1 7.2 1.5 7.5 0.5 0.3 1.2 3.5 1.5 7.3 0.4 3.7 1.1 6.7 1.5 6.7 0.5 0 1.1 3.2 1.5 7.2 0.4 4 1 7.5 1.5 7.8 0.5 0.3 1.2 3.3 1.6 6.8 0.4 3.4 1 6.2 1.5 6.2 0.4 0 1.1 3.2 1.4 7 0.4 3.9 1.1 7 1.7 7 0.5 0 0.9 1.2 0.9 2.8 0 1.5 1 3.7 2.4 4.9 2.1 2.1 2.9 2.2 11 1.6 4.7 -0.3 8.6 -0.9 8.6 -1.3 0 -0.4 5.1 -1.1 11.3 -1.5 6.1 -0.4 11.4 -1.1 11.7 -1.5 0.8 -1.2 21.3 -2.3 22.9 -1.2 1.1 0.8 0.9 1.4 -0.8 3.1 -1.8 1.8 -3.8 2.3 -10.7 2.8 -4.6 0.3 -8.4 0.9 -8.4 1.4 0 0.4 -4.4 1 -9.7 1.4 -5.4 0.4 -10 1.1 -10.4 1.6 -0.6 1 -25.8 2.2 -27.8 1.3z"/>
  <path d="M561.8 584.4 c-1.1 -0.3 -1.8 -1.5 -1.8 -3 0 -1.4 -0.7 -3.3 -1.6 -4.2 -1.2 -1.1 -1.5 -2.7 -1.1 -6 0.3 -2.4 0.9 -4.7 1.4 -5.1 0.6 -0.3 1.3 -2.3 1.7 -4.3 0.4 -2.1 1.1 -3.8 1.6 -3.8 0.4 0 1.1 -1.3 1.5 -3 0.4 -1.6 1 -3 1.5 -3 0.5 0 1.1 -1.3 1.5 -3 0.4 -1.6 1.1 -3 1.6 -3 0.5 0 0.9 -0.6 0.9 -1.3 0 -0.7 0.9 -2 2 -3 1.1 -0.9 2 -2.3 2 -3.1 0 -0.8 0.7 -1.6 1.5 -2 0.8 -0.3 1.5 -1 1.5 -1.6 0 -1.5 3.3 -5 4.6 -5 0.7 0 1.4 -0.6 1.7 -1.2 0.5 -1.6 13.6 -1.5 14.6 0 0.3 0.6 1.9 1.4 3.4 1.7 1.5 0.4 2.7 1.1 2.7 1.5 0 0.4 1.1 1.1 2.5 1.4 1.4 0.4 2.5 1.1 2.5 1.6 0 0.6 0.5 1 1.1 1 1.8 0 7.5 6.3 8.4 9.1 0.4 1.3 1.1 2.6 1.5 2.9 1.3 0.8 2.2 18.3 1.1 19.9 -0.5 0.8 -3.3 1.6 -6.5 1.9 -3.1 0.2 -5.6 0.8 -5.6 1.2 0 0.4 -2.5 1.1 -5.5 1.5 -3 0.3 -5.5 1 -5.5 1.5 0 0.5 -2 1.2 -4.5 1.6 -2.5 0.3 -4.5 1 -4.5 1.4 0 0.4 -1.6 1.1 -3.5 1.4 -1.9 0.4 -3.5 1.1 -3.5 1.5 0 0.5 -1.8 1.1 -3.9 1.5 -2.2 0.3 -4.1 1.1 -4.3 1.7 -0.4 1.2 -8.2 2.1 -11 1.3z"/>
  <path d="M861 532.1 c0 -0.5 -1.6 -1.2 -3.5 -1.5 -1.9 -0.4 -3.5 -1.1 -3.5 -1.6 0 -0.6 -0.6 -1 -1.4 -1 -1.9 0 -10.6 -8.7 -10.6 -10.6 0 -0.8 -0.4 -1.4 -1 -1.4 -0.6 0 -1 -2.7 -1 -6 0 -3.3 0.4 -6 0.9 -6 0.5 0 1.2 -1.1 1.5 -2.5 0.3 -1.3 6.7 -8.5 14.1 -15.8 7.4 -7.4 13.5 -13.8 13.5 -14.2 0 -0.4 17.9 -18.6 39.9 -40.5 21.9 -22 40.1 -40.7 40.5 -41.6 0.4 -1.1 -0.1 -2.4 -1.5 -3.7 -3.3 -3.1 -2.1 -8.5 3 -13.5 2.3 -2.2 4.1 -4.4 4.1 -4.9 0 -0.9 3.6 -4.3 4.6 -4.3 1.1 0 16.4 -15.8 16.4 -16.9 0 -0.6 0.6 -1.1 1.3 -1.1 0.7 0 2 -0.9 3 -2 0.9 -1.1 2.3 -2 3.1 -2 0.8 0 1.6 -0.6 1.8 -1.2 0.7 -2 18 -2.4 19.9 -0.6 0.8 0.8 2.7 1.8 4.2 2.2 1.5 0.3 2.7 1.1 2.7 1.6 0 0.6 0.5 1 1.1 1 1.3 0 10.9 9.4 10.9 10.7 0 0.5 1.3 2 2.9 3.4 2.3 2 3.2 3.8 3.7 7.8 0.4 2.8 1 5.1 1.5 5.1 0.5 0 0.9 0.9 0.9 2 0 1.1 -0.4 2 -0.9 2 -0.4 0 -1.1 1.9 -1.4 4.2 -0.3 2.4 -1.1 4.4 -1.6 4.6 -0.6 0.2 -1.1 1 -1.1 1.7 0 1.8 -29.8 31.5 -31.6 31.5 -0.8 0 -1.4 0.5 -1.4 1 0 0.6 -0.9 1 -2 1 -1.1 0 -2 -0.4 -2 -0.9 0 -0.5 -1.1 -1.2 -2.5 -1.5 -1.4 -0.4 -2.5 -1.1 -2.5 -1.6 0 -1.8 -2.1 -1 -4.5 1.6 -1.4 1.5 -2.5 3 -2.5 3.5 0 0.4 -11.5 12.2 -25.5 26.2 -14 14 -25.5 25.8 -25.5 26.2 0 0.4 -7.2 7.9 -16 16.7 -8.8 8.7 -16 16.3 -16 16.8 0 1.7 -23.2 24 -25.5 24.6 -1.4 0.3 -2.5 1 -2.5 1.5 0 0.5 -1.8 0.9 -4 0.9 -2.2 0 -4 -0.4 -4 -0.9z m44 -50.6 c0 -0.4 17.6 -18.2 39 -39.7 21.5 -21.4 39 -39.4 39 -39.9 0 -0.5 -0.4 -0.9 -1 -0.9 -0.5 0 -1.2 -1.1 -1.6 -2.5 -0.3 -1.3 -1.5 -2.7 -2.7 -3.1 -1.1 -0.3 -3 -1.6 -4.1 -2.9 -3.2 -3.4 -8.1 -4.1 -10.3 -1.6 -0.9 1.2 -2.3 2.1 -3 2.1 -0.7 0 -1.3 0.5 -1.3 1.1 0 0.6 -12.8 13.9 -28.5 29.6 -15.7 15.6 -28.5 29.1 -28.5 29.9 0 0.8 -0.7 1.4 -1.5 1.4 -0.8 0 -1.5 0.4 -1.5 0.9 0 0.6 -10.1 11.1 -22.5 23.4 -22.7 22.7 -25.3 26.2 -20.5 27.4 1.1 0.3 2 0.9 2 1.4 0 0.5 0.6 0.9 1.4 0.9 0.8 0 3.4 2 5.8 4.3 l4.3 4.4 17.7 -17.8 c9.8 -9.7 17.8 -18 17.8 -18.4z m102.9 -88.6 c6.1 -6.1 11.1 -11.4 11.1 -11.9 0 -0.5 0.8 -1.6 1.8 -2.6 2.1 -2.1 2.5 -12.5 0.5 -13.2 -0.7 -0.2 -1.3 -1 -1.3 -1.7 0 -1.8 -10.4 -12.2 -13.2 -13 -1.3 -0.4 -2.6 -1.3 -3 -1.9 -0.4 -0.6 -3.7 -1.1 -8 -1.1 l-7.3 0 -5.7 5.9 c-3.2 3.2 -5.8 6.2 -5.8 6.7 0 0.5 -3.4 4.2 -7.7 8.4 -4.2 4.1 -7.4 7.8 -7 8.1 0.3 0.3 2.4 0.8 4.6 1.1 2.3 0.3 4.1 1 4.1 1.4 0 0.5 0.9 0.9 1.9 0.9 1.1 0 2.6 0.7 3.5 1.5 0.8 0.8 1.8 1.5 2.2 1.5 1.1 0 7.4 6.8 7.4 8 0 0.5 0.7 1 1.5 1 0.8 0 1.5 0.7 1.5 1.5 0 0.9 0.6 1.8 1.4 2.1 0.8 0.3 1.7 1.7 2.1 3.1 0.6 2.5 2.5 5.2 3.7 5.3 0.4 0 5.6 -5 11.7 -11.1z"/>
  <path d="M623 520 c0 -0.6 0.7 -1.3 1.5 -1.6 0.8 -0.4 1.5 -1.7 1.5 -3 0 -1.4 0.7 -2.7 1.5 -3 0.8 -0.4 1.5 -1.2 1.5 -1.9 0 -0.7 1.9 -3.2 4.2 -5.6 4.2 -4.3 4.4 -4.4 10.7 -4.2 3.5 0.1 6.6 0.6 7 1.1 0.3 0.5 1.6 1.2 2.9 1.6 1.2 0.4 2.2 1.1 2.2 1.6 0 0.5 0.3 1.5 0.6 2.3 0.4 1.2 -1.2 1.6 -8.5 2.2 -5 0.4 -9.1 1.1 -9.1 1.5 0 0.4 -1.1 1.1 -2.5 1.4 -1.4 0.4 -4.3 2.4 -6.4 4.6 -3.7 3.8 -7.1 5.2 -7.1 3z"/>
  <path d="M793 476.3 c-2.8 -1.2 -8 -7 -8 -9.2 0 -1.1 -0.4 -2.1 -1 -2.1 -0.5 0 -1 -0.7 -1 -1.6 0 -1.8 2.3 -4.4 4 -4.4 1.5 0 9.4 7.9 10.3 10.3 0.3 0.9 1.1 1.7 1.7 1.7 1.5 0 1.2 1.7 -0.7 4 -1.8 2 -2.7 2.3 -5.3 1.3z"/>
  <path d="M997.7 475 c-0.9 -1.1 -1.9 -3.1 -2.3 -4.4 -0.4 -1.7 -1.5 -2.7 -3.5 -3.1 -1.6 -0.4 -2.9 -1.1 -2.9 -1.6 0 -0.5 -0.7 -0.9 -1.5 -0.9 -2.8 0 -1.5 -2.7 1.6 -3.4 4 -0.8 8.9 -5.7 8.9 -9 0 -3.9 2.6 -3.2 3.3 0.9 0.7 4.4 5 8.5 8.8 8.5 1.9 0 2.9 0.5 2.9 1.5 0 0.8 -0.7 1.5 -1.5 1.5 -0.8 0 -1.5 0.5 -1.5 1 0 0.6 -0.6 1 -1.4 1 -2 0 -6.4 4.5 -7.2 7.4 -0.7 3.1 -1.4 3.2 -3.7 0.6z"/>
  <path d="M774.8 444.1 c-1 -1 -1.8 -3 -1.8 -4.4 0 -1.5 -0.4 -2.7 -1 -2.7 -0.5 0 -1 -2.4 -1 -5.4 0 -5.7 0.8 -6.6 5.5 -6.6 1.8 0 2.4 0.7 2.9 3.5 0.4 1.9 1.1 3.5 1.6 3.5 0.6 0 1 2.5 1 5.6 0 7.7 -3.2 10.6 -7.2 6.5z"/>
  <path d="M1040 435.5 c0 -0.8 -0.4 -1.5 -0.9 -1.5 -0.4 0 -1.1 -1.5 -1.4 -3.4 -0.6 -4 -3.5 -7.3 -7.2 -8.2 -1.4 -0.3 -2.5 -1 -2.5 -1.5 0 -0.5 -0.7 -0.9 -1.5 -0.9 -2.8 0 -1.5 -2.8 1.5 -3.5 1.7 -0.4 3 -1.1 3 -1.6 0 -0.5 0.6 -0.9 1.3 -0.9 1.9 0 4.7 -3.7 5.4 -7.1 0.3 -1.6 0.9 -2.9 1.4 -2.9 0.5 0 0.9 -1.1 0.9 -2.5 0 -1.5 0.6 -2.5 1.4 -2.5 1.4 0 2.6 2.9 2.6 6.8 0 1.2 0.5 2.2 1 2.2 0.6 0 1 0.6 1 1.4 0 2 4.6 6.6 6.7 6.6 3.4 0 6.3 1.2 6.3 2.6 0 0.8 -0.7 1.4 -1.5 1.4 -0.8 0 -1.5 0.4 -1.5 0.9 0 0.5 -1.3 1.1 -2.9 1.4 -4 0.8 -7.1 3.6 -7.1 6.4 0 1.3 -0.4 2.3 -0.9 2.3 -0.5 0 -1.2 1.4 -1.6 3 -0.7 3 -3.5 4.3 -3.5 1.5z"/>
  <path d="M557.6 417.4 c-0.3 -0.9 -0.6 -2.7 -0.6 -4 0 -1.3 -0.4 -2.4 -0.9 -2.4 -0.5 0 -1.1 -1.4 -1.5 -3.1 -0.8 -4 -8.5 -11.7 -12.5 -12.5 -1.7 -0.4 -3.1 -1 -3.1 -1.5 0 -0.5 -0.7 -0.9 -1.5 -0.9 -0.8 0 -1.5 -0.9 -1.5 -2 0 -1.6 0.7 -2 3 -2 1.7 0 3 -0.4 3 -0.9 0 -0.5 1.2 -1.2 2.6 -1.5 2.9 -0.8 7.4 -5.2 7.4 -7.2 0 -0.8 0.4 -1.4 1 -1.4 0.5 0 1.2 -2.3 1.6 -5 0.4 -2.7 1 -5 1.5 -5 0.5 0 0.9 -1.3 0.9 -3 0 -3.5 2.9 -4.3 3.7 -1 0.3 1.1 0.9 2 1.3 2 0.4 0 1 2.3 1.2 5.1 0.3 2.8 1 5.4 1.6 5.8 0.6 0.3 1.4 1.9 1.7 3.4 0.5 1.7 1.6 2.9 3.1 3.3 1.3 0.3 2.4 1 2.4 1.5 0 0.4 1.6 1.1 3.5 1.5 1.9 0.3 3.5 1 3.5 1.5 0 0.5 0.7 0.9 1.5 0.9 0.8 0 1.5 0.9 1.5 2 0 1.1 -0.7 2 -1.5 2 -0.8 0 -1.5 0.4 -1.5 0.9 0 0.5 -1.1 1.2 -2.5 1.5 -4 1 -10.5 8.3 -10.5 11.7 0 1.6 -0.4 2.9 -1 2.9 -0.5 0 -1 1 -1 2.3 0 4.5 -1.2 6.7 -3.5 6.7 -1.3 0 -2.6 -0.7 -2.9 -1.6z m5.4 -23.4 c0 -0.6 0.7 -1.3 1.5 -1.6 2.2 -0.9 1.8 -2.1 -1 -2.8 -1.5 -0.4 -2.7 -1.6 -3.1 -3.1 -0.7 -2.7 -2.4 -3.4 -2.4 -1 0 0.8 -1 2.3 -2.2 3.4 l-2.1 2.1 3.4 3.3 c2.7 2.7 3.7 3.1 4.7 2.1 0.6 -0.7 1.2 -1.8 1.2 -2.4z"/>
  <path d="M616.8 416.3 c-1.3 -0.3 -1.9 -2 -2.4 -6.4 -0.4 -3.2 -1 -5.9 -1.4 -5.9 -0.4 0 -1 -1.5 -1.3 -3.4 -0.6 -3.9 -9.3 -13.2 -13.2 -14.2 -1.4 -0.3 -2.5 -1 -2.5 -1.5 0 -0.5 -1 -0.9 -2.2 -0.9 -5.1 0 -6.9 -1.1 -6.6 -3.9 0.2 -2 0.9 -2.7 3.1 -2.9 1.5 -0.2 2.7 -0.7 2.7 -1.2 0 -0.5 1.3 -1.1 2.9 -1.5 1.6 -0.3 3.2 -1.3 3.5 -2.1 0.3 -0.8 1 -1.4 1.6 -1.4 1.5 0 4 -2.5 4 -4 0 -0.6 0.7 -1.3 1.5 -1.6 0.8 -0.4 1.8 -2.4 2.1 -4.5 0.4 -2.1 1 -3.9 1.4 -3.9 0.4 0 1 -3.2 1.4 -7.2 0.4 -4 1.2 -7.6 1.9 -8 2 -1.3 4.7 -0.9 4.7 0.7 0 0.8 0.4 1.5 0.9 1.5 0.4 0 1.1 3.2 1.4 7.2 0.3 3.9 1 7.4 1.5 7.7 0.5 0.3 1.2 1.8 1.6 3.4 0.3 1.5 1.1 2.7 1.6 2.7 0.6 0 1 0.6 1 1.3 0 1.4 4.3 5.7 5.8 5.7 0.6 0 1.2 0.5 1.4 1.1 0.2 0.5 2.2 1.3 4.6 1.6 2.3 0.3 4.2 1 4.2 1.4 0 0.5 1.1 0.9 2.5 0.9 2.1 0 2.5 0.5 2.5 3 0 2.6 -0.5 3.1 -3 3.7 -1.6 0.3 -3 0.9 -3 1.4 0 0.5 -1.1 0.9 -2.5 0.9 -1.4 0 -2.8 0.6 -3.1 1.4 -0.3 0.8 -1.6 1.7 -3 2 -1.4 0.4 -2.6 1.6 -3 3 -0.3 1.4 -1.2 2.7 -2 3 -0.8 0.3 -1.4 1.6 -1.4 3 0 1.3 -0.5 2.6 -1.2 2.8 -0.6 0.2 -1.3 3 -1.6 6.1 -0.2 3.1 -0.8 5.7 -1.2 5.7 -0.4 0 -1 0.9 -1.3 2 -0.5 2 -0.8 2.1 -3.9 1.3z m3.2 -27.4 c0 -0.7 1.6 -2.8 3.7 -4.7 2.3 -2.3 3.1 -3.8 2.3 -4 -2 -0.7 -9 -8.3 -9 -9.8 0 -0.8 -0.7 -1.4 -1.5 -1.4 -0.8 0 -1.5 0.7 -1.5 1.5 0 0.8 -0.4 1.5 -1 1.5 -0.5 0 -1.2 1.1 -1.6 2.5 -0.3 1.4 -1.1 2.5 -1.8 2.5 -0.6 0 -1.7 0.4 -2.5 0.9 -1 0.6 0.1 2.2 4.4 6.5 5.5 5.3 8.5 6.9 8.5 4.5z"/>
  <path d="M770.4 409.5 c-0.9 -2.4 0.1 -13.6 1.3 -14.3 0.6 -0.4 1.4 -1.8 1.8 -3.2 1.7 -5.2 5.1 -6.5 6.1 -2.2 0.4 1.5 1.2 3 1.8 3.5 0.8 0.5 0.7 1 -0.2 1.5 -0.7 0.5 -1.6 3.5 -1.9 6.7 -0.3 3.2 -1.3 6.7 -2.2 7.7 -1.9 2.2 -5.9 2.4 -6.7 0.3z"/>
  <path d="M818 409 c0 -0.5 -0.7 -1 -1.6 -1 -1.1 0 -1.4 -0.8 -1.2 -3.2 l0.3 -3.3 8 -0.3 c10.9 -0.4 12.5 0.1 12.5 3.8 0 2 -0.5 3 -1.5 3 -0.8 0 -1.5 0.5 -1.5 1 0 0.6 -3.2 1 -7.5 1 -4.3 0 -7.5 -0.4 -7.5 -1z"/>
  <path d="M845.6 405.5 c-1.2 -4.7 1.9 -6.5 12.4 -7.2 l9 -0.6 0 3.7 c0 2.4 -0.5 3.6 -1.4 3.6 -0.8 0 -1.6 0.6 -1.8 1.2 -0.3 0.9 -3.3 1.4 -9 1.6 l-8.5 0.4 -0.7 -2.7z"/>
  <path d="M797.8 404.3 c-1.6 -0.2 -2.8 -0.9 -2.8 -1.4 0 -0.5 -0.6 -0.9 -1.3 -0.9 -1.4 0 -4.7 -3.5 -4.7 -4.9 0 -0.6 0.9 -1.3 2 -1.6 2.5 -0.8 10 0.3 10 1.5 0 0.4 1.1 1.1 2.5 1.4 4.4 1.1 2.7 7 -1.8 6.5 -0.7 -0.1 -2.4 -0.4 -3.9 -0.6z"/>
  <path d="M877.3 395.4 c-1.5 -0.7 -1.7 -3.4 -0.3 -3.4 0.6 0 1 -0.6 1 -1.4 0 -1.8 5.7 -7.6 7.5 -7.6 0.7 0 1.5 -0.5 1.7 -1.1 0.2 -0.7 2.4 -1.2 4.8 -1.3 4.3 -0.1 4.5 0 4.8 3 0.2 2.4 -0.4 3.9 -2.8 6.3 -1.7 1.7 -3.8 3.1 -4.5 3.1 -0.7 0 -1.5 0.5 -1.7 1.1 -0.4 1.2 -8.5 2.2 -10.5 1.3z"/>
  <path d="M762 385 c0 -0.5 -0.9 -1 -1.9 -1 -1.1 0 -2.6 -0.7 -3.5 -1.5 -0.8 -0.8 -1.8 -1.5 -2.3 -1.5 -1.9 -0.1 -5.4 -5.1 -5.1 -7.2 0.2 -1.8 1 -2.4 3.4 -2.6 1.8 -0.2 3.8 0.3 4.6 1.1 0.8 0.8 2.5 1.8 3.8 2.2 2.6 0.8 7 5.2 7 6.9 0 1.3 -3.6 4.6 -5 4.6 -0.6 0 -1 -0.4 -1 -1z"/>
  <path d="M781.8 374.3 c-0.9 -0.2 -2 -1.3 -2.3 -2.3 -0.7 -2.2 0.4 -7 1.6 -7 0.5 0 0.9 -0.7 0.9 -1.5 0 -0.8 0.9 -2.3 2 -3.2 1.1 -1 2 -2.3 2 -3 0 -0.7 0.7 -1.3 1.5 -1.3 0.8 0 1.5 -0.4 1.5 -1 0 -2 4.8 -1.1 5.5 1.1 1 3 -0.3 8.6 -2 9.3 -0.8 0.3 -1.5 1 -1.5 1.6 0 1.1 -6.3 8.1 -7.1 7.9 -0.2 -0.1 -1.2 -0.3 -2.1 -0.6z"/>
  <path d="M1049.4 371.5 c-0.3 -1.4 -1.1 -2.5 -1.6 -2.5 -0.5 0 -0.2 -0.8 0.8 -1.7 1.3 -1.3 3.8 -1.9 9.7 -2.2 6.9 -0.3 8.1 -0.1 9.8 1.7 2.5 2.8 2.4 4 -0.6 4.8 -1.4 0.3 -2.5 1 -2.5 1.5 0 0.5 -3.4 0.9 -7.5 0.9 -7.1 0 -7.5 -0.1 -8.1 -2.5z"/>
  <path d="M900.8 371.3 c-1.1 -0.3 -1.8 -1.4 -1.8 -2.8 0 -1.3 -0.4 -2.5 -1 -2.7 -0.5 -0.1 -1.3 -5.6 -1.6 -12 l-0.7 -11.8 2.7 0 c2.8 0 7.6 4.2 7.6 6.6 0 0.7 0.4 1.4 1 1.6 0.5 0.2 1.2 4 1.6 8.5 0.6 7.8 0.5 8.4 -1.7 10.7 -2.4 2.6 -3 2.7 -6.1 1.9z"/>
  <path d="M731 367.1 c0 -0.5 -1.8 -1.1 -4 -1.5 -2.2 -0.3 -4 -1.1 -4 -1.6 0 -0.6 -0.6 -1 -1.4 -1 -2 0 -2.7 -3.8 -0.9 -5.6 1.2 -1.1 2.7 -1.3 6.2 -0.8 2.5 0.4 4.8 1 5.1 1.4 0.3 0.4 2.2 1 4.2 1.4 3.9 0.7 5.4 3 4.3 6.6 -0.5 1.6 -1.5 2 -5.1 2 -2.4 0 -4.4 -0.4 -4.4 -0.9z"/>
  <path d="M650.8 362.4 c-1.4 -1.3 -0.9 -6.4 0.6 -6.4 0.8 0 1.6 -0.7 2 -1.5 0.3 -0.8 1.6 -1.5 3 -1.5 1.3 0 2.6 -0.4 2.8 -1 0.2 -0.5 3 -1.1 6.3 -1.2 5.1 -0.3 6 0 6.3 1.5 0.8 4.1 -0.7 6.6 -4.6 7.3 -2 0.4 -4 1.1 -4.3 1.6 -0.8 1.2 -11.2 2.2 -12.1 1.2z"/>
  <path d="M693 358.1 c0 -0.6 -2.1 -1.1 -4.7 -1.3 -5.1 -0.3 -6.1 -1.6 -4.9 -6.4 0.6 -2.2 1.2 -2.4 6.1 -2.4 3 0 5.5 0.5 5.5 1 0 0.6 1.7 1 3.8 1 6.5 0 8.2 0.9 8.2 4.1 0 1.9 -0.5 2.9 -1.5 2.9 -0.8 0 -1.5 0.5 -1.5 1 0 0.6 -2.5 1 -5.5 1 -3 0 -5.5 -0.4 -5.5 -0.9z"/>
  <path d="M933.5 355.3 c-0.8 -0.8 -1.5 -3 -1.5 -4.9 0 -1.9 -0.4 -3.4 -0.9 -3.4 -0.4 0 -1.1 -1.9 -1.4 -4.2 -0.3 -2.4 -1.1 -4.4 -1.6 -4.6 -0.6 -0.2 -1.1 -0.9 -1.1 -1.7 0 -2 -7.7 -9.4 -10.5 -10.1 -1.4 -0.3 -2.5 -1 -2.5 -1.4 0 -0.4 -1.8 -1 -4.1 -1.4 -8.3 -1.3 -9.3 -6.6 -1.3 -6.6 1.3 0 2.4 -0.4 2.4 -0.9 0 -0.5 1.4 -1.2 3 -1.6 1.7 -0.4 3 -1 3 -1.5 0 -0.4 1.1 -1.1 2.5 -1.4 3.3 -0.8 6.3 -3.8 7.1 -7.1 0.3 -1.4 1 -2.5 1.5 -2.5 0.4 0 1.1 -2.7 1.5 -6 0.4 -3.3 1 -6 1.5 -6 0.4 0 0.9 -1.9 1.1 -4.2 0.2 -2.9 0.8 -4.4 1.8 -4.5 2.8 -0.5 4.3 1.5 4.8 6.6 0.2 2.8 0.8 5.1 1.2 5.1 0.4 0 1 2 1.2 4.4 0.3 2.5 1.3 5.2 2.2 6.1 0.9 0.9 1.6 2.1 1.6 2.6 0 1.4 5.1 5.9 6.6 5.9 0.8 0 1.4 0.4 1.4 0.9 0 0.5 1.4 1.2 3 1.6 1.7 0.4 3 1.1 3 1.6 0 0.5 1.3 0.9 2.9 0.9 3.4 0 4.5 1.2 3.6 3.9 -0.4 1.3 -1.9 2.1 -5 2.6 -2.5 0.3 -4.5 1 -4.5 1.5 0 0.5 -0.9 1.2 -2 1.5 -2.8 0.9 -8.7 6.9 -9.6 9.7 -0.3 1.3 -1.1 2.6 -1.7 3 -0.6 0.3 -1.2 3.1 -1.5 6.2 -0.2 3.1 -0.8 5.6 -1.3 5.6 -0.5 0 -0.9 1.1 -0.9 2.4 0 2.9 -3.4 4.1 -5.5 1.9z m4.5 -26.4 c0 -0.7 1.6 -2.7 3.5 -4.6 3.9 -3.8 4.5 -6.2 1.5 -7 -1.1 -0.3 -2 -1 -2 -1.6 0 -0.5 -1.1 -2 -2.5 -3.3 -1.4 -1.3 -2.5 -2.9 -2.6 -3.6 0 -1 -0.2 -0.9 -0.6 0.1 -0.3 0.8 -2.6 3.3 -5.1 5.7 l-4.5 4.4 3.6 3.5 c2.1 2 3.7 4.2 3.7 5 0 1.3 1.4 2.3 3.8 2.4 0.6 0.1 1.2 -0.4 1.2 -1z"/>
  <path d="M801.8 345.1 c-1 -1 -1.8 -2.6 -1.8 -3.7 0 -1.9 3.1 -5.4 4.8 -5.4 0.4 0 1.5 -0.9 2.5 -2 0.9 -1.1 2.3 -2 3.1 -2 0.8 0 1.6 -0.4 1.8 -1 0.5 -1.7 8.5 -1.5 10.2 0.3 0.9 0.8 1.6 1.8 1.6 2.1 0 1.2 -8.3 8.6 -9.6 8.6 -0.8 0 -1.4 0.4 -1.4 0.9 0 0.5 -1.3 1.2 -3 1.6 -1.6 0.4 -3 1.1 -3 1.6 0 1.5 -3.4 0.9 -5.2 -1z"/>
  <path d="M1031 339.6 c0 -0.8 -0.6 -1.7 -1.2 -2 -1 -0.5 -1 -0.7 0 -1.2 0.6 -0.3 1.2 -1.2 1.2 -2 0 -0.8 0.7 -1.7 1.5 -2 0.8 -0.4 1.5 -1.2 1.5 -2 0 -0.8 0.7 -1.4 1.5 -1.4 0.8 0 1.5 -0.7 1.5 -1.5 0 -0.8 0.5 -1.5 1 -1.5 0.6 0 2.1 -1.1 3.4 -2.5 2.7 -2.9 4.1 -3.1 6.2 -1.1 2.6 2.7 1.7 6.5 -2.8 11 -2.4 2.3 -5.1 4.5 -6 4.9 -1 0.3 -1.8 1.1 -1.8 1.7 0 0.5 -1.3 1 -3 1 -1.9 0 -3 -0.5 -3 -1.4z"/>
  <path d="M880.3 335.3 c-1.3 -0.2 -2.3 -0.8 -2.3 -1.3 0 -0.5 -1.6 -1.2 -3.6 -1.6 -2 -0.4 -4.5 -1.5 -5.5 -2.5 -2.3 -2.3 -2.5 -6.9 -0.4 -6.9 0.8 0 1.5 -0.4 1.5 -1 0 -0.5 1.1 -1 2.5 -1 1.4 0 2.5 0.4 2.5 0.9 0 0.4 1.9 1.1 4.2 1.4 2.4 0.3 4.4 1.1 4.6 1.6 0.2 0.6 0.9 1.1 1.6 1.1 2 0 4.6 3.9 4.6 7 0 2.8 -0.2 3 -3.7 2.9 -2.1 -0.1 -4.8 -0.4 -6 -0.6z"/>
  <path d="M832.8 329.9 c-2.2 -2.3 -2.4 -6.9 -0.4 -6.9 0.8 0 1.6 -0.5 1.8 -1.2 0.3 -0.7 3.2 -1.4 7.1 -1.6 4.1 -0.3 6.7 -0.9 6.7 -1.6 0 -0.8 0.2 -0.8 0.8 0 0.4 0.7 1.8 1.4 3.2 1.5 3.4 0.5 4.2 5.8 1.1 6.6 -1.2 0.3 -2.1 0.9 -2.1 1.3 0 0.4 -2.6 1 -5.7 1.3 -3.2 0.3 -5.9 1.1 -6.1 1.7 -0.6 1.6 -4.5 1 -6.4 -1.1z"/>
  <path d="M985.5 302.5 c-1.1 -1.4 -2.5 -2.5 -3 -2.5 -0.6 0 -1.8 -0.9 -2.8 -2 -1.6 -1.9 -1.6 -2 0.4 -2 2.2 0 6.9 -4.5 6.9 -6.6 0 -0.8 0.5 -1.4 1.1 -1.4 1.4 0 3.9 2.5 3.9 4 0 0.6 0.8 1.4 1.8 1.7 4 1.6 4 2.7 -0.4 7 -2.3 2.4 -4.6 4.3 -5.1 4.3 -0.4 -0.1 -1.7 -1.2 -2.8 -2.5z"/>
 </g>
 <g fill="#f8dc6a">
  <path d="M1040.4 425.8 c-0.3 -1.2 -2 -3.4 -3.7 -5 l-3.1 -2.8 3.2 -2.9 c1.7 -1.7 3.2 -3.4 3.2 -4 0 -2 2.8 0.1 3.4 2.5 0.4 1.4 1.6 2.6 3.1 3 2.4 0.6 3.6 3.4 1.5 3.4 -1.9 0 -5 3.5 -5 5.7 0 2.9 -1.6 3 -2.6 0.1z"/>
  <path d="M560.1 405.8 c0 -1 -0.5 -1.8 -1 -1.8 -0.5 0 -1.3 -0.9 -1.6 -2 -0.9 -2.7 -6.8 -8.6 -9.5 -9.5 -2.3 -0.7 -2.7 -2.5 -0.6 -2.5 1.9 0 7.6 -5.7 7.6 -7.6 0 -0.8 0.4 -1.4 1 -1.4 0.5 0 1.2 -1.6 1.6 -3.5 0.3 -1.9 1 -3.5 1.4 -3.5 0.4 0 1.1 1.6 1.4 3.5 0.4 1.9 1.1 3.5 1.5 3.5 0.5 0 1.2 1.1 1.5 2.5 0.4 1.5 1.6 2.7 3 3.1 1.4 0.3 2.7 1.2 3 2 0.3 0.8 1.2 1.4 2.1 1.4 0.8 0 1.5 0.3 1.5 0.8 0 1 -3.1 3.6 -5.3 4.5 -0.9 0.3 -1.7 1.3 -1.7 2.2 0 0.8 -0.4 1.5 -1 1.5 -0.5 0 -1.2 1.1 -1.6 2.5 -0.3 1.4 -1 2.5 -1.4 2.5 -0.5 0 -1.1 0.8 -1.3 1.8 -0.4 1.6 -0.5 1.6 -0.6 0z"/>
  <path d="M617 399 c0 -1.7 -0.4 -3 -1 -3 -0.5 0 -1 -0.5 -1 -1.1 0 -0.6 -2.4 -3.5 -5.4 -6.5 -3 -3 -5.9 -5.4 -6.5 -5.4 -0.6 0 -1.1 -0.4 -1.1 -1 0 -0.5 -0.7 -1 -1.5 -1 -0.8 0 -1.5 -0.7 -1.5 -1.5 0 -0.8 0.6 -1.5 1.3 -1.5 0.7 0 2 -0.9 3 -2 0.9 -1.1 2.3 -2 3.1 -2 0.8 0 1.7 -1.1 2 -2.5 0.4 -1.4 1 -2.5 1.5 -2.5 0.5 0 1.2 -1.3 1.6 -3 0.4 -1.6 1.1 -3 1.6 -3 0.5 0 0.9 -0.9 0.9 -2 0 -3.4 2.7 -2.2 3.4 1.5 0.4 1.9 1.1 3.5 1.6 3.5 0.6 0 1 0.6 1 1.4 0 2.1 7.6 9.5 10.5 10.2 1.4 0.3 2.5 1 2.5 1.5 0 0.5 0.7 0.9 1.5 0.9 2.3 0 0.6 2.8 -2.2 3.5 -2.8 0.7 -9.3 6.5 -9.3 8.4 0 0.6 -0.4 1.1 -1 1.1 -0.5 0 -1.3 1.8 -1.6 3.9 -0.8 4.9 -3.4 6.5 -3.4 2.1z"/>
  <path d="M935 338.5 c0 -1.4 -0.4 -2.5 -1 -2.5 -0.5 0 -1 -0.7 -1 -1.5 0 -0.9 -0.7 -1.8 -1.5 -2.1 -0.8 -0.4 -1.5 -1.2 -1.5 -1.9 0 -1.8 -5.8 -7.5 -7.6 -7.5 -0.8 0 -1.4 -0.4 -1.4 -0.9 0 -0.5 -0.9 -1.1 -2 -1.4 -2.8 -0.7 -2.5 -2.4 0.5 -3.1 3.1 -0.8 12.3 -10 13.1 -13.1 0.3 -1.4 1 -2.5 1.4 -2.5 0.5 0 1.1 -0.8 1.3 -1.8 0.4 -1.6 0.5 -1.6 0.6 0.1 0 0.9 0.5 1.7 1 1.7 0.5 0 1.2 1.2 1.5 2.6 0.4 1.4 1.8 3.6 3.1 4.8 1.4 1.3 2.5 2.8 2.5 3.5 0 0.6 0.7 1.1 1.5 1.1 0.9 0 1.8 0.6 2.1 1.4 0.3 0.8 1.9 1.8 3.5 2.1 3 0.7 4.1 3.5 1.4 3.5 -0.8 0 -1.5 0.5 -1.5 1 0 0.6 -0.5 1 -1.1 1 -1.5 0 -8.9 7.4 -8.9 8.9 0 0.6 -0.4 1.1 -1 1.1 -0.5 0 -1.3 1.8 -1.6 4 -0.7 4.5 -3.4 5.6 -3.4 1.5z"/>
 </g>
</svg>