<svg xmlns="http://www.w3.org/2000/svg" version="1.0" preserveAspectRatio="xMidYMid meet" viewBox="498 371.4 533 246.23">
 <g fill="#6f4a2c">
  <path d="M800.8 617.3 c-1.6 -0.2 -2.8 -0.9 -2.8 -1.4 0 -0.5 -0.6 -0.9 -1.3 -0.9 -0.7 0 -2 -0.9 -3 -2 -0.9 -1.1 -2.4 -2 -3.2 -2 -0.8 0 -1.7 -1.1 -2.1 -2.4 -0.3 -1.4 -1.2 -2.7 -2 -3 -0.8 -0.3 -1.4 -1.2 -1.4 -2 0 -0.8 -0.5 -1.6 -1.1 -1.8 -0.5 -0.2 -1.3 -2.2 -1.6 -4.6 -0.3 -2.3 -1 -4.2 -1.4 -4.2 -0.5 0 -0.9 -23.9 -0.9 -53.5 0 -29.6 0.4 -53.5 0.9 -53.5 0.4 0 1.1 -1.9 1.4 -4.2 0.3 -2.4 1.1 -4.4 1.6 -4.6 0.6 -0.2 1.1 -0.8 1.1 -1.4 0 -1.8 6.6 -7.7 9.4 -8.4 1.4 -0.3 2.6 -1 2.6 -1.5 0 -0.4 1.6 -1.1 3.5 -1.5 1.9 -0.3 3.5 -1 3.5 -1.5 0 -0.5 18.4 -0.9 42.5 -0.9 41.2 0 42.6 0.1 44.5 2 2.7 2.7 2.6 5.6 -0.2 6.4 -1.3 0.3 -21.5 0.6 -45 0.6 -24.4 0 -42.8 0.4 -42.8 0.9 0 0.5 -1.2 1.2 -2.6 1.5 -3.5 0.9 -9.4 6.8 -9.4 9.5 0 1.1 -0.4 2.1 -1 2.1 -0.7 0 -1 19.2 -1 55.5 0 36.3 0.3 55.5 1 55.5 0.6 0 1 0.7 1 1.5 0 0.9 0.6 1.8 1.4 2.1 0.8 0.3 1.7 1.6 2 2.9 0.3 1.3 1.6 2.5 3.1 2.9 1.4 0.4 2.5 1.1 2.5 1.6 0 0.5 1.6 1.2 3.5 1.6 1.9 0.3 3.5 1 3.5 1.5 0 0.5 41.9 0.9 99 0.9 55.4 0 99 -0.4 99 -0.9 0 -0.4 1.5 -1.1 3.4 -1.4 3.6 -0.6 11.6 -7.7 11.6 -10.3 0 -0.8 0.5 -1.4 1 -1.4 0.7 0 1 -22.3 1 -65 0 -38.9 -0.4 -65 -0.9 -65 -0.5 0 -1.2 -1.4 -1.6 -3 -0.4 -1.7 -1.3 -3 -2.1 -3 -0.8 0 -1.4 -0.4 -1.4 -1 0 -0.5 -1.1 -1.2 -2.5 -1.6 -1.4 -0.3 -2.5 -1 -2.5 -1.5 0 -0.5 -1.3 -0.9 -2.9 -0.9 -4.4 0 -6.1 -1 -6.1 -3.5 0 -2.8 1.7 -3.5 8.6 -3.5 3.8 0 5.6 0.4 6 1.4 0.3 0.8 1.6 1.7 3 2 1.3 0.4 2.4 1.1 2.4 1.6 0 0.6 0.7 1 1.5 1 0.8 0 1.5 0.7 1.5 1.5 0 0.9 0.6 1.8 1.4 2.1 0.7 0.3 1.6 2.3 2 4.5 0.3 2.1 1.1 3.9 1.6 3.9 0.7 0 1 22.7 1 64.5 0 38.2 -0.4 64.5 -0.9 64.5 -0.5 0 -1.2 1.8 -1.6 4 -0.5 3.1 -1.9 5.3 -5.6 9 -2.6 2.7 -5.9 5.2 -7.1 5.6 -1.3 0.3 -2.6 1.2 -3 1.8 -0.5 0.8 -29.5 1.1 -105 1.2 -57.4 0.1 -105.5 -0.1 -107 -0.3z"/>
  <path d="M527.3 605.3 c-1.8 -0.2 -3.3 -0.8 -3.3 -1.2 0 -0.5 -1.9 -1.1 -4.2 -1.4 -2.4 -0.3 -4.4 -1.1 -4.6 -1.6 -0.2 -0.6 -1 -1.1 -1.7 -1.1 -1.8 0 -10.5 -8.8 -10.5 -10.6 0 -0.8 -0.4 -1.4 -1 -1.4 -0.5 0 -1.2 -1.6 -1.6 -3.5 -0.3 -1.9 -1 -3.5 -1.5 -3.5 -0.5 0 -0.9 -38.8 -0.9 -91.5 0 -51.1 0.4 -91.5 0.9 -91.5 0.4 0 1.1 -1.8 1.4 -4 0.3 -2.2 1.2 -4.7 2.1 -5.5 0.9 -0.9 1.6 -2.1 1.6 -2.6 0 -1.4 8 -8.9 9.5 -8.9 0.7 0 1.5 -0.7 1.9 -1.5 0.3 -0.8 1.6 -1.5 3 -1.5 1.3 0 2.6 -0.6 2.8 -1.2 0.6 -1.8 277.5 -1.9 278.6 -0.1 0.4 0.6 2 1.5 3.5 1.8 1.5 0.4 2.7 1.1 2.7 1.6 0 0.5 0.5 0.9 1.1 0.9 1.8 0 10.5 9.3 11.4 12.1 0.4 1.3 1.3 2.7 1.9 3.1 1.2 0.8 2.3 52.9 1.2 57.3 -0.8 3.1 -3.8 3.3 -6.6 0.5 -1.8 -1.8 -1.9 -3.7 -2.2 -29.1 -0.2 -20.7 -0.6 -27.3 -1.5 -27.7 -0.7 -0.2 -1.3 -0.8 -1.3 -1.4 0 -1.7 -6.3 -7.5 -9.1 -8.3 -1.3 -0.4 -2.7 -1.3 -3.1 -1.9 -1.1 -1.7 -276 -1.6 -276.5 0.2 -0.3 0.6 -1.1 1.2 -1.8 1.2 -2.1 0 -10.5 8.9 -10.5 11.1 0 1 -0.4 1.9 -1 1.9 -0.7 0 -1 31.5 -1 92.5 0 61 0.3 92.5 1 92.5 0.6 0 1 0.7 1 1.5 0 0.9 0.6 1.8 1.4 2.1 0.8 0.3 1.7 1.6 2 3 0.4 1.4 1.6 2.6 3 3 1.4 0.3 2.7 1.2 3 2 0.3 0.8 1.7 1.4 3.1 1.4 1.4 0 2.5 0.4 2.5 0.9 0 0.4 54.5 1 121 1.3 66.6 0.3 121.2 0.7 121.5 0.9 1.4 1.5 1.5 5.8 0 7.3 -1.5 1.5 -11.3 1.6 -118.8 1.4 -64.5 0 -118.7 -0.3 -120.4 -0.5z"/>
  <path d="M830.5 590 c-0.8 -1.3 0.4 -5 1.6 -5 0.5 0 0.9 -0.7 0.9 -1.5 0 -0.8 0.6 -1.5 1.3 -1.5 0.7 0 2.5 -1.4 3.9 -3.1 3.2 -3.6 9.8 -5.3 9.8 -2.5 0 2.5 -12.3 14.6 -14.8 14.6 -1.2 0 -2.4 -0.5 -2.7 -1z"/>
  <path d="M872.8 572.3 c-1.6 -0.2 -2.8 -0.8 -2.8 -1.3 0 -0.5 -1.3 -1.1 -3 -1.5 -1.6 -0.4 -3 -1.1 -3 -1.6 0 -0.5 -0.5 -0.9 -1.1 -0.9 -1.5 0 -11.9 -10.4 -11.9 -11.9 0 -0.6 -0.4 -1.1 -1 -1.1 -0.5 0 -1.3 -1.8 -1.6 -4 -0.4 -2.2 -1 -4 -1.5 -4 -0.5 0 -0.9 -3.4 -0.9 -7.5 0 -4.1 0.4 -7.5 0.9 -7.5 0.4 0 1.1 -1.9 1.4 -4.2 0.3 -2.4 1.1 -4.4 1.6 -4.6 0.6 -0.2 1.1 -1 1.1 -1.8 0 -0.8 0.7 -1.7 1.5 -2 0.8 -0.3 1.7 -1.5 2 -2.5 0.7 -2.2 23.2 -24.9 24.6 -24.9 0.5 0 2.6 -1.8 4.7 -3.9 2.1 -2.2 5 -4.3 6.4 -4.6 1.5 -0.4 2.9 -1.3 3.2 -2.1 0.3 -0.8 1.6 -1.4 3 -1.4 1.3 0 2.6 -0.5 2.8 -1.1 0.2 -0.6 2.5 -1.3 5.1 -1.6 2.6 -0.3 4.7 -1 4.7 -1.4 0 -0.5 2.5 -0.9 5.5 -0.9 3 0 5.5 0.4 5.5 0.9 0 0.4 2.1 1.1 4.6 1.4 2.6 0.2 4.9 0.9 5.3 1.5 0.3 0.5 1.7 1.3 3.1 1.7 1.4 0.4 3.5 1.8 4.7 3.1 1.2 1.3 2.6 2.4 3.1 2.4 0.5 0 2.1 1.1 3.6 2.5 5.2 4.8 2.8 15.5 -3.5 15.5 -1.2 0 -4.4 -2.3 -7.6 -5.6 -4.4 -4.4 -6.4 -5.7 -9.4 -6.1 -2.2 -0.3 -3.9 -1 -3.9 -1.4 0 -0.5 -2.5 -0.9 -5.5 -0.9 -3 0 -5.5 0.4 -5.5 0.9 0 0.5 -1.6 1.2 -3.5 1.5 -1.9 0.4 -3.5 1.1 -3.5 1.5 0 0.5 -1.1 1.2 -2.5 1.5 -1.4 0.4 -2.5 1.1 -2.5 1.6 0 0.6 -0.5 1 -1.2 1 -0.6 0 -3.7 2.7 -7 6 -3.2 3.3 -6.2 6 -6.7 6 -1.6 0 -17.9 16.8 -18.7 19.2 -0.3 1.3 -1.1 2.6 -1.6 2.9 -1.4 0.9 -1.3 13.2 0.1 13.7 0.6 0.2 1.1 0.8 1.1 1.4 0 1.3 7.5 8.8 8.8 8.8 0.6 0 1.2 0.6 1.5 1.3 0.2 0.8 3.5 1.2 11.4 1.2 9.1 0 11.2 -0.3 12.7 -1.7 1 -1 2.1 -1.8 2.6 -1.8 0.5 0 4.1 -3.1 7.9 -7 6.3 -6.4 10.1 -8.6 10.1 -6 0 0.6 1.7 1 3.8 1 6.6 0 8.4 0.9 7.7 3.7 -0.6 2.4 -9.4 12.3 -11 12.3 -0.4 0 -2.4 1.8 -4.5 3.9 -2.1 2.1 -4.8 4.2 -5.9 4.6 -1.2 0.3 -2.1 1 -2.1 1.5 0 0.4 -1.2 1.1 -2.7 1.5 -1.5 0.3 -3.1 1.2 -3.5 1.8 -0.7 1.2 -21.4 2 -27 1z"/>
  <path d="M745.8 569.3 c-1 -0.2 -1.8 -0.8 -1.8 -1.3 0 -0.4 -1.6 -1.1 -3.5 -1.4 -1.9 -0.4 -3.5 -1.1 -3.5 -1.5 0 -0.5 -1.1 -1.2 -2.5 -1.5 -2.8 -0.7 -3.2 -2.1 -1.1 -4.2 1.7 -1.6 3.6 -1.9 3.6 -0.5 0 0.6 2 1.3 4.5 1.7 2.5 0.3 4.5 1 4.5 1.4 0 0.5 1.4 1.1 3 1.5 2.7 0.6 4.4 3.5 2 3.5 -0.5 0 -1 0.7 -1 1.5 0 1.5 -0.9 1.7 -4.2 0.8z"/>
  <path d="M816 566.6 c0 -3 1.6 -3.6 10.1 -3.6 3.9 0 6.9 -0.4 6.9 -1 0 -0.5 0.7 -1 1.5 -1 0.8 0 1.5 0.5 1.5 1 0 0.6 0.7 1 1.5 1 0.8 0 1.5 0.9 1.5 2 0 1.6 -0.7 2 -3 2 -1.6 0 -3 0.5 -3 1 0 0.6 -3.5 1 -8.5 1 -8.3 0 -8.5 -0.1 -8.5 -2.4z"/>
  <path d="M985.8 551.3 c-1 -0.2 -1.8 -0.9 -1.8 -1.4 0 -0.5 -0.7 -0.9 -1.5 -0.9 -0.9 0 -1.8 -0.6 -2.1 -1.4 -0.3 -0.8 -1.6 -1.7 -3 -2 -2.7 -0.7 -3.1 -2.1 -1 -4.2 1.7 -1.6 4.6 -1.9 4.6 -0.4 0 0.6 0.6 1 1.4 1 0.8 0 2.1 0.6 2.8 1.3 0.7 0.8 2.5 1.7 4 2 2.7 0.7 4.5 3.8 3.3 5.7 -0.6 1 -3.5 1.1 -6.7 0.3z"/>
  <path d="M596.2 548.4 c-0.8 -0.4 -3 -2.3 -5 -4.3 -3.6 -3.5 -3.7 -3.8 -3.7 -11 0 -5.1 0.4 -7.6 1.3 -7.8 0.6 -0.3 1.2 -1.1 1.2 -1.9 0 -0.8 0.8 -1.8 1.8 -2.1 0.9 -0.4 2 -1.1 2.4 -1.7 1.1 -1.6 16 -1.4 16.6 0.2 0.2 0.6 0.9 1.2 1.6 1.2 1.6 0 4.4 3.5 5.2 6.5 0.3 1.4 1 2.5 1.5 2.5 0.5 0 0.9 1.4 0.9 3 0 1.7 -0.4 3 -0.9 3 -0.5 0 -1.1 1.4 -1.5 3.1 -0.3 1.7 -2 4.5 -3.7 6.2 -2.9 2.8 -3.9 3.2 -9.8 3.4 -3.6 0.1 -7.2 0 -7.9 -0.3z m10.2 -10.6 c2.5 -2.6 2.5 -4.6 0.1 -7.2 -1.3 -1.4 -3.1 -2.6 -4 -2.6 -1.9 0 -5.5 3.5 -5.5 5.5 0 4 6.6 7 9.4 4.3z"/>
  <path d="M930 535.1 c0 -0.4 -2.7 -1.1 -6 -1.5 -3.3 -0.4 -6 -1.1 -6 -1.6 0 -0.4 -1.3 -1.1 -2.9 -1.5 -1.6 -0.3 -3.2 -1.3 -3.5 -2.1 -0.3 -0.8 -1 -1.4 -1.6 -1.4 -1.9 0 -6.8 -5.5 -7.6 -8.4 -0.3 -1.4 -1 -2.6 -1.5 -2.6 -1.6 0 -1 -5.9 0.8 -8 2.3 -2.6 9.1 -2.8 10 -0.3 0.9 2.3 3.5 5.3 4.7 5.3 0.5 0 2 1.2 3.4 2.8 2.5 2.6 2.9 2.7 13.6 2.7 7.8 0 11.1 -0.4 11.4 -1.2 0.2 -0.7 1 -1.3 1.7 -1.3 0.7 0 3.4 -2 5.8 -4.5 2.5 -2.5 4.9 -4.5 5.2 -4.5 1.1 0 19.5 -18.8 19.5 -19.9 0 -0.5 0.8 -1.4 1.8 -2 1.4 -0.8 1.7 -2.4 1.7 -9.8 l0 -8.8 -5.9 -5.8 c-3.2 -3.1 -6.4 -5.7 -7.1 -5.7 -0.7 0 -1.5 -0.5 -1.7 -1.2 -0.6 -1.6 -19.6 -1.8 -20.6 -0.2 -0.4 0.6 -1.8 1.5 -3.2 1.9 -1.3 0.4 -3.5 2.1 -4.9 3.6 -1.4 1.6 -2.9 2.9 -3.4 2.9 -0.5 0 -1.5 0.7 -2.3 1.5 -1.2 1.1 -3.9 1.5 -11 1.5 -5.2 0 -9.4 -0.2 -9.4 -0.4 0 -1.1 17.2 -17.5 19 -18.1 1.1 -0.3 2 -1 2 -1.5 0 -0.4 1.2 -1.1 2.7 -1.5 1.5 -0.3 3.1 -1.1 3.4 -1.7 0.3 -0.5 2.5 -1.2 4.8 -1.5 2.2 -0.3 4.1 -1 4.1 -1.4 0 -0.5 3.6 -0.9 8 -0.9 4.4 0 8 0.4 8 0.9 0 0.5 2.5 1.2 5.5 1.6 3 0.3 5.5 1.1 5.5 1.6 0 0.5 0.7 0.9 1.5 0.9 0.9 0 1.8 0.7 2.1 1.5 0.4 0.8 1.2 1.5 1.9 1.5 1.9 0 12.2 10.4 13 13.2 0.4 1.3 1.3 2.6 1.9 3 1.6 1 1.5 25.6 -0.1 26.6 -0.6 0.4 -1.5 2 -1.8 3.5 -0.4 1.5 -1.1 2.7 -1.5 2.7 -0.5 0 -1.2 0.9 -1.5 2 -0.8 2.6 -21.9 23.7 -24.5 24.5 -1.1 0.3 -2 1.1 -2 1.6 0 0.5 -0.8 1.3 -1.7 1.6 -1 0.4 -2.7 1.6 -3.9 2.9 -1.1 1.2 -3.2 2.5 -4.5 2.9 -1.3 0.4 -2.7 1.2 -3.1 1.8 -0.4 0.6 -3.6 1.3 -7.2 1.5 -3.6 0.2 -6.6 0.8 -6.6 1.3 0 0.5 -1.3 0.9 -3 0.9 -1.6 0 -3 -0.4 -3 -0.9z"/>
  <path d="M988.3 530.3 c-2.4 -0.2 -4.3 -0.8 -4.3 -1.4 0 -0.5 -0.7 -0.9 -1.5 -0.9 -2.3 0 -1.8 -2.8 0.6 -3.5 1.1 -0.4 5.6 -0.4 10 0 6.4 0.6 7.9 1 8.4 2.6 1.3 3.9 -0.6 4.3 -13.2 3.2z"/>
  <path d="M707 516.5 c0 -0.8 -0.4 -1.5 -1 -1.5 -2.8 0 2.3 -6.8 6.3 -8.3 0.9 -0.3 1.7 -1.1 1.7 -1.7 0 -0.5 0.6 -1 1.4 -1 0.8 0 2.8 -1.3 4.4 -2.9 1.6 -1.7 4.1 -3.3 5.6 -3.7 4.2 -1 3 -2.2 -3.1 -3 -3.2 -0.4 -6.1 -1.1 -6.5 -1.7 -0.9 -1.5 -45.6 -1.6 -46.6 -0.1 -0.4 0.6 -2.8 1.4 -5.4 1.8 -2.7 0.4 -4.8 1.1 -4.8 1.6 0 0.5 -1.3 1.1 -3 1.5 -1.6 0.4 -3 1.1 -3 1.6 0 0.5 -0.7 0.9 -1.5 0.9 -0.8 0 -1.5 -0.4 -1.5 -1 0 -0.5 -0.7 -1 -1.5 -1 -1.6 0 -2 -2.7 -0.7 -4.7 0.4 -0.6 2 -1.5 3.5 -1.8 1.5 -0.4 2.7 -1.1 2.7 -1.5 0 -0.4 2 -1.1 4.5 -1.4 2.5 -0.4 4.5 -1.1 4.5 -1.5 0 -0.5 3.4 -1.2 7.5 -1.6 4.1 -0.4 7.5 -1.1 7.5 -1.6 0 -1.1 29.7 -1.2 30.2 -0.1 0.2 0.5 4 1.2 8.6 1.5 9.2 0.7 10.2 -0.1 5.2 -4.3 -1.7 -1.3 -3 -3 -3 -3.6 0 -0.7 -0.5 -1.4 -1.1 -1.6 -0.6 -0.2 -1.2 -2.2 -1.3 -4.3 -0.1 -3.5 0.2 -4 2.2 -4.3 1.7 -0.3 3.7 1 7.3 4.7 2.8 2.8 5.4 5.1 5.9 5.1 0.9 0 17 15.7 17 16.6 0 1 -5.5 6 -7.2 6.7 -1 0.3 -1.8 1.1 -1.8 1.6 0 0.5 -1.3 1.2 -3 1.6 -1.6 0.4 -3 1.1 -3 1.6 0 0.5 -1.1 1.1 -2.4 1.5 -1.4 0.3 -2.7 1.2 -3 2 -0.3 0.8 -1.2 1.4 -2.1 1.4 -0.8 0 -1.5 0.4 -1.5 0.9 0 0.5 -1.3 1.2 -3 1.6 -1.6 0.4 -3 1 -3 1.5 0 0.5 -1.3 1.1 -3 1.5 -1.6 0.4 -3 1.1 -3 1.6 0 0.5 -1.3 0.9 -3 0.9 -2 0 -3 -0.5 -3 -1.5z"/>
  <path d="M617.8 515.4 c-1.4 -1.4 -0.9 -5.4 0.7 -5.4 0.9 0 1.8 -0.6 2.1 -1.4 0.3 -0.8 1.6 -1.7 3 -2 1.3 -0.4 2.4 -1.1 2.4 -1.6 0 -0.6 0.7 -1 1.5 -1 0.7 0 1.8 -0.7 2.3 -1.6 0.5 -0.8 2.7 -1.8 5 -2.1 3.7 -0.5 4.2 -0.3 4.2 1.4 0 2.4 -3.9 6.8 -6.8 7.8 -1.2 0.3 -2.2 1.1 -2.2 1.6 0 0.5 -0.7 0.9 -1.5 0.9 -0.7 0 -1.8 0.7 -2.3 1.5 -0.9 1.7 -7.3 3.1 -8.4 1.9z"/>
  <path d="M519 436 c0 -0.5 -0.6 -1 -1.4 -1 -2.1 0 -2.8 -1.5 -2 -4.5 l0.6 -2.5 141.2 0 c77.6 0 142.1 0.3 143.4 0.6 1.5 0.4 2.2 1.4 2.2 3.1 0 5.5 1.8 5.3 -59.4 5.3 -37.1 0 -56.6 -0.3 -56.6 -1 0 -0.6 -4.8 -1 -12.5 -1 -7.7 0 -12.5 0.4 -12.5 1 0 0.6 -12.5 1 -35.5 1 -23 0 -35.5 -0.4 -35.5 -1 0 -0.6 -12.3 -1 -35 -1 -22.7 0 -35 0.4 -35 1 0 0.6 -0.4 1 -1 1 -0.5 0 -1 -0.4 -1 -1z"/>
  <path d="M534.6 412.4 c-0.9 -0.8 -1.6 -2.2 -1.6 -3 0 -0.8 -0.4 -1.4 -1 -1.4 -0.5 0 -1 -1.3 -1 -3 0 -1.6 0.4 -3 0.9 -3 0.5 0 1.1 -0.9 1.4 -2 0.4 -1.7 1.4 -2 6.5 -2 6.2 0 9.2 1.5 9.2 4.6 0 0.8 0.5 1.4 1 1.4 0.6 0 1 0.9 1 2 0 1.1 -0.4 2 -0.9 2 -0.5 0 -1.2 1.1 -1.5 2.4 -0.9 3.7 -10.9 5.2 -14 2z"/>
  <path d="M564.6 412.4 c-0.9 -0.8 -1.6 -2.2 -1.6 -3 0 -0.8 -0.4 -1.4 -1 -1.4 -0.5 0 -1 -1.3 -1 -3 0 -1.6 0.4 -3 0.9 -3 0.5 0 1.1 -0.9 1.4 -2 0.4 -1.7 1.3 -2 6.4 -2 3.2 0 6.4 0.4 7.2 0.9 0.7 0.5 1.6 2.9 1.8 5.5 0.5 3.8 0.2 4.9 -1.8 7.1 -2.9 2.9 -9.8 3.5 -12.3 0.9z"/>
  <path d="M593.6 411.5 c-1.9 -1.7 -2.6 -3.4 -2.6 -6 0 -1.9 0.4 -3.5 0.9 -3.5 0.5 0 1.1 -1 1.4 -2.1 0.5 -2 1.1 -2.1 7.1 -1.7 3.6 0.2 6.9 0.7 7.3 1.2 1.7 1.6 0.8 10 -1.2 12.4 -2.8 3.2 -9.3 3.1 -12.9 -0.3z"/>
 </g>
 <g fill="#f9f8f7">
  <path d="M588.2 605.3 c32.2 -0.2 85.3 -0.2 118 0 32.6 0.1 6.2 0.2 -58.7 0.2 -64.9 0 -91.6 -0.1 -59.3 -0.2z"/>
  <path d="M627.7 596.3 c15.5 -0.2 41.1 -0.2 57 0 15.8 0.1 3.2 0.2 -28.2 0.2 -31.3 0 -44.3 -0.1 -28.8 -0.2z"/>
  <path d="M599.1 542.3 c-5.7 -2.4 -7.6 -10.8 -3.3 -15 3.4 -3.5 10.5 -3.2 13.8 0.5 2.2 2.2 2.5 3.4 2.1 6.9 -0.2 2.3 -1.1 4.9 -2 5.7 -1.6 1.7 -8.4 2.9 -10.6 1.9z"/>
  <path d="M813 425.5 c0 -15 0.4 -23.5 1 -23.5 0.6 0 1 8.5 1 23.5 0 15 -0.4 23.5 -1 23.5 -0.6 0 -1 -8.5 -1 -23.5z"/>
  <path d="M591 436 c0 -0.6 12.5 -1 35.5 -1 23 0 35.5 0.4 35.5 1 0 0.6 -12.5 1 -35.5 1 -23 0 -35.5 -0.4 -35.5 -1z"/>
  <path d="M687 436 c0 -0.7 19.7 -1 57 -1 37.3 0 57 0.3 57 1 0 0.7 -19.7 1 -57 1 -37.3 0 -57 -0.3 -57 -1z"/>
 </g>
</svg>