<svg xmlns="http://www.w3.org/2000/svg" version="1.0" preserveAspectRatio="xMidYMid meet" viewBox="455.47 285 638.53 344.82">
 <g fill="#785436">
  <path d="M590.6 629.3 c-0.3 -0.3 -0.6 -2.3 -0.6 -4.4 0 -4.1 2.4 -9.7 3.5 -8 1.1 1.9 3.2 1.2 6.3 -1.9 1.7 -1.6 3.4 -3 3.7 -3 0.4 0 7.7 -7 16.2 -15.5 8.5 -8.5 16 -15.5 16.8 -15.5 0.7 0 1.5 -0.7 1.9 -1.5 0.5 -1.3 14 -1.5 113.1 -1.5 99.3 0 112.5 0.2 112.5 1.5 0 0.8 0.5 1.5 1 1.5 0.6 0 1 1.3 1 2.9 0 2.2 -0.6 3 -2.2 3.4 -1.3 0.3 -51.7 0.6 -112.2 0.7 l-109.8 0 -14.5 14.5 c-7.9 8 -14.8 14.5 -15.3 14.5 -0.5 0 -2.4 1.6 -4.3 3.5 -1.9 1.9 -3.9 3.5 -4.6 3.5 -0.6 0 -1.1 0.4 -1.1 0.9 0 0.5 -1 1.3 -2.2 1.7 -1.3 0.4 -2.5 1 -2.8 1.4 -0.7 1 -5.6 2.1 -6.4 1.3z"/>
  <path d="M584 596.2 l0 -7.9 -11.2 -0.6 c-6.1 -0.4 -11.4 -1.1 -11.7 -1.6 -0.3 -0.4 -2.1 -1.2 -3.8 -1.6 -1.8 -0.3 -3.3 -1 -3.3 -1.5 0 -0.5 -0.9 -1.2 -2.1 -1.5 -2.5 -0.8 -12.9 -11.2 -12.9 -13 0 -0.7 -0.7 -1.5 -1.5 -1.9 -0.8 -0.3 -1.5 -1.7 -1.5 -3.1 0 -1.4 -0.4 -2.5 -1 -2.5 -0.5 0 -1 -1.3 -1 -2.9 0 -3.1 1.4 -4.1 6.1 -4.1 2.2 0 2.9 0.5 2.9 2 0 1.1 0.5 2 1 2 0.6 0 1 1.1 1 2.5 0 1.4 0.7 2.8 1.5 3.1 0.8 0.4 1.5 1.2 1.5 1.9 0 1.7 4.3 6.1 6.8 7 1.2 0.3 2.2 1 2.2 1.5 0 0.5 1.5 1.2 3.3 1.5 1.7 0.4 3.5 1.2 3.9 1.8 0.3 0.5 6.3 1.2 13.4 1.5 8.5 0.3 13.3 0.9 14.1 1.8 1.7 1.7 1.8 20.5 0.1 22.2 -0.7 0.7 -2.7 1.2 -4.5 1.2 l-3.3 0 0 -7.8z"/>
  <path d="M937.8 586.1 c-2.1 -2.5 -2.2 -3.8 -0.5 -5.6 1 -1 7 -1.4 25.1 -1.7 16 -0.2 23.9 -0.7 24.4 -1.4 0.4 -0.6 1.8 -1.5 3.2 -1.9 2.7 -0.9 10.3 -8 11.3 -10.7 0.3 -1 1.1 -1.8 1.7 -1.8 0.5 0 1 -1.1 1 -2.5 0 -3.8 2.7 -4.2 6.1 -0.9 2.7 2.6 3.9 6.4 2 6.4 -0.5 0 -1.2 1.1 -1.5 2.5 -0.8 3.1 -10 12.3 -13.1 13.1 -1.4 0.3 -2.5 1 -2.5 1.5 0 0.4 -1.7 1.1 -3.7 1.5 -2.1 0.4 -4.1 1.2 -4.5 1.8 -0.5 0.7 -8.4 1.2 -24 1.4 -22.6 0.3 -23.4 0.3 -25 -1.7z"/>
  <path d="M897 582.1 c0 -2.4 -0.4 -3.1 -2 -3.1 -1.1 0 -3.8 -1.6 -6 -3.6 -3.4 -3.1 -4 -4.3 -4 -7.5 0 -2.2 0.4 -3.9 0.9 -3.9 0.4 0 1.1 -4.1 1.5 -9.2 0.3 -5 1 -9.4 1.5 -9.7 0.4 -0.3 1.1 -4.9 1.5 -10.1 0.4 -5.2 1.1 -9.7 1.5 -10 0.4 -0.3 1.1 -1.7 1.5 -3.2 0.3 -1.6 1.1 -2.8 1.6 -2.8 0.6 0 1 -0.6 1 -1.3 0 -0.7 0.9 -2 2 -3 1.7 -1.4 2 -1.4 2 -0.2 0 0.8 0.7 1.5 1.5 1.5 0.8 0 1.5 0.5 1.5 1 0 0.6 0.6 1 1.4 1 0.9 0 1.2 0.7 0.9 2 -0.3 1.1 -0.9 2 -1.4 2 -0.5 0 -0.9 0.5 -0.9 1.1 0 1.6 2.5 3.7 5.3 4.4 1.4 0.4 2.8 1.3 3.1 2.1 0.3 0.8 1.2 1.4 2.1 1.4 0.8 0 1.5 0.4 1.5 1 0 0.5 1.1 1.2 2.5 1.6 1.4 0.3 2.5 1 2.5 1.5 0 0.5 0.7 0.9 1.5 0.9 0.9 0 1.8 0.6 2.1 1.4 0.3 0.8 1.9 1.8 3.5 2.1 1.6 0.4 2.9 1.1 2.9 1.6 0 0.5 1.1 1.1 2.5 1.5 1.4 0.3 2.5 1 2.5 1.4 0 0.4 0.9 1 2 1.3 2.2 0.6 5 -1.6 5 -3.8 0 -0.7 0.7 -1.5 1.5 -1.9 0.8 -0.3 1.5 -1.2 1.5 -2.1 0 -0.8 0.4 -1.5 0.9 -1.5 0.5 0 1.2 -1.1 1.5 -2.5 0.4 -1.4 1.1 -2.5 1.6 -2.5 0.6 0 1 -0.7 1 -1.5 0 -0.9 0.6 -1.8 1.4 -2.1 0.8 -0.3 1.8 -1.9 2.1 -3.5 0.4 -1.6 1 -2.9 1.5 -2.9 0.5 0 1.2 -0.9 1.5 -2 0.6 -1.9 3.5 -2.9 3.5 -1.1 0 0.5 1.3 1.4 2.9 2.1 3.1 1.2 3.2 3 0.4 5.8 -0.7 0.7 -1.3 2 -1.3 2.8 0 0.8 -0.4 1.4 -0.9 1.4 -0.5 0 -1.2 1.3 -1.6 2.9 -0.3 1.6 -1.3 3.2 -2.1 3.5 -0.8 0.3 -1.4 1.2 -1.4 2.1 0 0.8 -0.4 1.5 -1 1.5 -0.5 0 -1.2 1.1 -1.6 2.4 -0.3 1.4 -1.2 2.7 -2 3 -0.8 0.3 -1.4 1.2 -1.4 2.1 0 0.8 -0.4 1.5 -0.9 1.5 -0.5 0 -1.3 0.9 -1.6 2 -0.9 2.8 -6.8 8.7 -9.7 9.5 -1.2 0.4 -2.8 1.4 -3.6 2.1 -0.7 0.8 -1.9 1.4 -2.7 1.4 -0.7 0 -1.5 0.7 -1.9 1.5 -0.3 0.8 -1.2 1.5 -2.1 1.5 -0.8 0 -1.5 0.4 -1.5 1 0 0.5 -1.1 1.2 -2.4 1.6 -1.4 0.3 -2.7 1.2 -3 2 -0.3 0.8 -1.2 1.4 -2.1 1.4 -0.8 0 -1.5 0.4 -1.5 1 0 0.5 -1.1 1.2 -2.5 1.6 -1.4 0.3 -2.5 1 -2.5 1.5 0 0.5 -0.7 0.9 -1.5 0.9 -0.9 0 -1.8 0.7 -2.1 1.5 -0.4 0.8 -1.2 1.5 -1.9 1.5 -0.8 0 -2 0.7 -2.8 1.5 -0.8 0.7 -2.6 1.7 -4.1 2.1 -2.4 0.6 -2.6 0.4 -2.6 -2.5z m12.8 -14.8 c0.7 -0.7 1.9 -1.3 2.7 -1.3 0.7 0 1.5 -0.7 1.9 -1.5 0.3 -0.8 1.2 -1.5 2.1 -1.5 0.8 0 1.5 -0.4 1.5 -0.9 0 -0.5 1.1 -1.2 2.5 -1.5 1.4 -0.4 2.5 -1.1 2.5 -1.6 0 -0.6 0.7 -1 1.5 -1 0.9 0 1.8 -0.6 2.1 -1.4 0.3 -0.8 1.6 -1.7 3 -2 3.1 -0.8 3.1 -2.4 0 -3.2 -1.4 -0.3 -2.7 -1.2 -3 -2 -0.3 -0.8 -1.2 -1.4 -2.1 -1.4 -0.8 0 -1.5 -0.4 -1.5 -1 0 -0.5 -1.1 -1.2 -2.5 -1.6 -1.4 -0.3 -2.5 -1 -2.5 -1.5 0 -0.5 -0.7 -0.9 -1.5 -0.9 -0.9 0 -1.8 -0.6 -2.1 -1.4 -0.3 -0.8 -1.6 -1.7 -3 -2 -1.3 -0.4 -2.4 -1 -2.4 -1.5 0 -0.5 -1.3 -1.2 -3 -1.6 -1.6 -0.4 -3 -1.1 -3 -1.6 0 -0.5 -0.9 -0.9 -2 -0.9 -1.8 0 -2 0.7 -2 5.4 0 3 -0.4 5.6 -1 5.8 -1.2 0.4 -2.5 14.6 -1.6 18.2 0.3 1.4 1.3 2.6 2 2.6 0.8 0 2.1 0.6 2.8 1.3 2.7 2.8 5.8 2.8 8.6 0z"/>
  <path d="M504.8 575.3 c-2.7 -0.2 -4.8 -0.8 -4.8 -1.2 0 -0.5 -4.5 -1.2 -10 -1.6 -5.5 -0.3 -10 -1 -10 -1.5 0 -0.5 -3.6 -1.2 -8 -1.6 -4.4 -0.3 -8 -1.1 -8 -1.5 0 -0.5 -1.3 -0.9 -2.9 -0.9 -3.4 0 -6.3 -2.4 -5.5 -4.5 0.5 -1.1 2.4 -1.5 8 -1.5 4.1 0 7.4 0.4 7.4 0.9 0 0.5 4.5 1.2 10 1.6 5.5 0.3 10 1 10 1.4 0 0.5 3.3 1.1 7.3 1.5 3.9 0.4 7.4 1.1 7.5 1.6 0.2 0.6 1.6 1 3.2 1 4.3 0 6 1 6 3.5 0 2 -3 4 -5 3.3 -0.3 -0.1 -2.6 -0.3 -5.2 -0.5z"/>
  <path d="M1035.8 575.3 c-1.1 -0.3 -1.8 -1.4 -1.8 -2.8 0 -2.3 2.2 -3.5 6.8 -3.5 1.2 0 2.2 -0.4 2.2 -0.9 0 -0.5 3.6 -1.3 8 -1.7 4.4 -0.3 8 -1 8 -1.4 0 -0.4 4.1 -1.1 9 -1.5 5 -0.4 9 -1.1 9 -1.6 0 -0.5 3.8 -0.9 8.5 -0.9 8.3 0 8.5 0.1 8.5 2.4 0 2.5 -1.6 3.6 -5.6 3.6 -1.3 0 -2.4 0.4 -2.4 0.9 0 0.5 -4.3 1.2 -9.5 1.6 -5.2 0.4 -9.5 1 -9.5 1.5 0 0.4 -3.7 1.1 -8.2 1.5 -4.6 0.4 -8.5 1 -8.8 1.4 -0.6 0.9 -11.7 1.9 -14.2 1.4z"/>
  <path d="M506.6 555.5 c-0.3 -0.8 -1.2 -1.5 -2.1 -1.5 -0.8 0 -1.5 -0.4 -1.5 -0.9 0 -0.5 -1 -1.3 -2.2 -1.6 -1.1 -0.4 -3.1 -1.8 -4.3 -3.1 -1.2 -1.3 -2.6 -2.4 -3 -2.4 -0.4 0 -2.5 -1.8 -4.7 -4 -4.8 -4.8 -5 -8.6 -0.5 -8.3 1.5 0.1 3.4 0.9 4.3 1.7 0.8 0.9 2 1.6 2.5 1.6 0.5 0 2.6 1.8 4.8 4 2.1 2.2 4.2 4 4.6 4 1.2 0 7.5 6.8 7.5 8 0 1.4 -2.5 4 -3.8 4 -0.6 0 -1.2 -0.7 -1.6 -1.5z"/>
  <path d="M1037.6 555.4 c-1.2 -3 -0.6 -6.5 1.2 -7.1 0.9 -0.4 3.4 -2.4 5.4 -4.5 2.1 -2.1 4.2 -3.8 4.7 -3.8 0.5 0 2.2 -1.3 3.8 -2.9 4.8 -4.7 11.3 -5.3 11.3 -1 0 2 -3.3 5.9 -4.9 5.9 -0.5 0 -2.3 1.4 -3.9 3 -1.7 1.7 -3.4 3 -3.9 3 -0.5 0 -2 1.3 -3.4 2.9 -1.5 1.7 -3.8 3.3 -5.3 3.7 -1.4 0.3 -2.6 1 -2.6 1.5 0 1.5 -1.7 1 -2.4 -0.7z"/>
  <path d="M861 544 c0 -0.5 -0.6 -1 -1.4 -1 -2.2 0 -2.6 -3.4 -2.6 -24.5 0 -20.9 0.4 -24.5 2.5 -24.5 0.7 0 1.6 -0.6 1.9 -1.2 0.5 -1 0.7 -1 1.2 0 0.3 0.6 1.2 1.2 2 1.2 1.2 0 1.4 3.9 1.4 23.5 0 22.2 -0.1 23.6 -2 25.5 -2.2 2.2 -3 2.5 -3 1z"/>
  <path d="M926.5 520.9 c-0.9 -1.4 0.4 -7.9 1.5 -7.9 0.6 0 1 -0.7 1 -1.5 0 -0.9 0.6 -1.8 1.4 -2.1 0.8 -0.3 1.7 -1.6 2 -3 0.4 -1.3 1.1 -2.4 1.6 -2.4 0.6 0 1 -0.7 1 -1.5 0 -0.9 0.6 -1.8 1.4 -2.1 0.8 -0.3 1.8 -1.9 2.1 -3.5 0.4 -1.6 1 -2.9 1.5 -2.9 0.4 0 1.1 -1.1 1.4 -2.5 0.4 -1.4 1.1 -2.5 1.6 -2.5 0.6 0 1 -0.7 1 -1.5 0 -0.9 0.6 -1.8 1.4 -2.1 0.8 -0.3 1.8 -1.9 2.1 -3.5 0.4 -1.6 1.1 -2.9 1.6 -2.9 0.5 0 1.1 -1.1 1.5 -2.5 0.3 -1.4 1 -2.5 1.5 -2.5 0.5 0 0.9 -0.7 0.9 -1.5 0 -0.9 0.6 -1.8 1.4 -2.1 0.8 -0.3 1.7 -1.6 2 -3 0.4 -1.3 1.1 -2.4 1.6 -2.4 0.6 0 1 -0.7 1 -1.5 0 -0.9 0.6 -1.8 1.4 -2.1 0.8 -0.3 1.8 -1.9 2.1 -3.5 0.4 -1.6 1 -2.9 1.5 -2.9 0.4 0 1.1 -1.1 1.4 -2.5 0.4 -1.4 1.1 -2.5 1.6 -2.5 0.6 0 1 -0.7 1 -1.5 0 -0.9 0.6 -1.8 1.4 -2.1 0.8 -0.3 1.7 -1.6 2 -3 0.4 -1.3 1 -2.4 1.5 -2.4 0.5 0 1.2 -1.3 1.6 -3 0.4 -1.6 1.1 -3 1.6 -3 0.5 0 0.9 -0.7 0.9 -1.5 0 -0.9 0.6 -1.8 1.4 -2.1 0.8 -0.3 1.7 -1.6 2 -3 0.4 -1.3 1.1 -2.4 1.6 -2.4 0.6 0 1 -0.7 1 -1.5 0 -0.9 0.7 -1.8 1.5 -2.1 3 -1.2 0.9 -8.4 -2.5 -8.4 -0.6 0 -1.3 -0.6 -1.6 -1.4 -0.6 -1.7 -4.6 -2.8 -6.8 -2 -0.8 0.3 -1.8 1.9 -2.1 3.5 -0.4 1.6 -1.1 2.9 -1.6 2.9 -0.5 0 -1.1 1.1 -1.5 2.4 -0.3 1.4 -1.2 2.7 -2 3 -0.8 0.3 -1.4 1.2 -1.4 2.1 0 0.8 -0.4 1.5 -0.9 1.5 -0.5 0 -1.2 1.1 -1.5 2.5 -0.4 1.4 -1 2.5 -1.5 2.5 -0.5 0 -1.2 1.3 -1.6 2.9 -0.3 1.6 -1.3 3.2 -2.1 3.5 -0.8 0.3 -1.4 1.2 -1.4 2.1 0 0.8 -0.4 1.5 -1 1.5 -0.5 0 -1.2 1.1 -1.6 2.4 -0.3 1.4 -1.2 2.7 -2 3 -0.8 0.3 -1.4 1.2 -1.4 2.1 0 0.8 -0.4 1.5 -0.9 1.5 -0.5 0 -1.2 1.1 -1.5 2.5 -0.4 1.4 -1 2.5 -1.5 2.5 -0.5 0 -1.2 1.3 -1.6 2.9 -0.3 1.6 -1.3 3.2 -2.1 3.5 -0.8 0.3 -1.4 1.2 -1.4 2.1 0 0.8 -0.4 1.5 -1 1.5 -0.5 0 -1.2 1.1 -1.6 2.5 -0.3 1.4 -0.9 2.5 -1.3 2.5 -1.6 -0.2 -10.5 -2.9 -9.4 -2.9 0.6 -0.1 1.4 -1.4 1.8 -3.1 0.4 -1.6 1.1 -3 1.6 -3 0.5 0 1.1 -1.1 1.5 -2.5 0.3 -1.4 1 -2.5 1.5 -2.5 0.5 0 0.9 -0.7 0.9 -1.5 0 -0.9 0.6 -1.8 1.4 -2.1 0.8 -0.3 1.7 -1.6 2 -3 0.4 -1.3 1.1 -2.4 1.6 -2.4 0.6 0 1 -0.7 1 -1.5 0 -0.9 0.6 -1.8 1.4 -2.1 0.8 -0.3 1.8 -1.9 2.1 -3.5 0.4 -1.6 1.1 -2.9 1.6 -2.9 0.5 0 1.1 -1.1 1.5 -2.5 0.3 -1.4 1 -2.5 1.5 -2.5 0.5 0 0.9 -0.7 0.9 -1.5 0 -0.9 0.6 -1.8 1.4 -2.1 0.8 -0.3 1.7 -1.6 2 -3 0.4 -1.3 1.1 -2.4 1.6 -2.4 0.6 0 1 -0.7 1 -1.5 0 -0.9 0.6 -1.8 1.4 -2.1 0.8 -0.3 1.8 -1.9 2.1 -3.5 0.4 -1.6 1.1 -2.9 1.6 -2.9 0.5 0 1.1 -1.1 1.5 -2.5 0.3 -1.4 1 -2.5 1.5 -2.5 0.5 0 0.9 -0.7 0.9 -1.5 0 -0.9 0.6 -1.8 1.4 -2.1 0.8 -0.3 1.7 -1.6 2 -3 0.4 -1.3 1 -2.4 1.5 -2.4 0.5 0 1.2 -1.3 1.6 -2.9 0.3 -1.6 1.3 -3.2 2.1 -3.5 0.8 -0.3 1.4 -1.2 1.4 -2.1 0 -0.8 0.4 -1.5 1 -1.5 0.5 0 1.2 -1.1 1.6 -2.5 0.3 -1.4 1 -2.5 1.5 -2.5 0.5 0 0.9 -0.7 0.9 -1.5 0 -0.9 0.6 -1.8 1.4 -2.1 0.8 -0.3 1.7 -1.6 2 -3 0.4 -1.3 1.1 -2.4 1.6 -2.4 0.6 0 1 -0.7 1 -1.5 0 -0.9 0.6 -1.8 1.4 -2.1 0.8 -0.3 1.8 -1.9 2.1 -3.5 0.4 -1.6 1 -2.9 1.5 -2.9 0.5 0 1.2 -1 1.5 -2.2 0.9 -2.5 5.3 -6.8 7 -6.8 0.7 0 1.5 -0.7 1.9 -1.5 0.3 -0.8 1.6 -1.5 3 -1.5 1.3 0 2.6 -0.6 2.9 -1.2 0.5 -1.7 17.9 -1.7 18.5 0 0.2 0.7 1.5 1.2 2.8 1.2 1.4 0 2.7 0.7 3 1.5 0.4 0.8 1.2 1.5 1.9 1.5 1.8 0 10.5 8.8 10.5 10.6 0 0.8 0.4 1.4 0.9 1.4 0.5 0 1.2 1.4 1.6 3 0.4 1.6 1.1 3 1.6 3 0.5 0 0.9 2.7 0.9 6 0 3.3 -0.4 6 -0.9 6 -0.5 0 -1.2 1.6 -1.5 3.5 -0.4 1.9 -1.1 3.5 -1.5 3.5 -0.5 0 -1.2 1.1 -1.5 2.5 -0.4 1.4 -1.1 2.5 -1.6 2.5 -0.6 0 -1 0.7 -1 1.5 0 0.9 -0.6 1.8 -1.4 2.1 -0.8 0.3 -1.8 1.9 -2.1 3.5 -0.4 1.6 -1.1 2.9 -1.6 2.9 -0.5 0 -1.1 1.1 -1.5 2.4 -0.3 1.4 -1.2 2.7 -2 3 -0.8 0.3 -1.4 1.2 -1.4 2.1 0 0.8 -0.4 1.5 -0.9 1.5 -0.5 0 -1.2 1.1 -1.5 2.5 -0.4 1.4 -1 2.5 -1.5 2.5 -0.5 0 -1.2 1.3 -1.6 2.9 -0.3 1.6 -1.3 3.2 -2.1 3.5 -0.8 0.3 -1.4 1.2 -1.4 2.1 0 0.8 -0.4 1.5 -1 1.5 -0.5 0 -1.2 1.1 -1.6 2.4 -0.3 1.4 -1.2 2.7 -2 3 -0.8 0.3 -1.4 1.2 -1.4 2.1 0 0.8 -0.4 1.5 -0.9 1.5 -0.5 0 -1.2 1.4 -1.6 3 -0.4 1.7 -1.1 3 -1.6 3 -0.5 0 -1.1 1.1 -1.5 2.4 -0.3 1.4 -1.2 2.7 -2 3 -0.8 0.3 -1.4 1.2 -1.4 2.1 0 0.8 -0.4 1.5 -1 1.5 -0.5 0 -1 0.7 -1 1.5 0 2.6 -3 1.6 -5 -1.7 -2 -3.3 -2 -7.9 0.1 -8.6 0.5 -0.2 0.9 -1 0.9 -1.8 0 -0.8 0.6 -1.7 1.4 -2 0.8 -0.3 1.7 -1.6 2 -3 0.4 -1.3 1 -2.4 1.5 -2.4 0.5 0 1.2 -1.3 1.6 -3 0.4 -1.6 1.1 -3 1.6 -3 2.3 0 0.6 -2.9 -2.1 -3.5 -1.6 -0.4 -3 -1.1 -3 -1.6 0 -0.5 -1.1 -1.1 -2.5 -1.5 -1.4 -0.3 -2.5 -1 -2.5 -1.4 0 -0.4 -0.9 -1 -2 -1.3 -2.2 -0.6 -5 1.6 -5 3.8 0 0.7 -0.7 1.5 -1.5 1.9 -0.8 0.3 -1.5 1.2 -1.5 2.1 0 0.8 -0.4 1.5 -1 1.5 -0.5 0 -1.2 1.1 -1.6 2.5 -0.3 1.4 -1 2.5 -1.4 2.5 -0.5 0 -1.1 1.3 -1.5 2.9 -0.3 1.6 -1.3 3.2 -2.1 3.5 -0.8 0.3 -1.4 1.2 -1.4 2.1 0 0.8 -0.4 1.5 -1 1.5 -0.5 0 -1.2 1.1 -1.6 2.4 -0.3 1.4 -1.2 2.7 -2 3 -0.8 0.3 -1.4 1.2 -1.4 2.1 0 0.8 -0.4 1.5 -0.9 1.5 -0.5 0 -1.2 1.4 -1.6 3 -0.4 1.7 -1.1 3 -1.6 3 -0.5 0 -1.1 1.1 -1.5 2.4 -0.3 1.4 -1.2 2.7 -2 3 -0.8 0.3 -1.4 1.2 -1.4 2.1 0 0.8 -0.4 1.5 -0.9 1.5 -0.5 0 -1.2 1.1 -1.5 2.5 -0.4 1.4 -1 2.5 -1.5 2.5 -0.5 0 -1.2 1.3 -1.6 2.9 -0.3 1.6 -1.3 3.2 -2.1 3.5 -0.8 0.3 -1.4 1.2 -1.4 2.1 0 0.8 -0.4 1.5 -1 1.5 -0.5 0 -1.2 1.1 -1.6 2.5 -0.3 1.4 -1 2.5 -1.4 2.5 -0.5 0 -1.1 1.3 -1.5 2.9 -0.3 1.6 -1.3 3.2 -2.1 3.5 -0.8 0.3 -1.4 1.2 -1.4 2.1 0 0.8 -0.4 1.5 -1 1.5 -0.5 0 -1.2 1.1 -1.6 2.4 -0.3 1.4 -1.2 2.7 -2 3 -0.8 0.3 -1.4 1.2 -1.4 2.1 0 0.8 -0.4 1.5 -0.9 1.5 -0.5 0 -1.2 1.1 -1.5 2.5 -0.4 1.4 -1.1 2.5 -1.6 2.5 -0.6 0 -1 0.7 -1 1.5 0 0.9 -0.7 1.8 -1.5 2.1 -0.8 0.4 -1.5 1.2 -1.5 2 0 1.7 -5.5 1.9 -6.5 0.3z m89.9 -100.4 c3.3 -3.1 3.4 -6.3 0.2 -7.1 -1.4 -0.3 -2.7 -1.2 -3 -2 -0.3 -0.8 -1.2 -1.4 -2.1 -1.4 -0.8 0 -1.5 -0.4 -1.5 -1 0 -0.5 -1.1 -1.2 -2.4 -1.6 -1.4 -0.3 -2.7 -1.2 -3 -2 -0.3 -0.8 -1.2 -1.4 -2.1 -1.4 -0.8 0 -1.5 -0.4 -1.5 -0.9 0 -0.5 -1.1 -1.2 -2.5 -1.5 -1.4 -0.4 -2.5 -1.1 -2.5 -1.6 0 -0.6 -0.6 -1 -1.3 -1 -0.7 0 -2 -0.9 -3 -2 -0.9 -1.1 -2.4 -2 -3.2 -2 -0.8 0 -1.5 -0.4 -1.5 -1 0 -2 -2.9 -1 -3.6 1.2 -0.4 1.3 -1.4 2.8 -2.2 3.4 -2.3 1.7 -0.6 5.2 2.8 5.9 1.7 0.4 3 1 3 1.5 0 0.4 1.1 1.1 2.5 1.4 1.4 0.4 2.5 1.1 2.5 1.6 0 0.6 0.7 1 1.5 1 0.9 0 1.8 0.6 2.1 1.4 0.3 0.8 1.6 1.7 3 2 1.3 0.4 2.4 1 2.4 1.5 0 0.5 1.3 1.2 2.9 1.6 1.6 0.3 3.2 1.3 3.5 2.1 0.3 0.8 1 1.4 1.6 1.4 0.6 0 1.8 0.7 2.6 1.5 1.9 1.9 1.6 1.9 4.8 -1z m9.9 -14.5 c0.9 -1.1 1.9 -3.1 2.3 -4.4 0.3 -1.4 1.2 -2.7 2 -3 0.8 -0.3 1.4 -1.2 1.4 -2.1 0 -0.8 0.4 -1.5 0.9 -1.5 0.5 0 1.2 -1.1 1.5 -2.5 0.4 -1.4 1.1 -2.5 1.6 -2.5 0.5 0 1.2 -1.6 1.6 -3.5 0.3 -1.9 1 -3.5 1.5 -3.5 0.5 0 0.9 -1.1 0.9 -2.5 0 -1.4 -0.4 -2.5 -0.9 -2.5 -0.5 0 -1.2 -1.6 -1.5 -3.5 -0.4 -1.9 -1.1 -3.5 -1.6 -3.5 -0.6 0 -1 -0.6 -1 -1.4 0 -1.5 -4.5 -6.6 -5.9 -6.6 -0.5 0 -1.7 -0.8 -2.7 -1.7 -1.4 -1.4 -3.5 -1.8 -9.7 -1.8 -5.5 0 -8.2 0.4 -8.4 1.3 -0.3 0.6 -0.9 1.2 -1.5 1.2 -1.4 0 -8.8 7.5 -8.8 8.9 0 0.6 -0.4 1.1 -0.9 1.1 -0.5 0 -1.2 1.1 -1.5 2.5 -0.4 1.4 -1 2.5 -1.5 2.5 -0.5 0 -1.2 1.4 -1.6 3 -0.4 1.7 -1.1 3 -1.6 3 -2.8 0 1.3 5.3 5 6.5 1.2 0.3 2.1 1.1 2.1 1.6 0 0.5 0.7 0.9 1.5 0.9 0.9 0 1.8 0.6 2.1 1.4 0.3 0.8 1.6 1.7 3 2 1.3 0.4 2.4 1.1 2.4 1.6 0 0.6 0.7 1 1.5 1 0.9 0 1.8 0.6 2.1 1.4 0.3 0.8 1.9 1.8 3.5 2.1 1.6 0.4 2.9 1.1 2.9 1.6 0 0.5 1.1 1.1 2.4 1.5 1.4 0.3 2.7 1.2 3 2 0.7 1.9 1.8 1.8 3.9 -0.6z"/>
  <path d="M554.4 368.2 c-0.6 -0.4 -1.4 -2.4 -1.8 -4.4 -0.6 -3.4 -0.5 -3.8 1.8 -4.4 1.3 -0.3 2.7 -1.2 3 -2 0.3 -0.8 1.6 -1.4 3 -1.4 1.3 0 2.6 -0.5 2.8 -1.1 0.2 -0.6 3.2 -1.3 6.6 -1.6 6.8 -0.6 6.8 -0.6 5.6 5.5 -0.6 2.9 -1 3.1 -6 3.8 -3 0.3 -5.4 1 -5.4 1.4 0 0.5 -1.3 1.1 -2.9 1.5 -1.6 0.3 -3.2 1.3 -3.5 2.1 -0.6 1.6 -1.5 1.7 -3.2 0.6z"/>
  <path d="M929.7 335.3 c-0.4 -0.3 -0.7 -2.6 -0.7 -5 0 -2.3 -0.4 -4.3 -0.9 -4.3 -0.5 0 -1.2 -1.1 -1.5 -2.5 -0.8 -3.1 -3.6 -6.5 -5.3 -6.5 -0.7 0 -1.3 -0.4 -1.3 -0.9 0 -0.5 -2 -1.2 -4.5 -1.5 -3.9 -0.6 -4.5 -1 -4.5 -3.1 0 -2 0.7 -2.5 3.5 -3.1 1.9 -0.3 3.5 -1 3.5 -1.5 0 -0.5 0.6 -0.9 1.4 -0.9 2 0 6.4 -4.5 7.2 -7.4 0.3 -1.4 1 -2.6 1.5 -2.6 0.5 0 0.9 -1.8 0.9 -3.9 0 -5.4 0.8 -7.1 3.5 -7.1 2.5 0 3.5 2.2 3.5 7.8 0 1.7 0.4 3.2 0.9 3.2 0.5 0 1.2 1.1 1.5 2.5 0.8 3 3.6 6 6.5 7 1.2 0.3 2.1 1.1 2.1 1.6 0 0.5 1 0.9 2.3 0.9 8.8 0.1 8.7 5.2 -0.2 6.6 -2.3 0.4 -4.1 1 -4.1 1.5 0 0.5 -0.7 0.9 -1.5 0.9 -0.9 0 -1.9 0.8 -2.2 1.8 -0.4 0.9 -1.3 2.3 -2 3 -0.7 0.7 -1.3 2.7 -1.3 4.3 0 1.6 -0.4 2.9 -1 2.9 -0.5 0 -1 0.9 -1 1.9 0 3.4 -4.4 6.4 -6.3 4.4z m5.7 -22.8 c0.7 -1.9 -2.2 -4.7 -4.3 -4.3 -2.2 0.4 -2.5 3.2 -0.6 5.1 1.7 1.8 4 1.3 4.9 -0.8z"/>
  <path d="M980 318.5 c0 -0.8 -0.4 -1.5 -1 -1.5 -1.5 0 -1.2 -4.9 0.4 -6.6 1.9 -1.8 6.3 -1.8 8.2 0 0.8 0.8 1.4 2.6 1.4 4.1 0 1.5 -0.6 3.3 -1.4 4.1 -2 1.9 -7.6 1.9 -7.6 -0.1z"/>
 </g>
 <g fill="#704b2c">
  <path d="M590.1 629.3 c-0.7 -0.3 -2.3 -1.5 -3.5 -2.7 -1.9 -1.9 -2.1 -3.4 -2.4 -15.6 -0.4 -13.3 -0.3 -13.4 1.6 -11.7 1.7 1.6 2.1 1.6 3.2 0.2 0.7 -0.8 1.9 -1.5 2.6 -1.5 1.1 0 1.4 2 1.4 9 0 5.5 0.5 9.8 1.2 11 1 1.6 1 2.4 0 4 -0.6 1.1 -1.2 3.3 -1.2 5 0 3 -0.3 3.3 -2.9 2.3z"/>
  <path d="M885.8 588.1 c-1.3 -1.2 -1.8 -3.4 -1.8 -7.2 0 -7.2 1 -12.9 2.3 -12.9 0.5 0 3 1.8 5.4 4.1 3.1 2.8 4.9 3.8 6.3 3.4 1 -0.3 2.1 -0.1 2.5 0.5 1.1 1.7 -0.5 9 -2 9 -0.7 0 -1.5 0.7 -1.9 1.5 -0.3 0.8 -1.2 1.5 -2.1 1.5 -0.8 0 -1.5 0.5 -1.5 1 0 1.7 -5.4 1 -7.2 -0.9z"/>
  <path d="M1007.7 562.8 l-3.2 -3.3 0.3 -43.2 c0.2 -37.4 0.4 -43.3 1.7 -43.3 0.8 0 1.5 -0.4 1.5 -1 0 -0.5 1.1 -1 2.5 -1 1.8 0 2.6 0.7 3.1 2.5 0.3 1.4 1 2.5 1.5 2.5 0.5 0 0.9 17.4 0.9 40.5 0 24.6 -0.4 40.5 -0.9 40.5 -0.6 0 -1.3 2 -1.7 4.5 -0.3 2.5 -1 4.5 -1.5 4.5 -0.5 0 -2.4 -1.5 -4.2 -3.2z"/>
  <path d="M533.5 554.8 c-1.1 -11.3 -0.1 -167.8 1.1 -168.6 0.6 -0.4 1.4 -2.5 1.7 -4.6 0.4 -2.2 1 -4.2 1.5 -4.5 0.5 -0.3 1.2 -1.6 1.6 -2.8 0.4 -1.3 1.2 -2.3 1.7 -2.3 0.5 0 0.9 -0.5 0.9 -1.1 0 -1.7 9.4 -10.7 11.6 -11.1 1.4 -0.2 2 0.4 2.2 2.4 0.2 1.6 0.8 2.8 1.3 2.8 1.6 0 1 3 -0.8 3.7 -2.6 1 -5.3 3.6 -5.3 5 0 0.7 -0.4 1.3 -1 1.3 -0.5 0 -1.2 1.1 -1.6 2.4 -0.3 1.4 -1.2 2.7 -2 3 -0.8 0.3 -1.4 1.7 -1.4 3.1 0 1.4 -0.4 2.5 -1 2.5 -0.7 0 -1 29.4 -1 86.1 0 81.3 -0.1 86 -1.7 85.8 -3.3 -0.3 -4.3 0.1 -4.3 1.6 0 0.8 -0.6 1.5 -1.4 1.5 -1 0 -1.6 -1.8 -2.1 -6.2z"/>
  <path d="M960.5 523.3 c-1.6 -0.9 -3.3 -2 -3.6 -2.6 -0.8 -1.2 0.1 -4.7 1.2 -4.7 0.5 0 0.9 -0.7 0.9 -1.5 0 -0.9 0.6 -1.8 1.4 -2.1 0.8 -0.3 1.7 -1.6 2 -3 0.4 -1.3 1.1 -2.4 1.6 -2.4 0.6 0 1 -0.7 1 -1.5 0 -0.9 0.6 -1.8 1.4 -2.1 0.8 -0.3 1.8 -1.9 2.1 -3.5 0.4 -1.6 1.1 -2.9 1.6 -2.9 0.5 0 1.1 -1.1 1.5 -2.5 0.3 -1.4 1 -2.5 1.5 -2.5 0.5 0 0.9 -0.7 0.9 -1.5 0 -0.9 0.6 -1.8 1.4 -2.1 0.8 -0.3 1.8 -1.9 2.1 -3.5 0.4 -1.6 1.1 -2.9 1.6 -2.9 0.5 0 1.1 -1.1 1.5 -2.5 0.3 -1.4 1 -2.5 1.5 -2.5 0.5 0 0.9 -0.7 0.9 -1.5 0 -0.9 0.6 -1.8 1.4 -2.1 0.8 -0.3 1.8 -1.9 2.1 -3.5 0.4 -1.6 1.1 -2.9 1.6 -2.9 0.5 0 1.1 -1.1 1.5 -2.5 0.3 -1.4 1 -2.5 1.5 -2.5 0.5 0 0.9 -0.7 0.9 -1.5 0 -0.9 0.7 -1.8 1.5 -2.1 0.8 -0.4 1.5 -1.2 1.5 -1.9 0 -0.8 0.6 -2 1.3 -2.7 0.7 -0.7 1.7 -2.4 2.3 -3.8 l1.1 -2.5 2.7 4.4 c2.7 4.1 3 9.1 0.7 9.1 -0.5 0 -1.2 1.3 -1.6 2.9 -0.3 1.6 -1.3 3.2 -2.1 3.5 -0.8 0.3 -1.4 1.2 -1.4 2.1 0 0.8 -0.4 1.5 -1 1.5 -0.5 0 -1.2 1.1 -1.6 2.4 -0.3 1.4 -1.2 2.7 -2 3 -0.8 0.3 -1.4 1.2 -1.4 2.1 0 0.8 -0.4 1.5 -0.9 1.5 -0.5 0 -1.2 1.4 -1.6 3 -0.4 1.7 -1.1 3 -1.6 3 -0.5 0 -1.1 1.1 -1.5 2.4 -0.3 1.4 -1.2 2.7 -2 3 -0.8 0.3 -1.4 1.2 -1.4 2.1 0 0.8 -0.4 1.5 -0.9 1.5 -0.5 0 -1.2 1.4 -1.6 3 -0.4 1.7 -1.1 3 -1.6 3 -0.5 0 -1.1 1.1 -1.5 2.4 -0.3 1.4 -1.2 2.7 -2 3 -0.8 0.3 -1.4 1.2 -1.4 2.1 0 0.8 -0.4 1.5 -0.9 1.5 -0.5 0 -1.2 1.1 -1.5 2.5 -0.4 1.4 -1 2.5 -1.5 2.5 -0.5 0 -1.2 1.3 -1.6 2.9 -0.3 1.6 -1.3 3.2 -2.1 3.5 -0.8 0.3 -1.4 1.2 -1.4 2.1 0 1.9 -0.7 1.8 -4.5 -0.2z"/>
  <path d="M901.8 521.3 c-1 -0.2 -1.8 -0.9 -1.8 -1.4 0 -0.5 -0.7 -0.9 -1.5 -0.9 -0.8 0 -1.5 -0.9 -1.5 -2 0 -1.1 0.4 -2 0.9 -2 0.5 0 1.2 -1.1 1.5 -2.5 0.4 -1.4 1.1 -2.5 1.6 -2.5 0.6 0 1 -0.7 1 -1.5 0 -0.9 0.6 -1.8 1.4 -2.1 0.8 -0.3 1.8 -1.9 2.1 -3.5 0.4 -1.6 1 -2.9 1.5 -2.9 0.4 0 1.1 -1.1 1.4 -2.5 0.4 -1.4 1.1 -2.5 1.6 -2.5 0.6 0 1 -0.7 1 -1.5 0 -0.9 0.6 -1.8 1.4 -2.1 0.8 -0.3 1.7 -1.6 2 -3 0.4 -1.3 1.1 -2.4 1.6 -2.4 0.6 0 1 -0.7 1 -1.5 0 -0.9 0.6 -1.8 1.4 -2.1 0.8 -0.3 1.8 -1.9 2.1 -3.5 0.4 -1.6 1.1 -2.9 1.6 -2.9 0.5 0 1.1 -1.1 1.5 -2.5 0.3 -1.4 1 -2.5 1.5 -2.5 0.5 0 0.9 -0.6 0.9 -1.3 0 -1.7 3.6 -4.7 5.8 -4.7 3.6 0 6.2 1.3 6.2 3 0 1 -0.7 2 -1.5 2.4 -0.8 0.3 -1.5 1.2 -1.5 2.1 0 0.8 -0.4 1.5 -0.9 1.5 -0.5 0 -1.2 1.1 -1.5 2.5 -0.4 1.4 -1 2.5 -1.5 2.5 -0.5 0 -1.2 1.3 -1.6 2.9 -0.3 1.6 -1.3 3.2 -2.1 3.5 -0.8 0.3 -1.4 1.2 -1.4 2.1 0 0.8 -0.4 1.5 -1 1.5 -0.5 0 -1.2 1.1 -1.6 2.5 -0.3 1.4 -1 2.5 -1.5 2.5 -0.5 0 -0.9 0.7 -0.9 1.5 0 0.9 -0.6 1.8 -1.4 2.1 -0.8 0.3 -1.8 1.9 -2.1 3.5 -0.4 1.6 -1.1 2.9 -1.6 2.9 -0.5 0 -1.1 1.1 -1.5 2.4 -0.3 1.4 -1.2 2.7 -2 3 -0.8 0.3 -1.4 1.2 -1.4 2.1 0 0.8 -0.4 1.5 -1 1.5 -0.5 0 -1.2 1.1 -1.6 2.4 -0.3 1.4 -1.2 2.7 -2 3 -0.8 0.3 -1.4 1.2 -1.4 2.1 0 1.5 -0.2 1.6 -3.2 0.8z"/>
  <path d="M572 359.1 c0 -1.6 0.3 -3.6 0.6 -4.5 0.6 -1.5 19.1 -1.6 199.4 -1.6 109.4 0 199.5 0.3 200.4 0.6 2.1 0.8 2.2 6.4 0.1 6.4 -0.8 0 -1.5 0.5 -1.5 1 0 0.7 -67.2 1 -199.5 1 l-199.5 0 0 -2.9z"/>
 </g>
 <g fill="#f1e3d0">
  <path d="M977 619.3 c0 -0.7 -1.1 -1.5 -2.5 -1.9 -1.4 -0.3 -2.5 -1 -2.5 -1.5 0 -0.5 -0.7 -0.9 -1.5 -0.9 -0.8 0 -1.5 -0.9 -1.5 -2 0 -2 0.7 -2 43 -2 37.6 0 43 0.2 43 1.5 0 0.8 0.7 1.5 1.5 1.5 2.1 0 1.9 2.8 -0.2 3.4 -1 0.2 -18.9 0.5 -39.7 0.5 -29.9 0 -38.1 0.3 -38.8 1.3 -0.6 1 -0.8 1 -0.8 0.1z"/>
  <path d="M464.8 617.2 c-2.7 -0.3 -4.5 -3.2 -3.3 -5.2 0.4 -0.6 8.9 -1 22.8 -1 15.9 0 21.8 0.3 20.7 1.1 -1.1 0.8 -1.2 1.2 -0.2 1.6 0.6 0.2 1.2 1.1 1.2 1.8 0 0.9 -2 1.5 -5.7 1.9 -5.8 0.6 -30.3 0.5 -35.5 -0.2z"/>
  <path d="M532.8 617.3 c-2.7 -0.2 -4.8 -0.8 -4.8 -1.4 0 -0.5 -0.6 -0.9 -1.4 -0.9 -0.7 0 -1.6 -0.9 -1.9 -2 -0.5 -2 0 -2 20.3 -2 11.5 0 21.5 0.3 22.4 0.6 2.5 1 2 5.1 -0.6 5.8 -2.4 0.6 -25.7 0.5 -34 -0.1z"/>
  <path d="M628.7 615.9 c-2.1 -2.4 -2.1 -3.5 -0.1 -4.3 0.9 -0.3 14.8 -0.6 31 -0.6 22.8 0 29.4 -0.3 29.4 -1.2 0 -1 0.2 -1 0.9 0 0.6 1 16.5 1.3 81.4 1.3 l80.7 0 0 3.3 0 3.3 -110.8 0.1 c-109.1 0.1 -110.9 0.1 -112.5 -1.9z"/>
  <path d="M873.8 617.3 c-1 -0.2 -1.8 -0.8 -1.8 -1.3 0 -0.5 0.8 -1.4 1.8 -1.9 1.5 -0.9 1.5 -1.2 0.2 -2.1 -1 -0.7 6 -1 22.3 -1 20.4 0 23.7 0.2 23.7 1.5 0 0.8 -0.4 1.5 -1 1.5 -0.5 0 -1 0.9 -1 2 0 1.9 -0.6 2 -21.2 1.9 -11.7 -0.1 -22.1 -0.3 -23 -0.6z"/>
  <path d="M937 617.1 c-1.3 -0.9 -1.2 -1.2 0.4 -2.4 1.1 -0.8 1.6 -1.9 1.2 -2.5 -0.5 -0.9 2.1 -1.2 9.8 -1.2 9.9 0 10.6 0.1 10.6 2 0 1.1 -0.6 2 -1.4 2 -0.8 0 -1.6 0.5 -1.8 1.1 -0.5 1.5 -16.8 2.3 -18.8 1z"/>
  <path d="M1005 514 c0 -26.7 0.3 -41 1 -41 0.7 0 1 14.3 1 41 0 26.7 -0.3 41 -1 41 -0.7 0 -1 -14.3 -1 -41z"/>
  <path d="M542.5 473 c0 -44.8 0.1 -63.2 0.2 -40.8 0.2 22.5 0.2 59.1 0 81.5 -0.1 22.5 -0.2 4.1 -0.2 -40.7z"/>
  <path d="M581 525.1 c0 -2.2 0.6 -3 2.3 -3.5 2.9 -0.7 114.5 -0.6 116.3 0.1 0.8 0.3 1.4 1.8 1.4 3.4 l0 2.9 -60 0 -60 0 0 -2.9z"/>
  <path d="M758 499 c0 -0.7 -29.6 -1 -86.9 -1 -77.7 0 -87.1 -0.2 -88.5 -1.6 -1.4 -1.3 -1.6 -4.7 -1.6 -21.5 0 -12.6 -0.4 -19.9 -1 -19.9 -0.5 0 -1 -1.1 -1 -2.5 0 -1.4 0.4 -2.5 0.9 -2.5 0.6 0 1.1 -2.1 1.3 -4.7 l0.3 -4.8 15 -0.3 c10.3 -0.2 15.2 -0.6 15.8 -1.5 0.7 -0.9 1 -0.9 1.4 0.1 0.6 1.5 27.3 1.8 27.3 0.2 0 -1.3 6.7 -1.3 7.2 0 0.5 1.5 154.1 1.6 154.6 0.1 0.5 -1.4 3.2 -1.5 3.2 -0.1 0 0.7 16.2 1 46.5 1 30.3 0 46.5 -0.3 46.5 -1 0 -0.5 2.3 -1 5 -1 2.8 0 5 0.5 5 1 0 0.6 0.7 1 1.5 1 1.6 0 2 2.7 0.7 4.8 -0.7 0.9 -30.7 1.2 -145.3 1.2 -169.2 -0.1 -177.2 -0.1 -177.8 0.5 -0.2 0.3 -0.6 10.6 -0.9 23 l-0.5 22.5 13.7 0 c8.4 0 13.6 0.4 13.6 1 0 0.6 2 1 4.5 1 2.5 0 4.5 -0.4 4.5 -1 0 -0.6 8.3 -1 23 -1 14.7 0 23 0.4 23 1 0 1.3 4.7 1.3 5.2 0 0.2 -0.7 15.7 -1.1 46.2 -1.1 25.2 0 46 0.2 46.1 0.3 0.2 0.2 0.6 1.5 1 3.1 0.7 2.5 0.5 2.7 -2.4 2.7 -1.7 0 -3.1 0.5 -3.1 1 0 0.6 -0.9 1 -2 1 -1.1 0 -2 -0.4 -2 -1z"/>
  <path d="M783.2 497.3 c2.5 -0.6 3.1 -3.3 0.8 -3.3 -1.1 0 -2 -0.4 -2 -1 0 -0.6 10.1 -1 28.4 -1 27.5 0 28.5 0.1 29.1 2 0.3 1.1 0.3 2.4 0 3 -0.4 0.6 -11 1 -29.3 0.9 -15.8 -0.1 -28 -0.3 -27 -0.6z"/>
 </g>
 <g fill="#eddac1">
  <path d="M695.3 578.3 c31.3 -0.2 82.1 -0.2 113 0 30.9 0.1 5.4 0.2 -56.8 0.2 -62.1 0 -87.4 -0.1 -56.2 -0.2z"/>
  <path d="M1014 516.5 c0 -26.3 0.3 -40.5 1 -40.5 0.7 0 1 14.2 1 40.5 0 26.3 -0.3 40.5 -1 40.5 -0.7 0 -1 -14.2 -1 -40.5z"/>
  <path d="M615 445.1 c0 -0.5 0.6 -1.2 1.3 -1.7 0.6 -0.5 23.8 -0.8 51.4 -0.6 43 0.3 50.3 0.5 50.3 1.8 0 1.2 -7.3 1.4 -51.5 1.4 -28.9 0 -51.5 -0.4 -51.5 -0.9z"/>
  <path d="M659.5 408 c-0.3 -1.1 -0.3 -2.9 0 -4 0.6 -1.9 1.5 -2 13.5 -2 12 0 12.9 0.1 13.5 2 0.3 1.1 0.3 2.9 0 4 -0.6 1.9 -1.5 2 -13.5 2 -12 0 -12.9 -0.1 -13.5 -2z"/>
  <path d="M707 409 c0 -0.5 -0.7 -1 -1.5 -1 -2.2 0 -1.8 -3.1 0.5 -3.7 1.1 -0.3 2 -0.9 2 -1.4 0 -0.5 5.8 -0.9 12.9 -0.9 12.3 0 13 0.1 13.6 2.1 0.5 1.4 0 2.7 -1.4 4 -1.7 1.7 -3.6 1.9 -14.1 1.9 -7.3 0 -12 -0.4 -12 -1z"/>
  <path d="M754.3 408.5 c-1.7 -1.9 -1.6 -2.2 0.7 -4.5 1.7 -1.7 3.3 -2 12.5 -2 9.2 0 10.8 0.3 12.5 2 l2 2 -2 2 c-1.8 1.8 -3.3 2 -13.2 2 -8.5 -0.1 -11.6 -0.4 -12.5 -1.5z"/>
 </g>
 <g fill="#d99d5b">
  <path d="M583.3 410.3 c-1.3 -0.2 -2.3 -1 -2.3 -1.8 0 -0.7 -0.6 -1.6 -1.2 -1.9 -1 -0.5 -1 -0.7 0 -1.2 0.6 -0.3 1.2 -1.2 1.2 -1.9 0 -2.2 5 -2.6 31.3 -2.3 26 0.3 26.7 0.4 26.7 4.8 0 4.4 -0.6 4.5 -27.7 4.6 -14.2 0.1 -26.8 0 -28 -0.3z"/>
 </g>
 <g fill="#a77b3b">
  <path d="M881 337 c0 -1.1 -0.4 -2 -0.9 -2 -0.5 0 -1.1 -1.8 -1.5 -4 -0.6 -3.7 -0.9 -4 -4.6 -4.6 -3.3 -0.5 -4 -1.1 -4 -2.9 0 -1.6 0.8 -2.5 2.5 -2.9 3.1 -0.8 6.5 -3.6 6.5 -5.3 0 -0.7 0.5 -1.3 1 -1.3 0.6 0 1 -1.8 1 -4 0 -5.7 2.6 -5.4 3.4 0.5 0.4 2.5 1.1 4.5 1.6 4.5 0.4 0 1.1 1.1 1.4 2.4 0.4 1.5 1.6 2.6 3.2 3 3.8 1 5.4 2.8 3.8 4.4 -0.7 0.7 -1.9 1.2 -2.7 1.2 -2.7 0 -6.5 4.6 -7.2 8.8 -0.7 4.3 -3.5 6 -3.5 2.2z"/>
 </g>
 <g fill="#efbf2b">
  <path d="M932.1 322.7 c-0.1 -2 -7.6 -9.9 -10.3 -11 -2.6 -0.9 -2.2 -2.4 0.7 -3.1 2.5 -0.6 8.8 -6.3 9.8 -8.8 0.4 -0.9 0.6 -0.7 0.6 0.5 0.1 0.9 0.6 1.7 1.1 1.7 0.6 0 1 0.5 1 1.1 0 1.5 4.2 5.9 5.8 5.9 0.6 0 1.2 0.4 1.2 0.9 0 0.5 0.8 1.2 1.8 1.4 1.6 0.4 1.6 0.5 -0.1 0.6 -2 0.1 -8.7 6.2 -8.7 8 0 0.6 -0.4 1.1 -0.9 1.1 -0.5 0 -1.2 0.8 -1.4 1.8 -0.4 1.6 -0.5 1.5 -0.6 -0.1z"/>
 </g>
</svg>