<?xml version="1.0" encoding="utf-8"?>
<!DOCTYPE svg PUBLIC "-//W3C//DTD SVG 1.0//EN" "http://www.w3.org/TR/2001/REC-SVG-20010904/DTD/svg10.dtd">
<svg version="1.0" xmlns="http://www.w3.org/2000/svg" width="1536px" height="1024px" viewBox="0 0 1536 1024" preserveAspectRatio="xMidYMid meet">
 <g fill="#441702">
  <path d="M716.3 863.7 c-12.2 -1.7 -14.3 -2.2 -14.3 -3.7 0 -1 0.6 -2.2 1.3 -2.8 1.8 -1.5 28.7 -2.8 28.7 -1.3 0 0.6 0.7 1.1 1.5 1.1 1.1 0 1.5 1.2 1.5 4.5 0 5.3 1.6 5.1 -18.7 2.2z"/>
  <path d="M584 818.4 c-15.2 -8.4 -24.9 -14.1 -31.2 -18.1 -5.9 -3.8 -6.8 -4.8 -6.8 -7.3 0 -3 0 -3 5.8 -3 4.9 0 6.2 0.4 8.2 2.5 1.3 1.4 2.7 2.5 3.2 2.5 1.8 0 8.8 6.4 8.8 8 0 1.1 1 2 2.8 2.3 1.5 0.3 6 2.9 10 5.8 6 4.4 7.2 5.7 7.2 8.1 0 1.5 -0.3 2.8 -0.7 2.8 -0.5 0 -3.7 -1.6 -7.3 -3.6z"/>
  <path d="M649.6 815.9 c-5.6 -1.1 -17.7 -6.4 -18.8 -8.2 -0.4 -0.7 -0.8 -3.6 -0.8 -6.5 0 -3.1 -0.8 -6.9 -2 -9.6 -3.6 -7.6 -8 -10.7 -8 -5.5 0 1.5 -0.7 1.9 -3.2 1.9 -3.1 -0.1 -3.8 -0.9 -12.3 -13.6 -14.3 -21.5 -25.8 -33.8 -43 -45.8 -5.6 -3.9 -6 -4.4 -6 -8.1 0 -3.7 0.2 -4 3.1 -4.3 1.8 -0.2 5.9 0.4 9.2 1.2 9.2 2.4 17.3 2.1 23.8 -1 3 -1.4 6 -3.5 6.7 -4.5 1.4 -2.2 8.7 -2.6 13.4 -0.8 5.4 2.2 13.9 3.9 24 4.9 23.1 2.3 64.1 -6.9 94.3 -21.3 8.2 -3.9 18.8 -10.5 20.8 -12.9 1.5 -1.8 0.4 -2.1 -14.8 -3.8 -14.3 -1.6 -14 -1.5 -14 -5.5 0 -2.9 0.4 -3.6 2.5 -4.1 4.7 -1.2 60.5 0.4 69 1.9 10.2 1.9 25.1 7.4 38.8 14.5 10.4 5.3 10.7 5.6 10.7 8.9 0 2.9 -0.3 3.3 -2.7 3.3 -1.6 0 -7.3 -1.1 -12.9 -2.5 -14.1 -3.5 -38.8 -8.5 -41.9 -8.5 -2 0 -3.7 1.6 -8.2 7.7 -6.9 9.4 -16.5 24.8 -25.8 41.6 l-7 12.6 -4.8 0.1 c-5.4 0 -8.7 2.6 -11.3 8.9 -1.2 3 -1.2 3.7 0.1 5.7 0.8 1.3 1.5 3.8 1.5 5.7 0 6.6 -20.3 30.6 -33.1 39.1 -9.3 6.2 -18.6 8.9 -31.4 9.2 -6 0.2 -13.2 -0.2 -15.9 -0.7z m28.5 -17.5 c15.5 -4.6 27.9 -15.5 35.9 -31.4 3.5 -7.1 6.5 -18.8 5.7 -22.2 -1.8 -7 -10.6 -12.5 -18.1 -11.3 -5.2 0.9 -11.6 4.5 -15.1 8.7 -3.7 4.3 -8.1 13.9 -9.6 20.5 -1.2 5.2 -1.3 5.3 -4.7 5.3 l-3.5 0 0.6 -6.7 c0.4 -3.8 0.9 -7.7 1.2 -8.8 1 -3.4 -1.8 -6 -6.2 -5.9 -8.2 0.2 -18.8 8.2 -24 18.1 -4.6 8.6 -5 12.1 -2 18.6 5.7 12.4 24.6 19.6 39.8 15.1z"/>
  <path d="M421.5 706 c2.8 -3.2 22.1 -16 25.9 -17.2 10.2 -3.1 36.2 -5.6 43.5 -4.2 2.6 0.6 3.1 1.1 3.1 3.6 0 4.2 -1.6 6.6 -4.7 7.2 -12.7 2.5 -33 7 -38.3 8.6 -3.6 1.1 -10.8 2.1 -16 2.4 -5.2 0.3 -10.8 0.8 -12.5 1.2 l-3 0.7 2 -2.3z"/>
  <path d="M569.1 702.4 c-18.8 -4 -32.5 -15.7 -38.2 -32.6 -1.7 -5.2 -2 -7.7 -1.5 -14 0.6 -8.9 2.1 -12.3 8.2 -18.8 5 -5.3 13 -9.4 22.1 -11.2 9.7 -1.9 43.3 -1.6 53.3 0.5 16.9 3.6 29.4 11.7 34.7 22.6 2.5 4.9 2.8 6.7 2.8 15.1 0 5.6 -0.6 11.1 -1.4 13.5 -2.8 7.8 -17.5 19 -29.6 22.4 -14.4 4.1 -37.7 5.3 -50.4 2.5z m44.7 -46.4 c2.7 -2.5 2.7 -3.2 0.4 -5.3 -3.3 -3 -7.6 -3.2 -10.5 -0.5 -2.2 1.9 -2.4 2.6 -1.4 3.9 3.2 4.1 8.2 5 11.5 1.9z"/>
  <path d="M889.5 669.8 c-14 -5.6 -43.4 -11.5 -70.7 -14.3 -19 -1.9 -65.7 -1.9 -84.3 0 -19.6 2 -18.5 2.1 -18.5 -1.9 0 -1.8 0.6 -3.8 1.3 -4.4 1.6 -1.4 15.5 -5 22.1 -5.8 2.8 -0.3 8.3 -1.2 12.1 -2 24.3 -4.9 63.9 -4.4 89.5 1.1 18.9 4 37.4 10.4 52 17.9 8.1 4.2 8.5 4.5 8.8 8 0.3 3.6 0.3 3.6 -3.5 3.5 -2.1 -0.1 -6 -1 -8.8 -2.1z"/>
  <path d="M460.5 645.4 c-6 -0.8 -13.2 -2.1 -15.8 -2.9 -2.6 -0.9 -11.6 -2.2 -20 -3 -23.6 -2.3 -24.2 -2.4 -22.5 -4.1 0.8 -0.8 5.5 -2.6 10.4 -3.9 7.4 -2.1 11.1 -2.5 22.4 -2.5 13.2 0 27.5 1.6 37.5 4.3 3.9 1 5.1 1.8 5.3 3.5 0.2 1.4 1 2.2 2.3 2.2 1.7 0 2 0.6 1.7 3.8 l-0.3 3.7 -5 0.1 c-2.7 0.1 -9.9 -0.4 -16 -1.2z"/>
  <path d="M753.3 630.5 c-14.4 -3.9 -28.3 -14.7 -34.5 -27 -4.1 -7.8 -6 -15.1 -6.7 -25 l-0.7 -10 -5.6 11.5 c-3.1 6.3 -6.5 14.3 -7.5 17.7 -1.7 6 -1.9 6.3 -5 6.3 -3 0 -3.2 -0.3 -3.8 -4.4 -1 -6.2 1.1 -26.7 3.5 -35.6 7.8 -28.2 30.1 -48.7 58.1 -53.4 32.6 -5.4 59.5 2.8 76.5 23.5 3.2 3.9 4.4 6.3 4.4 8.6 0 3 -0.3 3.3 -3.1 3.3 -1.7 0 -4.3 -0.8 -5.7 -1.8 -5.1 -3.5 -5.6 -3.6 -3.3 -0.4 1.2 1.7 3.6 6.2 5.3 9.9 l3 6.8 -0.5 15 c-0.3 8.4 -1.2 17.3 -2 20.1 -4.7 16.6 -18 29.5 -35.6 34.8 -7 2.1 -29.3 2.1 -36.8 0.1z m26.7 -15.7 c6.1 -1.9 12.4 -5.5 16 -9.3 l3.5 -3.7 -7 3.9 -7 3.8 -13.5 0 c-11.7 0 -14.1 -0.3 -18.1 -2.1 -6.1 -2.8 -12.4 -8.6 -16.6 -15.1 -1.8 -2.9 -3.5 -5.3 -3.8 -5.3 -1.2 0 3.1 9.2 6.3 13.5 6 8 15.4 13.4 27.7 15.9 2.5 0.5 7.9 -0.2 12.5 -1.6z m2.1 -51.5 c6.4 -3.8 6.7 -10.7 0.7 -15.8 -5.3 -4.4 -12 -2.4 -14.8 4.6 -1.2 2.7 -1.1 3.6 0.4 6.3 1.8 3.5 6 6.5 8.9 6.6 1.1 0 3.2 -0.8 4.8 -1.7z"/>
  <path d="M517.9 622.4 c-7.7 -2.3 -14 -7.2 -19.1 -14.9 -6 -8.9 -7.6 -13.6 -8.9 -25.8 -1.1 -11.1 0.1 -29.1 2.6 -37.2 0.8 -2.7 1.2 -5.1 1 -5.4 -0.3 -0.2 -1.5 0.5 -2.8 1.7 -1.4 1.3 -3.6 2.2 -5.5 2.2 -3.1 0 -3.2 -0.2 -3.2 -4.1 0 -8.5 8.6 -21.2 17.6 -26.1 7.1 -3.8 18.4 -5.5 27.5 -4.1 23 3.6 40.2 22.8 49.1 55.1 1.8 6.4 2.2 10.4 2.2 23.7 0 10 -0.4 17.6 -1.2 20.3 -1.2 3.9 -1.5 4.2 -4.7 4.2 -3.4 0 -3.5 -0.1 -3.6 -4.2 0 -2.4 -0.4 -5.1 -0.8 -6.1 -0.6 -1.5 -1 -1.2 -2.9 2.1 -1.2 2.2 -5.1 6.7 -8.7 10 -5.2 4.9 -7.8 6.5 -13.1 8.2 -7.8 2.4 -18.6 2.6 -25.5 0.4z m23.9 -16.3 c2.3 -1.2 4.2 -2.2 4.2 -2.4 0 -0.1 -3.7 -0.2 -8.3 -0.3 -6.3 0 -9.2 -0.5 -12.3 -2.2 -5.2 -2.7 -9.7 -7.8 -11.9 -13.6 -1 -2.5 -2.1 -4.6 -2.6 -4.6 -1.8 0 -1.9 4.4 -0.3 9.2 2.3 7 9.5 14.2 16 16.1 5.4 1.6 8.8 1.1 15.2 -2.2z m11.3 -46 l2.9 -3 -3 -4.9 c-4 -6.6 -5.3 -7.6 -7.9 -6.3 -2.9 1.6 -6.1 6.1 -6.1 8.6 0 1.3 1.3 3.7 2.9 5.4 3.7 4 7.3 4.1 11.2 0.2z"/>
  <path d="M456.9 565.3 l2.4 -0.5 -2.5 -1.6 c-1.3 -1 -4.3 -3.3 -6.7 -5.2 -3.5 -2.9 -4.1 -3.8 -3.6 -6 0.8 -3.1 2.1 -4 6.2 -4 2.7 0 3.6 0.6 4.9 3.3 0.9 1.7 2.5 4.3 3.5 5.6 1.1 1.3 1.9 3.9 1.9 5.7 0 3.3 -0.1 3.4 -4.2 3.3 -2.6 -0.1 -3.4 -0.4 -1.9 -0.6z"/>
  <path d="M451.2 540.7 c-1.3 -1.4 -2.2 -3.6 -2.2 -5.5 0 -3 0.2 -3.2 3.4 -3.2 4.8 0 8.6 3.3 8.6 7.6 0 3.3 -0.1 3.4 -3.8 3.4 -2.7 0 -4.5 -0.7 -6 -2.3z"/>
  <path d="M576.2 459.9 c-3.1 -4.5 -4.2 -7 -4.2 -9.9 0 -2.1 0.5 -4 1.1 -4.2 0.5 -0.2 1.3 -2.4 1.5 -4.8 0.3 -2.5 1.3 -6.2 2.1 -8.2 1.4 -3.3 2 -3.8 4.9 -3.8 3.2 0 3.3 0.1 3.8 5.3 0.3 2.8 0.8 11.2 1.1 18.5 l0.6 13.2 -3.3 0 c-3 0 -3.9 -0.7 -7.6 -6.1z"/>
  <path d="M656 461.8 c0 -3.4 1.5 -5.7 12.8 -19 6.7 -7.9 7.8 -8.8 10.8 -8.8 3.3 0 3.4 0.1 3.4 3.9 0 3.5 -0.7 4.7 -6.5 10.6 -3.6 3.7 -6.5 7.3 -6.5 8.1 0 0.7 -0.9 1.8 -2 2.4 -1.1 0.6 -2 1.6 -2 2.2 0 1.9 -3.3 3.7 -6.7 3.8 -3 0 -3.3 -0.3 -3.3 -3.2z"/>
  <path d="M1213.5 396.8 c0.4 -4 0.8 -7.4 1 -7.6 0.5 -0.5 12.5 6.9 12.5 7.7 0 0.7 -4.1 2.9 -10.9 5.8 l-3.3 1.4 0.7 -7.3z"/>
  <path d="M544.6 311.4 c-1.7 -1.6 -2.2 -8.4 -0.8 -8.4 1.6 0 10.2 7.3 10.2 8.6 0 2 -7.4 1.8 -9.4 -0.2z"/>
 </g>
 <g fill="#581e01">
  <path d="M766 868.4 c-2.5 -0.2 -11.5 -0.9 -20 -1.5 -8.5 -0.6 -15.7 -1.3 -15.9 -1.5 -0.3 -0.2 0.1 -1 0.7 -1.6 2.1 -2.1 1.3 -3.8 -1.5 -3.8 -2.2 0 -2.5 -0.2 -1.3 -1 1.2 -0.8 0.9 -1 -1.2 -1 -1.6 0 -2.8 -0.3 -2.8 -0.6 0 -1.7 3.6 -3.2 12.5 -5.3 5.5 -1.3 15 -3.9 21 -5.9 l11 -3.5 13 2.2 c19 3.2 35.6 4.5 46.9 3.6 l9.7 -0.7 -7.5 -4.4 c-7.5 -4.4 -7.6 -4.5 -7.6 -8.5 l0 -4.1 7.3 0.5 c3.9 0.2 13.1 1 20.2 1.6 16.5 1.6 45 0.3 40 -1.8 -1.6 -0.6 -6.3 -3.1 -10.3 -5.4 -7.1 -4 -7.3 -4.2 -7 -7.7 l0.3 -3.5 7.5 0.1 c34.4 0.7 47.7 0.6 56 -0.5 5.2 -0.7 10.2 -1.4 11 -1.7 0.8 -0.3 -1.5 -2.1 -6 -4.5 -7.4 -4 -20.8 -12.7 -24.3 -15.7 -1.2 -1.1 -1.7 -2.7 -1.5 -5.1 0.3 -3.5 0.4 -3.6 4.8 -3.9 2.5 -0.2 7.1 0.2 10.4 0.8 24.5 4.8 53.8 1.7 84.1 -8.7 7.2 -2.5 13.6 -4.9 14.4 -5.3 0.7 -0.4 -1.1 -1 -4.5 -1.4 -17.1 -2 -42.1 -9.1 -62.2 -17.7 l-10.3 -4.4 0.3 -4 0.3 -4 16 -1.2 c23.9 -1.8 52.6 -6.9 72.8 -13 l5.8 -1.8 -12.3 -5.4 c-16 -7 -36.8 -14.8 -54 -20.2 l-13.8 -4.3 0 -3.2 c0 -1.8 0.4 -3.5 0.9 -3.8 0.5 -0.4 6 -1.5 12.3 -2.6 19.5 -3.4 52.8 -13.7 65.3 -20.2 2.8 -1.5 2.7 -1.5 -6.1 -3.2 -4.9 -0.9 -20.1 -3.2 -33.9 -5.1 -32.5 -4.5 -45.8 -6.6 -46.7 -7.1 -1.3 -0.8 -0.9 -7.1 0.5 -8.1 0.6 -0.5 5.5 -2.7 10.7 -4.8 10.2 -4.1 24.8 -11.2 29.3 -14.3 l2.7 -1.8 -11.7 -3.7 c-14.5 -4.6 -28.9 -7.9 -45.1 -10.3 l-12.3 -1.8 0.3 -4 c0.3 -3.9 0.6 -4.2 7.4 -8.1 34.7 -19.6 61.2 -59.5 71.6 -107.7 1.8 -8.6 2.2 -13.4 2.2 -29.3 -0.1 -21.7 -1.4 -28.7 -8.3 -43 -9.5 -19.9 -24.9 -32.9 -45.6 -38.6 -6.9 -1.9 -9.7 -2.1 -21 -1.6 -32.2 1.2 -62.6 15.3 -89.1 41.3 -10.8 10.6 -15.9 16.9 -24.9 30.7 -3.1 4.9 -6.2 9 -6.9 9.2 -10.1 2.8 -17.6 5.1 -24.6 7.6 -4.7 1.6 -10.2 2.9 -12.3 2.9 -3.5 0 -3.7 -0.2 -3.7 -3.3 0 -2.4 1.1 -4.5 4.3 -8.2 6.8 -7.9 14 -17.4 19.4 -25.5 4.8 -7.3 13.3 -22.1 13.3 -23.3 0 -1 -39 18.8 -44.8 22.7 -3 2 -5.7 3.6 -6.1 3.6 -1 0 -23.1 14.5 -35.2 23.1 -7 4.9 -10.7 6.9 -12.8 6.9 -2.9 0 -3.1 -0.3 -3.1 -3.4 0 -1.9 1.4 -6.4 3 -10.1 4.5 -10.1 8.8 -22.8 11.6 -34 1.3 -5.5 2.4 -10.4 2.4 -10.9 0 -2.1 -19.1 13.6 -34.5 28.4 -7.1 6.9 -13.9 13 -15 13.6 -1.1 0.6 -2.2 1.9 -2.4 3 -0.5 2.5 -8.1 11.4 -9.8 11.4 -0.7 0 -1.3 0.9 -1.3 2 0 1.1 -0.7 2.3 -1.5 2.6 -0.8 0.4 -1.5 1 -1.5 1.5 0 0.5 -1.7 3.2 -3.7 5.9 -3.2 4.2 -4.2 5 -7 5 -2 0 -3.3 -0.5 -3.3 -1.2 0 -3.6 -3.3 -29.9 -5 -40.8 -2.1 -12.8 -4.4 -23.3 -8.2 -37.5 l-2.1 -7.9 -3.4 11.4 c-4.2 14.2 -8.7 34.3 -10.8 47.5 -2.7 18 -2.2 16.5 -5.8 16.5 -3.2 0 -3.2 -0.1 -7.1 -11.3 -8.2 -23.8 -20.9 -54.6 -21.9 -53 -0.2 0.4 -0.8 8.9 -1.2 18.8 -0.3 9.9 -0.9 18.8 -1.1 19.8 -0.8 2.7 -2.4 2 -2.4 -1 l-0.1 -2.8 -1.9 3.5 c-1.1 1.9 -1.9 4.7 -2 6.1 0 4.7 -1.2 8.9 -2.3 8.2 -0.6 -0.4 -0.8 0.2 -0.5 1.5 0.5 1.8 0.2 2.2 -1.5 2.2 -1.6 0 -4.3 -2.7 -9.5 -9.4 -4 -5.1 -12.1 -14.2 -18 -20.2 l-10.7 -10.9 -0.3 13.3 -0.3 13.2 -3.2 0 c-2.4 0 -3.6 -0.7 -4.8 -2.8 -2.1 -3.7 -17 -22 -20.9 -25.7 l-3.2 -3 2.2 5.5 c8.8 22 15 41.4 15.7 49.3 l0.6 5.7 -3.4 0 c-2.6 0 -4.6 -1 -8.4 -4.4 -7.3 -6.3 -20.3 -15 -28.7 -19 -7.9 -3.7 -17.6 -7.1 -18.3 -6.4 -0.3 0.2 2.2 4 5.4 8.4 3.3 4.3 8.9 12.8 12.5 18.9 5.1 8.5 6.6 11.8 6.6 14.8 l0 3.9 -3.7 -0.5 c-2.1 -0.3 -7.8 -2 -12.8 -3.7 -10.8 -3.8 -22.6 -4.8 -32.3 -2.8 l-6.3 1.4 17.3 17 c9.5 9.4 18.8 17.9 20.5 18.9 2.7 1.6 3.3 2.6 3.3 5.2 l0 3.3 -5.2 0 c-4.8 0 -15.8 -1.9 -21.2 -3.6 -1.4 -0.5 -0.3 1.2 3.4 5.5 3 3.4 6.1 7.3 6.8 8.7 0.7 1.3 2.1 2.4 3 2.4 1 0 3.7 1.9 6 4.3 3.2 3.3 4.2 5 4.2 7.6 l0 3.4 -6 -0.6 -6 -0.5 1.5 2.8 c0.8 1.6 1.5 3.8 1.5 5 0 1.1 0.5 2 1 2 0.6 0 1 1.6 1 3.5 0 3.2 -0.3 3.5 -2.7 3.5 -1.6 0 -3.5 -0.5 -4.3 -1 -1.2 -0.8 -1 -1 0.9 -1 2.1 0 1.9 -0.4 -2 -3.2 -2.4 -1.7 -9.7 -8.3 -16.2 -14.7 -26.9 -26.3 -47.6 -65.6 -53.8 -102.1 -1.9 -11 -1.6 -32 0.4 -40.4 2.7 -10.7 7.9 -19.6 16.2 -27.4 6.9 -6.6 19.5 -14.2 23.4 -14.2 1 0 2.1 -0.4 2.7 -1 0.5 -0.5 5.2 -1.7 10.4 -2.6 10.6 -1.8 24.8 -1.4 36 1 3.6 0.8 6.7 1.3 6.9 1.1 0.3 -0.4 -1.4 -5.7 -4.6 -14.2 -0.4 -0.9 0.8 -1.3 3.9 -1.3 l4.3 0 11 13.5 c10.6 13.1 11 13.4 11.8 10.8 1.1 -3.8 0 -16.8 -1.9 -23.2 -1.8 -6.2 -1.5 -10.5 0.8 -10.9 0.9 -0.2 4.5 2.4 8.4 6 3.7 3.5 6.5 5.5 6.1 4.6 -0.3 -1 -1.4 -5.7 -2.4 -10.5 -2.3 -11.3 -2.6 -49.4 -0.5 -53.1 l1.4 -2.4 6.1 5.9 c3.4 3.3 11.8 10.3 18.7 15.8 6.9 5.4 13.4 10.5 14.4 11.4 1.8 1.5 1.9 1.5 1.3 -0.1 -0.7 -2 -0.3 -2.2 2.2 -0.8 1.1 0.5 2.1 2.6 2.4 4.7 0.7 4 7.4 18.9 8.2 18.1 0.3 -0.2 0.9 -5.5 1.4 -11.7 0.9 -9.3 1.9 -13.8 6.5 -27.4 4.3 -12.8 7.6 -26.8 7.6 -32.3 0 -0.3 1.2 -0.4 2.8 -0.2 2.2 0.2 3.6 1.7 7.3 8 l4.6 7.7 1.2 -2.7 c0.7 -1.5 5.6 -10.6 10.9 -20.2 14.1 -25.7 22.4 -46.1 26.8 -66.8 0.9 -4.5 2 -8.2 2.3 -8.2 1 0 7.6 11 11.9 19.5 6.5 13 10 26.4 11.4 43 0.3 2.9 0.4 2.8 5.6 -4 2.9 -3.9 8.4 -13.5 12.3 -21.4 7 -14.5 15.2 -28.1 17 -28.1 0.5 0 0.9 0.2 0.9 0.4 0 2.4 3.3 28.1 4.1 31.4 0.6 2.9 0.6 7.2 -0.1 12.5 -1.3 10.4 -1.3 9.9 0.9 8.7 1.6 -0.8 2 -0.6 2.3 0.7 0.5 2.6 38 -37.2 53 -56.4 6 -7.6 8.3 -8.1 9.4 -2 1 5.2 0.9 52.5 -0.1 55.8 -0.5 1.9 0.6 1.1 5.1 -3.2 15.6 -15 27.8 -23.1 51.5 -34 2.4 -1.1 10.9 -2.2 10.9 -1.5 0 0.4 -3.8 7.8 -8.5 16.4 -10.4 19.4 -10.9 20.7 -6.4 16.6 1.9 -1.7 7.5 -5.1 12.4 -7.6 5 -2.6 12.7 -6.8 17.1 -9.5 7 -4.3 33.9 -15.3 37.3 -15.3 0.7 0 1.1 2.2 1.1 6.3 0 7.5 -4 19.8 -9.4 28.8 -2 3.4 -3.5 6.3 -3.3 6.6 0.3 0.2 5.2 -1.9 10.9 -4.7 5.8 -2.7 11.3 -5 12.1 -5 0.9 0 1.9 -0.4 2.2 -1 0.3 -0.5 1.6 -1 2.9 -1 1.2 0 2.6 -0.4 3.2 -0.9 1.5 -1.5 21 -5.9 38.4 -8.7 24.3 -3.9 24 -3.9 24 -2 0 3.8 -6.8 18.5 -12.6 27.2 -5.5 8.4 -5.9 9.4 -4 9.4 1.2 0 2.6 -0.4 3.2 -0.9 1.5 -1.5 19.8 -5.2 32.9 -6.7 12.3 -1.4 44 -1.9 50.8 -0.8 2 0.4 3.7 1.2 3.7 1.8 0 1.9 -10.8 14.1 -17.3 19.6 l-5.7 4.9 4.2 0.5 c2.4 0.3 8.6 0.8 13.8 1.2 17.5 1.1 38.1 5.1 57.5 11 11.3 3.4 11.6 3.7 8.2 7.2 -1.6 1.6 -6.6 5.8 -11.3 9.3 l-8.4 6.4 10.8 2.1 c21 4.1 42 11 61 20 6.1 2.9 11.2 5.5 11.2 5.8 0 0.9 -10.8 6.6 -21 11 -6 2.6 -9.8 4.7 -9 5 0.8 0.3 4.7 1.6 8.5 2.9 16.9 5.7 52.1 22.3 70.3 33.1 6.3 3.8 7.3 5 4.8 5.9 -1 0.4 -1.3 0.1 -1 -0.7 0.3 -0.8 -0.9 -2.2 -2.9 -3.5 -3.6 -2.2 -5.2 -2.7 -4.3 -1.3 0.3 0.4 0.1 2.5 -0.3 4.5 -0.7 2.9 -0.6 3.7 0.7 3.9 2 0.4 -13.9 6.8 -23 9.4 -3.8 1 -6.8 2.1 -6.8 2.4 0.1 0.3 6.7 3.4 14.8 6.9 22.6 9.8 67.2 35 67.2 37.9 0 1.9 -26.3 10.2 -40.8 12.9 l-4.2 0.8 12.7 7.5 c15.7 9.1 25.7 15.9 38.8 26.1 11.1 8.6 18.1 15.4 16.8 16.2 -0.4 0.2 -9.1 1.4 -19.3 2.6 -10.2 1.2 -21.1 2.5 -24.4 2.9 l-5.8 0.7 13.5 8.4 c7.5 4.6 20 13.3 27.9 19.2 13.6 10.1 32.9 26.3 33.6 28 0.6 1.4 -24.8 7.9 -31 7.9 -1.9 0 -1.3 1 4.2 6.6 3.6 3.6 10.1 9.3 14.4 12.7 4.4 3.4 9.3 7.4 10.9 8.8 l3 2.6 -8.9 2.2 c-4.9 1.2 -14.2 2.8 -20.6 3.4 l-11.7 1.1 8.2 4.9 c4.5 2.7 13.3 7.8 19.4 11.4 6.2 3.5 11.6 6.9 11.9 7.4 1 1.6 -6.9 16.8 -13.4 25.9 -39.2 54.4 -159.1 119.2 -287.7 155.4 -61.6 17.3 -128 29.2 -188 33.6 -15.3 1.1 -56.3 2 -63.5 1.4z m366.5 -154.9 c3.3 -0.9 6.4 -2 6.8 -2.4 1 -1 -18.8 -10.3 -27.4 -12.9 -11.3 -3.5 -21.6 -4.6 -31.2 -3.3 -8.1 1.1 -17.3 3.5 -19 5.1 -1.9 1.6 21.1 11.9 32.8 14.6 7.7 1.8 29.6 1.1 38 -1.1z m51.4 -40.6 c5.9 -1.1 6.3 -1.3 4.5 -2.6 -3.4 -2.6 -19.7 -10 -26.4 -12.1 -3.6 -1.1 -10.5 -2.5 -15.5 -3.2 -7.7 -1.1 -10.3 -1 -18.1 0.3 -9.9 1.8 -21 5.6 -19.7 6.8 2.7 2.6 22.1 8.8 35.8 11.5 8.1 1.6 29.4 1.2 39.4 -0.7z m94.3 -15 c3.7 -1.2 6.8 -2.5 6.8 -3 0 -0.8 -6.1 -3.2 -12.5 -4.9 -8.1 -2.1 -20.5 -0.7 -27.9 3.2 l-2.8 1.5 4.4 1.6 c11.1 4.2 21.9 4.8 32 1.6z m-181.7 -24.9 c3.9 -0.6 10.6 -2 14.9 -3.2 l7.9 -2.1 -6.4 -2.9 c-17.9 -8.1 -32.4 -11.4 -46.2 -10.5 -8.4 0.5 -24.7 5 -24.7 6.7 0 1.2 7.6 5.1 15.5 7.9 13.4 4.8 25.2 6 39 4.1z m116.9 -2.6 c2.5 -0.4 4.6 -0.9 4.6 -1.3 0 -1.2 -12.9 -9.2 -21.2 -13.1 -11.9 -5.7 -22.2 -8.2 -34.3 -8.3 -5.5 0 -12 0.5 -14.5 1.2 l-4.4 1.3 2.4 1.8 c4.7 3.6 17.5 10.7 23 12.8 5.7 2.2 15.3 4.8 20.5 5.5 5.1 0.7 19 0.7 23.9 0.1z m47.9 -34.3 l3.2 -0.7 -4.4 -3.2 c-7 -5.1 -18.4 -11 -26.8 -13.8 -6.7 -2.3 -9.5 -2.7 -19.3 -2.7 -7.7 0 -12.7 0.5 -15.2 1.4 l-3.7 1.5 8.7 5.2 c20.9 12.3 38.9 16.1 57.5 12.3z m-227.8 -12.2 l6 -2.2 -3.4 -1.4 c-7.5 -3.1 -15.6 -4.5 -22.6 -4 -6.8 0.5 -15.5 3.1 -15.5 4.7 0 1.1 9.8 4.9 15 5.8 5.8 1 12.9 0 20.5 -2.9z m121 -6.6 c1.2 -0.7 -0.2 -1.9 -6 -5.2 -22.8 -13.1 -40.2 -16.4 -59.9 -11.5 -7.3 1.9 -13.6 4.4 -13.6 5.4 0 1.9 29.2 10.2 43.5 12.4 4.9 0.7 34.3 -0.2 36 -1.1z m-695.9 -16.5 c-0.9 -1.3 -2.5 -4 -3.6 -6 -2.1 -3.9 -4.4 -4.2 -5.3 -0.8 -0.5 1.9 1.4 4.1 6.3 7.3 3.4 2.4 4.5 2.1 2.6 -0.5z m748.2 -17.2 c5.2 -0.8 9.5 -1.6 9.8 -1.8 0.2 -0.3 -4.4 -3 -10.3 -6.1 -25.1 -13 -44.4 -15.5 -63.4 -8.4 l-6.4 2.4 7 3.5 c9.8 5 19.7 8.3 28.5 9.8 4.1 0.6 8.2 1.3 9 1.5 4.2 0.8 17.5 0.3 25.8 -0.9z m-749.8 -5.2 c-0.8 -0.8 -2.3 -2 -3.4 -2.6 -1.9 -1 -1.8 -0.8 0.3 1.6 2.6 2.7 5.3 3.7 3.1 1z m612.1 -4 c2.9 -0.9 8.5 -3 12.3 -4.7 l6.9 -3.1 -6.9 -1.8 c-13.1 -3.3 -23.5 -4 -32 -2.3 -7.6 1.6 -16.2 4.9 -19.8 7.7 -1.8 1.4 -1.2 1.7 7 3.6 4.9 1.2 10.3 2.3 11.9 2.6 4.8 0.7 14.8 -0.3 20.6 -2z m153.4 -34.3 l3 -0.7 -6.1 -4.5 c-8.7 -6.4 -21 -12.6 -30.1 -15.1 -8.8 -2.3 -30.3 -3.1 -33.7 -1.2 -1.6 1 -0.8 1.8 6.8 6.9 15.2 10 32.1 15.1 51.1 15.2 3.3 0 7.4 -0.2 9 -0.6z m-102.4 -9 c3.1 -0.5 7.5 -1.5 9.8 -2.1 l4.2 -1.1 -4.3 -3.5 c-5.5 -4.4 -20.2 -11.6 -29.8 -14.6 -6.7 -2 -9.5 -2.3 -25 -2.3 -16.1 0 -29 1.5 -29 3.4 0 1.4 13.2 9.4 21 12.7 7.8 3.2 20 6.7 27.5 7.7 5.9 0.8 20.1 0.7 25.6 -0.2z m-457.1 -32.8 c0 -0.7 0.9 -1.7 2 -2.3 1.1 -0.6 2 -1.7 2 -2.4 0 -0.8 2.9 -4.4 6.5 -8.1 5.6 -5.7 7.6 -8.5 6.1 -8.5 -0.4 0 -14.2 16.3 -18.1 21.4 -2.6 3.4 -2.7 3.7 -0.7 2.5 1.2 -0.8 2.2 -1.9 2.2 -2.6z m546 -6.1 l5.5 -0.7 -6 -4.1 c-11.4 -7.8 -25.4 -13.5 -36.8 -14.9 -5.4 -0.7 -21.7 0.9 -24.5 2.4 -0.9 0.5 -0.2 1.5 2.5 3.3 11.2 7.4 23.1 11.6 40.3 14.2 4 0.6 13 0.5 19 -0.2z m-533.7 -28.2 c12.8 -13.8 18.3 -28.5 21.1 -56.5 l0.5 -5 -5 5.5 c-6.2 6.8 -15 19.8 -17.9 26.5 -1.2 2.7 -3 8 -4 11.8 -2.3 8.4 -3.8 24.7 -2.2 24.7 0.5 0 3.9 -3.1 7.5 -7z m432.6 4.6 c3.2 -2 -23.1 -15.8 -36.7 -19.2 -11.2 -2.8 -13.9 -2.9 -25.4 -0.8 -13.9 2.5 -14 3.3 -2.3 9.2 20.1 10 29.5 12.3 49 11.9 7.7 -0.2 14.7 -0.7 15.4 -1.1z m-356.6 -21.2 c18.4 -9.3 34.2 -27 43.3 -48.4 1.9 -4.5 3.4 -8.6 3.4 -9.1 0 -1.6 -11.1 4.6 -19.5 10.8 -16.6 12.3 -26.6 26.7 -32.9 47.1 -0.9 2.8 -0.7 2.8 5.7 -0.4z m-187.7 -2.1 c-0.2 -1 -0.8 -3.8 -1.1 -6.3 -1.9 -12 -10.5 -29.1 -19.8 -39.5 l-3.6 -4 -0.1 5.7 c-0.1 13.9 5.3 26.6 16.1 38.2 7 7.5 9.5 9.2 8.5 5.9z m-94.1 -5.2 c-0.3 -0.5 -2.4 -2.4 -4.8 -4.1 l-4.2 -3.2 4.5 4.1 c4.6 4.1 5.6 4.8 4.5 3.2z m695.3 -2.1 c5.2 -1.2 9 -2.5 8.5 -3 -2.1 -1.9 -19.2 -8.3 -28 -10.6 -7.3 -1.9 -12.4 -2.5 -19.9 -2.5 -9.4 0 -23.8 2.3 -25.8 4.1 -1.2 1.2 18.8 10.7 27.4 13 9.7 2.6 24.6 2.2 37.8 -1z m-548.1 -39 c0.4 -7.1 0.1 -11.8 -1.1 -18 -2 -9.8 -10.4 -30.6 -11.8 -29.2 -1.8 1.8 -5.1 20.8 -5.1 29.7 0 13.1 3.1 23.3 11.2 36.2 l2.6 4.3 1.8 -6.8 c1 -3.7 2 -11 2.4 -16.2z m426.6 15.3 c2 -1.2 -18.9 -12.8 -28.6 -15.8 -8.7 -2.8 -21.1 -3.3 -28.2 -1.1 l-4 1.2 4.5 3 c11.9 8 21.7 12 33 13.4 6.3 0.8 21.6 0.3 23.3 -0.7z m-375.7 -21.8 c5.6 -7.9 10.6 -18.7 14 -30 2.3 -7.7 2.7 -11.4 3.2 -25.5 0.5 -18.9 0.7 -18.7 -7.6 -6.7 -13.6 19.7 -20.1 41.5 -18.1 60.7 0.4 4.1 0.8 8.1 0.8 8.9 0.1 2.1 2.5 -0.3 7.7 -7.4z m440.9 1.5 c7.3 -2.1 18.8 -7.4 20.5 -9.5 0.8 -0.9 -1 -1.7 -7.2 -3.3 -23.5 -5.9 -42 -4.9 -58.7 3 -5.9 2.8 -6.3 3.2 -4.6 4.4 3 2.2 12.5 5.5 20 7 8.8 1.7 20.9 1.1 30 -1.6z m-362.3 -6.7 c10.8 -8.8 19.4 -19.9 25.4 -32.7 3.2 -7.1 8.9 -26.4 8 -27.4 -0.9 -0.8 -15.1 11.5 -22.5 19.4 -10.9 11.7 -17.3 23.6 -21.1 39.7 -1.1 4.5 -2 8.6 -2 9.1 0 1.1 4.2 -1.7 12.2 -8.1z m175.8 -7.3 c11.3 -2.1 21.6 -6.8 31.5 -14.2 l7 -5.3 -8.4 -0.3 c-18.3 -0.6 -33.4 4.7 -45.6 16.3 l-7 6.6 6.5 -0.6 c3.6 -0.4 10.8 -1.5 16 -2.5z m-76.3 -5.1 c12 -3.8 24.6 -10.1 33.3 -16.4 7.1 -5.2 24 -21.3 24 -22.8 0 -1.3 -9.8 -0.1 -19.5 2.5 -20.3 5.3 -35.6 16.2 -47.7 34.1 -4.7 7 -4.2 7.1 9.9 2.6z m190.1 -14 c8.3 -2.1 21.3 -8.3 29 -13.8 l5.3 -3.9 -3.5 -0.6 c-2 -0.4 -8.9 -0.7 -15.3 -0.7 -18.2 0 -31.4 3.2 -43.7 10.6 -7 4.2 -12.2 8.5 -10.4 8.5 0.7 0.1 5.1 0.7 9.8 1.4 9.7 1.6 18.3 1.1 28.8 -1.5z m-393.7 -22.3 c4.6 -9.9 6.2 -19.2 5.5 -32.6 -0.3 -6.3 -0.9 -12.8 -1.3 -14.4 l-0.9 -2.8 -1.3 2.8 c-10.7 23.5 -14.1 40.3 -11.1 54.8 l1.2 5.8 2.5 -3.7 c1.4 -2 3.8 -6.5 5.4 -9.9z m85.5 -1.8 c8.2 -8.7 15.4 -20.5 19.4 -32 2.9 -8.4 6.4 -25.5 5.8 -28.6 -0.5 -2.5 -8.2 5 -18.4 17.7 -13.3 16.6 -21.2 34.6 -23.1 52.6 l-0.6 6 4.9 -4.2 c2.8 -2.3 8.1 -7.5 12 -11.5z m-177.1 12.2 c-0.7 -1.1 -4.5 -3.3 -4.5 -2.6 0 0.2 0.7 1.2 1.6 2 1.7 1.8 3.9 2.2 2.9 0.6z m271 -18.6 c9 -6.1 16.8 -13.1 24.2 -21.9 4.8 -5.7 13.6 -18.4 16.2 -23.3 l1.2 -2.2 -6.6 2.5 c-28 10.5 -46.5 27.8 -54.5 50.9 l-1.8 5.4 6.6 -2.9 c3.7 -1.7 10.3 -5.5 14.7 -8.5z m151.3 1.6 c10.7 -3 28.2 -12.3 28.2 -15 0 -1.6 -21.1 -1.2 -29.1 0.5 -11.6 2.5 -30.2 12.7 -28.4 15.6 1.2 1.8 21.6 1 29.3 -1.1z m-74.8 -19.9 c11.1 -2.5 16 -4.4 22.9 -8.5 5.7 -3.5 15.7 -12.4 14.8 -13.2 -0.6 -0.7 -16 2.2 -23.8 4.4 -3.7 1 -8.7 3.1 -11.3 4.6 -5.6 3.3 -16.6 12.3 -16.6 13.6 0 1.5 4.6 1.2 14 -0.9z"/>
  <path d="M568.4 809.7 c-21.6 -12.4 -38 -24.4 -66 -48.1 -18 -15.2 -23.9 -17.6 -43.5 -17.6 -5.6 0 -9.9 -0.4 -9.9 -1 0 -0.5 2.1 -2.6 4.6 -4.7 2.6 -2.1 6.2 -5.5 8.1 -7.5 4.4 -4.6 10.6 -6.8 19.7 -6.8 10.9 0 13.7 1.8 31.6 20.4 8.5 8.9 23.2 23.8 32.7 33.2 17.2 17.1 19.9 20.9 14.9 20.9 -1.3 0 -2.2 -0.3 -2 -0.6 0.2 -0.4 -0.6 -1.5 -1.7 -2.5 -2.3 -2.1 -8.5 -2.8 -6.8 -0.8 0.7 0.8 0.6 1.3 -0.2 1.6 -0.7 0.2 2.1 2.4 6.2 4.9 10.1 6.2 15.8 9.4 13.5 7.6 -1 -0.9 -1.5 -2.1 -1.1 -2.7 0.4 -0.6 0.1 -1.7 -0.5 -2.5 -1 -1.3 -0.8 -1.5 1.7 -1.5 3.6 0 7.3 2.5 7.3 5 0 1.2 1.2 2.6 3 3.5 1.7 0.9 3 2.2 3 3.1 0 1.2 -0.7 1 -3.2 -0.9 -5.2 -3.8 -7.5 -4.8 -7.5 -3.2 0 0.7 1.8 2.3 3.9 3.5 3.3 1.8 4.6 3 3.5 3 -0.2 0 -5.3 -2.8 -11.3 -6.3z"/>
  <path d="M486 693.6 c0 -0.7 1 -1.7 2.3 -2 2.1 -0.7 2.1 -0.7 0.2 -1.6 -1.8 -0.8 -1.8 -0.9 0.5 -1 2 -0.1 1.7 -0.4 -1.5 -1.4 l-4 -1.2 3.4 -0.7 c1.8 -0.4 5.5 -0.7 8.2 -0.7 l4.9 0 0 3.9 c0 3.7 -0.1 3.9 -4.4 5 -6.1 1.5 -9.6 1.4 -9.6 -0.3z"/>
  <path d="M401.9 676.6 c2.7 -2.8 18.3 -10.7 25.6 -13 13 -4 38 -4 58.1 0 l8.4 1.7 0 3.3 0 3.4 -18.9 0 c-10.3 0 -21.1 0.4 -24 1 -2.8 0.5 -12.7 1.4 -21.9 2 -9.2 0.5 -19.2 1.7 -22.2 2.5 -7.3 2 -7.7 1.9 -5.1 -0.9z"/>
  <path d="M484.5 648.4 c-4.9 -0.7 -9.1 -1.7 -9.3 -2.3 -0.2 -0.6 -1.3 -1.1 -2.5 -1.1 -1.2 0 -2.9 -0.5 -3.7 -1.1 -1.1 -0.8 -0.1 -0.9 3.7 -0.5 3.1 0.4 5.4 0.2 5.8 -0.4 0.4 -0.6 -0.5 -1 -2.2 -1 -1.5 0 -3.5 -0.5 -4.3 -1 -1.3 -0.8 -1.1 -1.1 0.7 -1.6 2.8 -0.8 2 -2.4 -1 -2.4 -1.8 0 -1.9 -0.2 -0.7 -1 2.9 -1.9 9.1 -1 21.5 3.2 l12.5 4.1 0 3.4 0 3.3 -5.7 -0.1 c-3.2 -0.1 -9.8 -0.7 -14.8 -1.5z"/>
  <path d="M902.2 577.3 c0.2 -3 0.9 -4 3.8 -5.6 5 -2.8 14.7 -9.9 20.4 -14.9 l4.9 -4.4 -8.4 0.7 c-4.6 0.4 -14.1 0.8 -21.1 0.8 l-12.8 0.1 0 -3.3 c0 -4 1.5 -5.5 9 -9.2 8 -4 21.7 -12.3 27.9 -16.9 4.7 -3.5 6.1 -4.1 11.7 -4.4 l6.4 -0.4 0 3.4 c0 2.6 -1.2 4.8 -5.6 10.1 l-5.6 6.7 5.1 0 c5 0 5.1 0 5.1 3.1 0 2.2 -0.9 4 -2.7 5.8 -2.4 2.2 -2.5 2.6 -1 2.9 1.1 0.2 1.7 1.3 1.7 3 0 2.6 0.2 2.7 4.5 2.4 l4.5 -0.4 0 3.5 c0 1.9 -0.6 4 -1.4 4.7 -0.8 0.6 -1.6 2.4 -1.8 3.8 -0.2 2.2 -1.5 3.4 -6.4 5.9 -8.7 4.6 -16.2 6.3 -28.2 6.3 l-10.3 0 0.3 -3.7z"/>
  <path d="M873.3 515.3 c-3 -0.4 -3.3 -0.7 -3.3 -3.8 0 -3.3 0.5 -3.8 13.6 -12.2 7.5 -4.8 17.6 -12.2 22.5 -16.3 l8.9 -7.5 -3.7 -0.7 c-9 -1.6 -39.1 -0.1 -54.8 2.8 -4.4 0.8 -11 1.8 -14.7 2.1 l-6.8 0.6 0 -3.6 c0 -3.4 0.6 -4.2 7.8 -9.8 4.2 -3.3 11.4 -8.9 16 -12.2 l8.4 -6.2 -4.9 -0.5 c-4.7 -0.5 -4.8 -0.6 -5.1 -4 -0.3 -3.3 0.2 -3.9 8.5 -10.5 28.8 -23 59.3 -34.8 93.1 -36.2 l15.2 -0.6 0 3.4 0 3.4 -13.3 3.5 -13.2 3.5 6.3 0.3 6.2 0.3 0 3.3 c0 3.6 -0.9 4.4 -27.7 22.1 l-9.3 6.2 14 0.8 14 0.7 0 4.1 c0 7.1 -3.9 13.6 -14.6 24.4 -5.5 5.4 -13 12.3 -16.7 15.2 -3.7 3 -6.7 5.5 -6.5 5.6 0.2 0.2 6.8 1.7 14.8 3.5 8 1.7 15.3 3.4 16.3 3.6 1.2 0.4 1.7 1.5 1.7 3.8 0 3 -0.4 3.4 -4.1 4.6 -2.3 0.8 -5.1 2.1 -6.3 3.1 -3.6 2.8 -14.2 3.9 -37.2 3.7 -12 0 -23.4 -0.3 -25.1 -0.5z"/>
 </g>
 <g fill="#8a3c0f">
  <path d="M764 619.3 c-9.6 -1.6 -20 -7.1 -25.5 -13.6 -6.6 -7.6 -10 -18 -7.6 -22.6 1.9 -3.5 3.9 -2.4 8.4 4.7 5.2 7.9 11.2 13.6 17.6 16.6 3.8 1.7 6.5 2.1 15.1 2.1 9.5 0 11 -0.3 15.6 -2.7 7.4 -3.9 10.8 -7.1 14 -13.2 1.6 -3 3.2 -5.2 3.6 -5 1.3 0.8 0.9 11.3 -0.6 14.9 -5.3 12.6 -24.5 21.5 -40.6 18.8z"/>
  <path d="M523.6 611.4 c-12 -3.8 -21.1 -20.7 -16.5 -30.8 2.5 -5.5 6 -4.3 9 3.2 4.6 11.2 11.8 16.4 22.7 16.4 5.1 0 7.7 -0.7 12.3 -3 3.3 -1.6 5.9 -2.7 5.9 -2.6 0 1.6 -2.5 5.9 -5.1 8.9 -6.7 7.6 -18.7 11 -28.3 7.9z"/>
  <path d="M942.5 569 c1.2 -1.3 1.4 -2 0.5 -2 -0.7 0 -0.1 -1.5 1.5 -3.6 1.6 -2 2.4 -3.5 1.9 -3.2 -15.3 7.4 -16.3 7.4 -11.7 0.6 2.9 -4.4 3.2 -5.4 1.9 -5.6 -1 -0.2 -2.3 0.2 -3.1 0.8 -1.3 1.1 -1.5 0.6 -1.5 -2.8 0 -3.2 0.4 -4.1 2.1 -4.5 1.2 -0.3 1.8 -1 1.5 -1.5 -0.3 -0.5 0.7 -1.5 2.2 -2.3 2.5 -1.3 2.1 -1.4 -6.6 -1.9 l-9.3 -0.5 3.1 -1.8 c1.7 -1 6 -5.3 9.6 -9.5 6.8 -8 6.9 -9.6 0.4 -7.3 -2.7 0.9 -3 0.8 -3 -1.2 0 -1.1 1.4 -3.6 3.2 -5.4 l3.2 -3.3 -5.2 0 c-4 0 -5.2 -0.4 -5.2 -1.5 0 -0.8 0.5 -1.5 1.2 -1.5 0.6 0 1.9 -0.6 2.7 -1.4 0.9 -0.8 3.9 -2.3 6.6 -3.4 4.5 -1.8 4.8 -2.1 2.5 -2.6 -9.3 -2.2 -37.6 -8.6 -38 -8.6 -0.3 0 1 -0.9 2.9 -2.1 12.5 -7.6 36 -30.2 39.7 -38.3 3.3 -7.1 3.2 -7.6 -2.3 -7.7 -2.7 -0.1 -10.9 -0.4 -18.3 -0.8 l-13.5 -0.6 20.5 -13.8 c11.3 -7.5 21.6 -14.6 23 -15.7 l2.5 -2 -14.7 0.2 c-15.2 0.3 -17.4 -0.5 -8.6 -3.2 2.4 -0.7 5.5 -1.7 7 -2.2 1.5 -0.6 8.9 -2.7 16.5 -4.8 13.3 -3.8 13.6 -3.9 8.3 -3.9 l-5.5 -0.1 0.9 -6.5 1 -6.5 4.1 0 c2.9 0 5.8 1 10.1 3.6 7.5 4.5 10.5 7.3 16 15.4 8.9 13.1 12 27.8 11.1 53 -1.1 30.8 -8.8 56.2 -24.2 79.6 -10.8 16.2 -28.4 32.4 -35.3 32.4 -3.4 0 -3.5 0 -1.7 -2z"/>
  <path d="M900 492.3 c0 -0.5 1.5 -1.6 3.3 -2.6 l3.2 -1.9 -2.4 2.6 c-2.4 2.6 -4.1 3.3 -4.1 1.9z"/>
 </g>
 <g fill="#bc651e">
  <path d="M645.8 832.5 c-3.2 -0.8 -8.1 -2.6 -11 -4.1 -13.2 -6.6 -19.4 -13.3 -35.4 -38.4 -18.5 -28.9 -29.4 -41.5 -50.6 -58.7 -20.1 -16.1 -29.7 -30 -34.8 -49.7 -2.5 -9.9 -2.8 -28.7 -0.5 -36.2 0.8 -2.7 1.5 -5 1.5 -5.1 0 -0.1 -1.5 -0.4 -3.2 -0.8 -1.8 -0.3 -9.3 -2.3 -16.5 -4.3 l-13.3 -3.6 0 -3.8 c0 -2 0.4 -3.9 0.9 -4.3 0.6 -0.3 4.6 -0.8 9 -1.2 4.5 -0.3 8.1 -1 8.1 -1.5 0 -0.5 -0.7 -1.9 -1.5 -3.1 -2.4 -3.7 -5.5 -13.7 -5.5 -17.9 0 -6 2.8 -5 7.5 2.8 4.8 7.8 9 11.8 16.2 15.1 7.8 3.6 14.6 4 23.2 1.4 6.1 -1.8 8.2 -3.1 13.9 -8.6 4.5 -4.2 7.8 -8.4 9.8 -12.4 3.8 -7.8 5.9 -8 7.3 -0.8 0.6 2.8 1.2 6.8 1.4 8.7 l0.3 3.5 1.3 -4.5 c0.8 -2.6 1.5 -9.4 1.5 -16.2 l0.1 -11.8 2.7 0 c2 0 3.6 1.1 6 4.1 l3.3 4.1 0.8 -3.9 c2.3 -11 2.4 -11.3 6.7 -11.3 3.7 0 4.2 0.4 7.6 5.5 2 3 4 5.5 4.3 5.5 0.3 0 1.5 -2.3 2.5 -5.2 3.1 -8.7 4.1 -9.8 9.7 -9.8 4.8 0 4.8 0 8.5 6 2 3.3 4 6 4.3 6 0.4 0 1.4 -2.2 2.4 -4.8 2.6 -7.6 5.1 -10.2 9.8 -10.2 3.5 0 4 0.3 5.3 3.5 0.8 1.9 2.3 6.3 3.2 9.7 0.9 3.5 1.9 6.5 2 6.7 0.2 0.2 2.7 -2.2 5.5 -5.3 4.9 -5.3 5.4 -5.7 9.3 -5.4 l4 0.3 2.1 6.8 2 6.8 3 -4 c2.8 -3.9 3.3 -4.1 7.5 -3.9 l4.5 0.3 0.1 9 c0.1 14.4 0.2 14.8 2.8 7 5.2 -16 16.1 -35.5 19.8 -35.5 1.6 0 1.9 0.5 1.4 2.3 -0.4 1.2 -0.9 5.8 -1.2 10.2 -0.7 9.2 0.9 17.3 5.5 27 6.6 14 20.1 24.9 35.8 29 7.7 2 23.4 1.9 30.4 -0.1 18.2 -5.4 31.8 -19.1 36 -36.4 0.8 -3.1 1.4 -10.9 1.4 -17.8 0 -11.9 0.1 -12.2 2.2 -12.2 5 0 10.3 27.9 8.5 45 -0.5 4.7 -0.9 8.6 -0.8 8.6 0.1 0.1 3.9 -0.2 8.6 -0.7 4.7 -0.5 12 -1.2 16.3 -1.5 l7.8 -0.7 -0.3 3.9 c-0.3 3.8 -0.5 4 -8.8 8.1 -15.7 7.8 -30.9 14 -40 16.4 -1.9 0.5 -10.7 0.9 -19.5 0.9 -17.2 0 -32.8 1.2 -44 3.4 -3.8 0.8 -9.3 1.7 -12.1 2 -7.6 0.9 -20.7 4.5 -22.4 6.2 -1.3 1.3 -1.1 1.4 1.5 0.9 8 -1.3 26.3 -2.5 39.7 -2.5 13.8 0 14.8 0.1 14.8 1.9 0 1.5 -1.1 2 -6.7 2.6 -3.8 0.4 -7.7 1 -8.7 1.4 -1.6 0.6 -1.3 1 2 2.3 2.1 0.9 8.6 3 14.4 4.7 18.7 5.4 21 6.4 21 8.7 0 2 -0.1 2 -7.7 0.7 -10 -1.8 -61.3 -3 -63.9 -1.5 -1.7 1 -1.7 1.1 0.6 1.6 1.4 0.3 8.8 1.3 16.5 2.2 19.4 2.3 19 2 11.5 8.2 -19.4 16.3 -55.8 29.6 -95 34.8 -17.3 2.3 -33.9 0.8 -52.6 -4.7 -3.8 -1.1 -4.2 -1.1 -6.7 1.5 -4.7 4.7 -10.8 6.6 -21 6.6 -5.1 0 -11.7 -0.7 -14.7 -1.5 -6.9 -1.8 -8.3 -0.6 -3.3 3.1 23.1 16.9 29.7 23.8 46.3 48.5 5.4 7.9 9 12.5 9 11.3 0 -4 1.4 -3.3 5.2 2.5 2.1 3.2 5.6 7.7 7.9 9.9 2.2 2.3 4 4.9 3.9 5.9 -0.4 3.6 0.1 4.1 6.8 7.1 29.1 13 57.9 0.7 82.5 -35.1 3.2 -4.6 3.6 -5.8 2.7 -7.4 -1 -1.5 -0.1 -3.4 5.2 -12 5.1 -8.3 6.7 -10.1 8.3 -9.7 1.7 0.3 3.1 -1.7 9 -12.3 9.3 -16.8 18.8 -32.1 25.9 -41.7 l5.8 -7.9 8.7 0.6 c9 0.7 13.1 1.5 13.1 2.6 0 0.4 -2.5 3.3 -5.5 6.5 -7.1 7.5 -18.4 24.5 -27 40.6 -35.8 67 -52.2 87.3 -78.6 97.5 -6.8 2.6 -8.6 2.9 -23.4 3.1 -11.4 0.3 -17.6 -0.1 -21.7 -1.1z m-41.3 -133 c11.3 -2 15.1 -3.2 22.5 -7.1 8.6 -4.5 15.3 -10.4 17.9 -15.7 1.3 -2.7 2.5 -8 3.1 -14.3 0.9 -9.1 0.8 -10.7 -1 -16.7 -3.8 -12.3 -14.7 -21.5 -32.5 -27.4 -7.3 -2.5 -9.4 -2.7 -24 -2.7 -14.2 -0.1 -16.8 0.2 -23.5 2.3 -13.8 4.4 -22.3 11.6 -29.7 25.1 -5.3 9.8 -6.1 15.6 -3.3 23.9 7.2 21.5 26.6 33.8 53.5 34 5 0.1 12.6 -0.6 17 -1.4z"/>
  <path d="M1142 579.5 c0 -1.4 -0.4 -2.5 -0.8 -2.5 -0.5 0 -1.9 -0.8 -3 -1.9 -1.7 -1.4 -2.2 -3 -2.2 -6.4 0 -5.8 2 -6.6 8.4 -3.5 3.5 1.7 4.6 2.8 4.6 4.5 0 2 0.5 2.3 3.8 2.3 2.5 0 5.4 1 8.8 3.1 4.5 2.9 4.7 3.2 2.7 4 -1.6 0.6 -18.8 2.9 -21.8 2.9 -0.3 0 -0.5 -1.1 -0.5 -2.5z"/>
  <path d="M820.6 553.3 c-3.1 -6.3 -10.1 -14.8 -15 -18.4 -5.7 -4.1 -2.4 -4.9 6.2 -1.5 8.3 3.3 11.2 5.3 9.4 6.5 -1.1 0.7 -0.8 1.9 1.2 5.9 2.6 5.1 3.5 12.2 1.6 12.2 -0.5 0 -2.1 -2.1 -3.4 -4.7z"/>
  <path d="M814 450.7 c0 -0.8 0.8 -1.7 1.9 -2 1 -0.2 4 -3.8 6.6 -7.8 6.8 -10.7 15.7 -22.5 17.8 -23.9 1.5 -0.9 2.4 -0.8 4.3 0.5 2.5 1.6 2.7 1.5 9.2 -3.8 14.3 -11.6 32.6 -22 47.2 -26.7 9.1 -2.9 27.9 -6 36.4 -6 13.8 0.1 31.6 3.7 31.6 6.5 0 0.8 0.5 1.5 1 1.5 0.6 0 1 0.7 1 1.5 0 1.2 -0.4 1.3 -1.9 0.5 -3 -1.6 -4.9 -1.2 -2.7 0.5 1.1 0.8 1.5 1.5 1 1.5 -0.6 0 -1.6 1.1 -2.2 2.5 -0.8 1.7 -0.8 2.5 -0.1 2.5 0.6 0 0.8 0.4 0.5 0.9 -0.3 0.4 -4.7 1.1 -9.7 1.5 -15.5 1.2 -33.2 5.6 -48 12.1 -10.8 4.7 -28.1 15.2 -38 23 -11.1 8.9 -10.7 8.5 -8.1 9.1 1.2 0.4 2.2 1.3 2.2 2 0 1.1 -1.9 1.4 -8.2 1.4 -4.6 0 -13.5 0.7 -19.8 1.6 -20.5 2.7 -22 2.8 -22 1.1z"/>
  <path d="M488.8 428.2 c-7.9 -12.1 -24.9 -28.3 -36.9 -35 -8.1 -4.6 -16.4 -7.2 -23.1 -7.2 -4.4 0 -5.8 -0.4 -5.8 -1.4 0 -2.1 1.1 -2.6 8 -3.7 12.8 -2 28.5 4.1 41.5 16.3 9.6 8.9 14.9 17 18.1 27.5 1.5 4.6 2.5 8.6 2.3 8.8 -0.3 0.2 -2.1 -2.2 -4.1 -5.3z"/>
 </g>
 <g fill="#d0782a">
  <path d="M1250.5 661.6 c-5.2 -1.3 -16.5 -6.1 -16.5 -7 0 -1 10.5 -5.9 15.5 -7.2 6.7 -1.8 20.4 -1.8 27.6 0.1 3.2 0.9 8.6 2.8 11.9 4.3 l6 2.8 -3.8 2.1 c-7.7 4.3 -16 6.3 -26.1 6.2 -5.3 0 -11.8 -0.6 -14.6 -1.3z"/>
  <path d="M1066.5 635.4 c-13.7 -3.1 -32.2 -11.7 -31.2 -14.7 0.6 -1.9 8.6 -5.5 17.1 -7.7 14 -3.5 33.8 -2.4 48.9 2.9 8.3 2.9 26.7 11.2 26.7 12.1 0 0.7 -13.7 5.1 -22 7 -8.2 1.9 -31.7 2.2 -39.5 0.4z"/>
  <path d="M1236.8 600 c-13.6 -1.7 -23.6 -5.6 -41.1 -16.2 -11.6 -7 -11.8 -7.7 -3.7 -8.9 2.5 -0.4 6.5 -1.3 9 -1.9 2.8 -0.8 8.8 -1 16 -0.7 17.5 0.8 29.5 5.4 48.4 18.5 5.4 3.8 7.4 5.7 6.5 6.2 -5 2.7 -24.4 4.4 -35.1 3z"/>
  <path d="M1110 580.5 c-9.5 -1.5 -21 -4.8 -34.8 -9.7 l-9.2 -3.4 2.2 -2.1 c3.4 -3 7.6 -5 16.5 -7.5 10.1 -2.8 29.2 -3.1 39.8 -0.5 7.9 2 25.7 10.4 35.5 16.9 6.2 4.1 6.4 4.3 3.6 4.6 -1.6 0.2 -3.2 -0.1 -3.5 -0.7 -1.1 -1.6 -5.5 -2.9 -7.6 -2.1 -1.1 0.4 -2.7 0.4 -3.5 0 -0.9 -0.5 -2 -0.2 -2.8 0.6 -1 1.1 -1 1.4 0 1.4 0.9 0 0.9 0.3 -0.2 1 -1.2 0.7 -0.8 1 1.5 1.1 2.6 0 2.7 0.2 1 0.9 -3.1 1.3 -29 1 -38.5 -0.5z m35.6 -8.2 c-0.2 -1.6 -0.5 -2.9 -0.5 -3 -0.1 -0.2 0 -0.6 0.2 -0.9 0.4 -1 -3.1 -2.4 -4.6 -1.8 -1.7 0.6 -1.9 4.4 -0.2 4.4 0.6 0 1.8 0.9 2.8 2 2.3 2.7 2.9 2.5 2.3 -0.7z"/>
  <path d="M1043.5 539.1 c-9.8 -1.6 -23.5 -5.9 -23.5 -7.3 0 -2.6 16.8 -10.3 27 -12.4 7.4 -1.5 9.9 -1.5 19.5 -0.5 9.7 1 28.8 5.1 30.2 6.4 0.9 1 -13 8 -21.5 11 -9.2 3.1 -22.3 4.3 -31.7 2.8z"/>
  <path d="M1201 503.4 c-8.4 -1.1 -18.5 -3.6 -25.4 -6.2 -8 -3.2 -22.3 -12.2 -26.9 -17 l-2.8 -3 5.3 -1.3 c8 -2.1 29.5 -1.8 39.2 0.5 10.4 2.4 24.9 9.9 35.9 18.5 8.4 6.6 8.6 6.9 6 7.5 -3.7 0.8 -26.9 1.5 -31.3 1z"/>
  <path d="M1069 431.4 c-9 -1.9 -16.9 -4.8 -28 -10.5 -12.8 -6.5 -15.4 -8.3 -13.8 -9.6 4.9 -3.9 19.1 -7.3 30.8 -7.3 10.2 0 24.4 4 36.3 10.3 11.4 5.9 25.2 14.6 24.5 15.3 -0.3 0.2 -4 1.1 -8.2 1.9 -9.8 1.9 -32.8 1.8 -41.6 -0.1z"/>
  <path d="M419 385.5 c0 -0.2 1.4 -1.2 3.2 -2.1 2.2 -1.1 3.3 -1.3 3.6 -0.5 0.2 0.6 1 1.1 1.8 1.1 0.9 0 1.2 0.5 0.9 1 -0.6 1 -9.5 1.5 -9.5 0.5z"/>
  <path d="M730.5 357.4 c1.8 -17 8.7 -35.5 17.6 -47.1 5.5 -7 17.6 -18.5 27.8 -26.1 4.6 -3.5 8.5 -6.2 8.6 -6 0.6 0.6 -2.5 17.2 -4.6 24.8 -6.2 22.4 -19.5 40.3 -40.8 54.9 l-9.3 6.3 0.7 -6.8z"/>
 </g>
 <g fill="#e7746d">
  <path d="M627.7 799.5 c-5.7 -5.7 -10.7 -13.2 -10.7 -16.1 0 -2.3 2.5 -4.4 5.3 -4.4 2.1 0 6.3 4.5 8.5 9.3 2.2 4.8 3.7 14.3 2.4 15.1 -0.5 0.3 -3 -1.5 -5.5 -3.9z"/>
  <path d="M656.2 801.4 c-11 -2.9 -17.5 -7.7 -20.9 -15.2 -2.1 -4.5 -2.5 -6.5 -2.1 -11.7 0.9 -11.2 9.9 -23.9 20.5 -29.1 5.5 -2.7 16.9 -2.6 19 0.1 1.4 1.9 1.4 7.6 -0.2 17 -0.3 1.7 0.5 -0.4 1.8 -4.5 5.9 -19 13.6 -26.7 27.9 -27.7 6.3 -0.4 7.9 -0.1 11.8 1.9 8.9 4.6 11.1 12.9 7.1 26.8 -8.8 31 -37.5 49.8 -64.9 42.4z"/>
  <path d="M725.1 765.1 c-3.1 -5.8 1.5 -17.4 7.9 -20.1 2.9 -1.2 8 -0.7 8 0.8 0 1.4 -12.5 20.6 -13.7 20.9 -0.6 0.3 -1.6 -0.5 -2.2 -1.6z"/>
  <path d="M701.3 193.5 c-0.9 -1 -0.9 -1.6 -0.2 -2 1.4 -0.9 2.2 0 1.7 1.8 -0.2 1.3 -0.5 1.3 -1.5 0.2z"/>
  <path d="M644.8 185.3 c-1 -0.2 -1.8 -1.1 -1.8 -1.9 0 -2 1.3 -1.7 2.8 0.6 0.7 1.1 1.1 1.9 1 1.9 -0.2 -0.1 -1.1 -0.3 -2 -0.6z"/>
 </g>
 <g fill="#f0a252">
  <path d="M1091.5 717.6 c-10.7 -2.5 -24.9 -8.5 -33.7 -14.4 -3.6 -2.3 -3.7 -2.6 -2.2 -4.3 2.5 -2.7 12.8 -5.8 23.7 -7.1 18.7 -2.2 35.5 1.6 58.8 13.3 9.1 4.5 11.9 6.3 10.8 7 -0.9 0.4 -5.6 2 -10.5 3.5 -7.6 2.2 -11.3 2.6 -24.9 3 -11.3 0.3 -17.7 0 -22 -1z"/>
  <path d="M1141.5 676.6 c-13.9 -2.7 -21.5 -5.1 -37.9 -12.1 -3.6 -1.5 -3.7 -1.7 -2.1 -3.5 4.1 -4.5 24.6 -10 37.4 -10 6.7 0 20.5 2.3 27.6 4.6 11.7 3.9 33.6 15.8 31.9 17.4 -3.8 3.7 -43.6 6.2 -56.9 3.6z"/>
  <path d="M412.8 669.9 c1.8 -1.2 3.6 -1.9 3.9 -1.5 1 0.9 -2.9 3.5 -5.2 3.6 -1.6 0 -1.3 -0.5 1.3 -2.1z"/>
  <path d="M1187 633.3 c-11.9 -1.8 -24 -6 -33.2 -11.4 -7.4 -4.4 -17.8 -11.8 -17.8 -12.8 0 -2.2 14.7 -4.6 27 -4.5 15.4 0.2 24.4 2.4 38.5 9.3 12.2 6.1 26.4 16 24.4 17.2 -4.3 2.3 -29.1 3.8 -38.9 2.2z"/>
  <path d="M1035.8 622.6 c-1.3 -1 -1.5 -1.5 -0.6 -2.4 0.7 -0.7 1.9 -1.2 2.7 -1.2 0.8 0 1.1 0.3 0.8 0.6 -0.3 0.4 -0.2 1.5 0.4 2.5 1.2 2.3 -0.6 2.6 -3.3 0.5z"/>
  <path d="M1178 547.5 c-0.8 -0.2 -4.9 -0.9 -9 -1.5 -4.1 -0.7 -10.6 -2.4 -14.5 -3.8 -8.9 -3.1 -24.5 -10.9 -24.5 -12.2 0 -1.6 4 -3.7 12.5 -6.6 7.2 -2.5 9.4 -2.7 21.5 -2.7 10.6 0 15.2 0.4 21.4 2.1 9.2 2.5 24 9.4 34.6 16 l7.5 4.7 -9 1.8 c-8.1 1.6 -36.6 3.2 -40.5 2.2z"/>
  <path d="M1187 455.4 c-1.4 -0.2 -5.2 -0.9 -8.5 -1.5 -11.8 -2.1 -23.5 -7.1 -34.8 -14.7 -6.2 -4.2 -6.2 -4.7 -0.2 -7 5.4 -2 19.6 -3.5 27.9 -2.9 8.6 0.6 20.3 4 28.9 8.3 6.7 3.4 22.7 14.2 22.7 15.3 0 0.5 -1.9 1.1 -4.2 1.5 -5.7 0.8 -28.6 1.6 -31.8 1z"/>
  <path d="M889.4 273.5 c-1.6 -1.9 -3.5 -3.5 -4.1 -3.5 -2.6 0 -1.2 -3.9 2.4 -6.6 10 -7.7 13.8 -9.7 22.3 -11.9 10.5 -2.8 21 -4.5 28.4 -4.5 l6.9 0 -4.8 5.3 c-11.1 11.9 -21.1 18.2 -34.5 21.6 -13.7 3.4 -13.3 3.4 -16.6 -0.4z"/>
 </g>
 <g fill="#fac47f">
  <path d="M1009.4 589.9 c-6.4 -1.2 -17.9 -6.9 -17.9 -8.9 0 -0.8 2.6 -2.8 5.8 -4.4 4.9 -2.5 7.1 -3 16 -3.4 10.9 -0.5 16.5 0.5 28.6 5 l6.5 2.4 -5.5 3.1 c-10.3 5.8 -23.1 8.2 -33.5 6.2z"/>
  <path d="M1086.7 493.5 c-10 -1.9 -18.3 -4.7 -28.2 -9.5 -8.8 -4.3 -19.8 -12.5 -19.2 -14.3 0.2 -0.6 3 -2 6.3 -3.1 5 -1.6 9.1 -1.9 27.9 -2 25.1 -0.1 28.9 0.6 46 9 10.2 4.9 22.2 14.1 20.7 15.6 -0.6 0.6 -4.1 1.9 -7.9 3 -9.2 2.7 -34.4 3.4 -45.6 1.3z"/>
  <path d="M664.4 434.4 c-1 -6.9 0.3 -22.8 2.5 -30.9 2.8 -10.1 5.5 -15.9 11.7 -25.1 5.3 -8.1 18.8 -23.4 20.5 -23.4 2.1 0 -0.1 26.8 -3.2 39 -2.6 10 -9.7 24.3 -15.2 30.5 -2.5 2.8 -7 7.2 -10 9.8 l-5.6 4.7 -0.7 -4.6z"/>
  <path d="M582 427.5 c0 -5.8 0.2 -6.5 2 -6.5 1.8 0 2 0.7 2 6.5 0 5.8 -0.2 6.5 -2 6.5 -1.8 0 -2 -0.7 -2 -6.5z"/>
  <path d="M740.6 413.3 c1.4 -8.2 6.6 -22.2 10.8 -29.3 8.9 -15.2 23.4 -27.9 42.3 -37.3 5.6 -2.8 10.5 -4.8 10.8 -4.5 1.2 1.1 -9.4 26.3 -14.6 34.7 -6 9.8 -16 20.6 -24.4 26.6 -5.2 3.7 -23.4 13.5 -25 13.5 -0.3 0 -0.3 -1.7 0.1 -3.7z"/>
  <path d="M560.9 410.7 c-12.7 -10.4 -21.2 -23.1 -23.8 -35.5 -1.7 -8 -1.5 -27.4 0.3 -27 2 0.5 11.2 11.3 16.6 19.5 7.9 12 13.7 31.5 12.8 43.2 l-0.3 4.4 -5.6 -4.6z"/>
  <path d="M1124 402 c-4.2 -1.1 -13.4 -4.9 -20.8 -8.7 -13 -6.6 -13.3 -6.8 -11.3 -8.4 1.2 -1 6.3 -2.7 11.4 -3.9 13.6 -3.3 31.7 -3.1 45 0.3 9.9 2.6 23.3 7.9 31.5 12.5 l4.4 2.5 -5.8 1.9 c-19.1 6 -40 7.4 -54.4 3.8z"/>
  <path d="M608.8 383.7 c-9.2 -14.3 -12.4 -23.2 -13.4 -37.5 -0.9 -12.6 4.8 -43.2 8.1 -43.2 2.7 0 12.5 22.3 14.9 34.2 3 14.4 1.8 32.3 -3.2 48.3 l-1.7 5.5 -4.7 -7.3z"/>
  <path d="M507 380.7 c-7.8 -10.9 -25.7 -31.7 -27.3 -31.7 -1.4 0 -1.7 0.5 -1.2 2.3 0.4 1.2 -1.7 -2.5 -4.6 -8.3 -4.7 -9.3 -15.1 -24.8 -17.9 -26.5 -2.4 -1.5 -0.7 -2.5 3.3 -1.9 18.4 2.7 40.9 13.8 54.1 26.8 2.9 2.8 3.3 3.4 1 1.2 -2.6 -2.3 -4.8 -3.6 -5.7 -3.3 -1.4 0.5 -1.4 1.1 -0.1 5.4 1.9 6.3 2.7 20.7 1.7 31.2 l-0.8 8.4 -2.5 -3.6z"/>
  <path d="M1017 378 c-9.2 -1.1 -18.3 -4.4 -27 -9.7 -4.1 -2.5 -9.2 -5.5 -11.2 -6.7 -2.1 -1.2 -3.8 -2.5 -3.8 -2.9 0 -0.4 2.1 -1.8 4.8 -3 3.8 -1.7 7.1 -2.2 16.9 -2.5 17.6 -0.6 25.4 1.9 46.6 15.2 5.3 3.3 9.7 6.3 9.7 6.7 0 2.5 -24.1 4.5 -36 2.9z"/>
  <path d="M657.6 366.4 c-0.3 -1.6 -1.1 -7.4 -1.6 -12.9 -2.8 -26.8 5.4 -50.8 25.8 -76.3 l5 -6.3 0.7 5.6 c0.4 3 0.5 13.2 0.3 22.7 -0.5 15 -0.9 18.5 -3.2 26.3 -4.9 16.4 -12.9 30.7 -22.4 39.9 l-4 3.8 -0.6 -2.8z"/>
  <path d="M1075.5 358.5 c-7.4 -1.4 -15.2 -4.1 -22.4 -7.9 l-4.4 -2.3 4.6 -3.2 c9.3 -6.4 20 -9.6 35.3 -10.7 13.7 -0.9 26.2 0.8 45.2 6.3 6.5 1.8 6.1 2.4 -4.6 8.7 -16.5 9.6 -34.7 12.7 -53.7 9.1z"/>
  <path d="M572.3 343.3 c-5 -7.2 -8.7 -14.5 -10.3 -20.3 -0.7 -2.5 -1.5 -5.2 -1.8 -6 -1.2 -3.5 0.2 -16.2 2.9 -26.5 5 -19 7.8 -31.7 8.8 -41.4 0.6 -5.1 1.2 -9.6 1.5 -9.8 0.4 -0.5 7.4 8.2 17 21.2 3.9 5.3 4.2 6 2.5 6.3 -1 0.2 -1.9 0.5 -1.9 0.7 0 5.4 -3.3 19.6 -7.6 32.2 -4.5 13.3 -5.6 18.2 -6.4 27 -0.6 5.9 -0.7 13.4 -0.4 16.6 0.4 3.1 0.4 5.7 0.2 5.7 -0.3 0 -2.3 -2.6 -4.5 -5.7z"/>
  <path d="M894.6 345.1 c-1.7 -0.7 -0.9 -1.8 6.6 -9.3 10.1 -10.1 18.9 -15 31.3 -17.3 8.4 -1.6 26.5 -2.2 32.7 -1 l3.6 0.7 -5.3 4.8 c-7.3 6.6 -15.8 12.2 -24 15.8 -11.3 4.9 -38.7 8.8 -44.9 6.3z"/>
  <path d="M826 339.9 c0.7 -1.3 3.4 -5.5 6 -9.4 15.9 -23.7 35.9 -35.3 66 -38.5 11.6 -1.2 14 -1.2 14 -0.2 0 1.8 -20.7 22.6 -28.2 28.2 -14.6 11.1 -37.3 20.5 -52.2 21.7 l-6.8 0.6 1.2 -2.4z"/>
  <path d="M1010 326.4 c-1.4 -0.2 -6.7 -1.1 -11.7 -2 -5.1 -0.9 -9.3 -2 -9.3 -2.4 0 -1.9 12.9 -11.3 20.5 -15 14.4 -7.1 30.8 -9.6 52.5 -8 20.1 1.5 19.6 1.1 9.3 8.5 -10.9 7.9 -22.9 14 -32.7 16.5 -7.3 1.8 -23.8 3.3 -28.6 2.4z"/>
  <path d="M630.5 311.8 c-4.5 -20.2 -1.3 -37 12.5 -67.3 3 -6.4 3.3 -6.8 4.1 -4.6 2.1 5.4 3.9 20 3.9 30.5 0 13.1 -1.8 22.5 -6 31.3 -3 6.6 -10.7 18.3 -12 18.3 -0.4 0 -1.5 -3.7 -2.5 -8.2z"/>
  <path d="M707.5 311.4 c1.9 -25 8.8 -42 25 -61.9 6.2 -7.6 22.2 -23.5 23.6 -23.5 1 0 -1.1 23.3 -2.7 30 -4.4 19.5 -11.7 32.5 -26.3 47 -5.8 5.8 -12.8 12 -15.5 13.9 l-4.8 3.4 0.7 -8.9z"/>
  <path d="M796 305.2 c0 -3.6 4.1 -15.6 7.7 -22.3 9.5 -18.3 27.4 -32.4 52.1 -41.3 6.7 -2.4 13.2 -3.4 13.2 -2.1 0 1.4 -5.7 11.7 -10.2 18.5 -13.8 20.7 -31.6 36.3 -50.5 44.4 -11.4 4.9 -12.3 5.1 -12.3 2.8z"/>
  <path d="M937 296.1 l-4.5 -0.6 7.5 -6.3 c8.9 -7.5 18.8 -12.6 28.9 -14.7 7.5 -1.5 29.1 -1.9 38.5 -0.7 l4.8 0.7 -7.8 5.8 c-9.6 7.2 -19 12 -28.6 14.7 -5.8 1.6 -9.9 2 -20.8 1.8 -7.4 0 -15.5 -0.4 -18 -0.7z"/>
  <path d="M875 277.2 c0 -0.2 2.5 -3.3 5.6 -6.8 5.4 -6.1 8.3 -8.1 7 -4.9 -0.3 0.9 0 1.5 0.9 1.5 0.8 0 1.5 0.6 1.5 1.3 0 0.8 0.4 0.7 1 -0.3 0.8 -1.3 1 -1.2 1 0.2 0 4.3 6.3 7.7 7.7 4.2 0.3 -0.9 1.2 -1.3 2.1 -0.9 0.8 0.3 1.9 0 2.4 -0.7 0.7 -1 1.1 -1 1.4 -0.1 0.4 0.8 1.6 1 3.6 0.6 2.1 -0.4 2.9 -0.3 2.4 0.5 -1.1 1.8 -14.5 4.4 -25.9 5.1 -5.9 0.3 -10.7 0.4 -10.7 0.3z"/>
  <path d="M890.7 262.8 c-0.9 -0.6 -0.5 -1.4 1.3 -2.8 3.8 -3 14.1 -8 16.4 -8 1.3 0.1 -0.3 1.2 -3.9 3 -3.3 1.5 -6.1 3.3 -6.1 3.9 -0.1 0.6 -0.2 1.8 -0.3 2.7 0 0.8 -0.5 1.2 -1.1 0.9 -0.5 -0.3 -1 -0.2 -1 0.4 0 1.1 -3.5 1.1 -5.3 -0.1z"/>
  <path d="M703.4 242.5 c0.4 -7.2 0.9 -14.3 1.2 -15.8 1.2 -5.2 2.9 -2.1 4.1 7.2 0.6 5.1 1.3 10.1 1.6 11 0.2 1.1 -1.1 3.5 -3.5 6.2 l-4 4.4 0.6 -13z"/>
  <path d="M824 237.5 c6.8 -7.1 22.8 -16.3 41.2 -23.9 4.6 -1.8 9.4 -3.7 10.8 -4.1 2.5 -0.7 2.5 -0.7 0.4 0.9 -9.4 6.9 -34.7 21.3 -46.9 26.7 l-9 4 3.5 -3.6z"/>
 </g>
 <g fill="#fedca1">
  <path d="M699.5 861.3 c-6 -0.9 -34.9 -8.4 -45.5 -11.8 -19 -6.2 -41.5 -16 -55 -24 -3 -1.8 -6.8 -3.5 -8.3 -3.9 -1.5 -0.4 -2.6 -1 -2.3 -1.5 0.3 -0.4 -2.5 -3 -6.2 -5.6 -20.6 -15 -34.7 -28.1 -72.2 -67.1 -16.5 -17.2 -21.1 -20.4 -28.8 -20.4 -4.2 0 -15.7 3.8 -19.9 6.6 -3.5 2.2 -2.8 1 2.7 -5.1 5.2 -5.8 6.6 -8.9 5.6 -12.9 -1.3 -5.2 -13.5 -9.6 -27.1 -9.6 -7.2 -0.1 -7.8 -0.2 -6.1 -1.5 1.1 -0.8 2.8 -1.5 3.8 -1.5 1 0 4.7 -0.9 8.1 -2 3.4 -1 12.7 -3.3 20.7 -5 22 -4.6 28 -6.1 28 -7 0 -1.7 -17.6 -2.1 -28.5 -0.5 -13.9 1.9 -20.9 3.8 -30.3 8.1 -4.1 1.9 -7.7 3.3 -7.8 3.1 -0.2 -0.2 3.3 -2.9 7.9 -6 4.5 -3.1 10.7 -7.9 13.7 -10.6 7.5 -6.8 6.7 -7.3 -11.1 -7.9 -11.6 -0.4 -13.8 -0.7 -12.7 -1.8 2 -2 18.2 -3.7 41.8 -4.3 l21.5 -0.6 -8.7 -1.8 c-12.6 -2.6 -26.7 -3.6 -37.2 -2.6 -8.5 0.9 -24.9 3.9 -28.9 5.5 -0.9 0.3 -1.7 0.2 -1.7 -0.3 0 -0.6 6.2 -3.4 13.8 -6.3 7.5 -2.9 15.5 -6.2 17.7 -7.3 4.7 -2.2 9.5 -6.5 9.5 -8.4 0 -0.7 -2.7 -2.1 -6 -3.1 -3.3 -1 -5.7 -2.1 -5.4 -2.5 1.3 -1.2 9.5 -0.7 28.4 1.7 10.2 1.4 21 2.7 24 3.1 l5.5 0.6 -8 -3.1 c-10.8 -4.2 -31.9 -9.6 -43 -11.1 -5.8 -0.8 -14.8 -0.9 -25.4 -0.5 -9 0.3 -16.2 0.4 -15.9 0.1 0.3 -0.3 4.6 -1.7 9.6 -3 11.6 -3.1 23.6 -7.7 29.2 -11.3 4.6 -2.9 8 -3.1 8 -0.6 0 0.8 0.4 1.4 0.9 1.4 0.5 0 1.2 1.5 1.5 3.3 l0.6 3.3 7.2 -0.3 c4 -0.1 7.4 -0.7 7.6 -1.3 0.2 -0.5 3.4 -1 7.3 -1 5.2 0 6.9 0.3 6.9 1.4 0 0.7 -0.9 1.6 -2 1.9 -1.1 0.3 -2 0.9 -2 1.4 0 1 24.4 8 31.1 8.9 l4.6 0.6 -2.6 6.2 c-3.6 8.8 -4.1 23.2 -1.2 34.7 5.1 20.1 14.7 33.9 34.9 50.2 21.2 17.2 32.1 29.8 50.6 58.7 16 25.1 22.2 31.8 35.3 38.4 8.8 4.4 17.2 5.9 30.8 5.3 14.2 -0.5 22.1 -3 34 -10.8 6.6 -4.3 7.5 -4.6 9.2 -3.3 5.5 4.2 52.9 15.5 74.3 17.8 7.9 0.8 14.6 1.4 14.7 1.3 0.1 -0.1 -1.4 -2.7 -3.3 -5.7 -6.3 -10 -13.4 -30.9 -13.4 -39.5 0 -3.3 0.2 -3.5 3.4 -3.5 2.4 0 4.8 1.1 8.2 3.8 10.4 8.1 19.8 12.8 34.1 17 13.2 3.9 17.7 4.7 16.7 3 -0.4 -0.7 -3 -4.7 -5.7 -8.8 -7.3 -11.2 -15.7 -29 -15.7 -33.4 0 -3.5 0.1 -3.6 3.7 -3.6 2.4 0 6 1.4 11.2 4.4 13.6 7.8 32.5 13.9 47.2 15.2 l6.7 0.7 -11.1 -11.4 c-13.6 -13.9 -23.7 -28.1 -23.7 -33.3 0 -3.3 0.2 -3.6 2.9 -3.6 1.6 0 6.6 1.8 11 4 17.4 8.7 36.5 13.5 58.4 14.7 11.6 0.6 14.5 -0.1 9.5 -2.4 -3.7 -1.7 -24.6 -16.9 -33 -24.1 -7 -5.8 -7.8 -6.9 -7.8 -10 l0 -3.5 17.8 0.5 c9.7 0.3 23.8 0.2 31.2 -0.3 12.5 -0.8 33.5 -4.3 35.3 -5.8 0.4 -0.4 -2.3 -1.8 -6 -3.1 -3.8 -1.2 -13.4 -5.6 -21.5 -9.7 -14.6 -7.3 -14.8 -7.5 -14.8 -10.7 l0 -3.3 12.8 -3.2 c15.3 -3.7 19.2 -4 19.2 -1.1 0 1.1 0.5 2 1 2 0.6 0 1 1.4 1 3 0 2.4 -0.6 3.3 -2.7 4.1 -2.6 1 -1 1.7 17.7 7.9 21.8 7.2 33.6 11.7 51.8 19.9 17.2 7.7 17 7.2 3.9 10.9 -26.9 7.6 -48.5 11.6 -73.6 13.5 -9.1 0.6 -16.6 1.7 -16.8 2.2 -0.4 1.3 17.1 8.8 33.1 14 15.1 5 29.4 8.1 45.1 9.8 l11 1.2 -8.5 3.7 c-22.1 9.5 -46.1 15.8 -67.5 17.8 -12.3 1.1 -23 0.7 -38.3 -1.7 -10.8 -1.6 -13.9 -1.1 -10.5 1.9 4.4 3.8 19.7 13.4 29 18.1 5.7 2.9 10.3 5.5 10.3 5.8 0 0.8 -8.8 2.5 -19.5 3.8 -14.8 1.8 -32.9 2.2 -47.9 1.2 -8.3 -0.6 -15.3 -0.8 -15.8 -0.3 -1 1 10.9 7.9 21.5 12.3 5.5 2.4 7.3 3.6 6.2 4.1 -0.8 0.5 -10.7 1.4 -22 2 -19.7 1.1 -32.5 0.6 -51.7 -1.9 -3.2 -0.4 -4.8 -0.2 -4.8 0.5 0 1.6 14.3 9.8 20.5 11.9 l5 1.6 -5 1.4 c-13 3.3 -43.5 2.6 -66.8 -1.7 l-9.9 -1.8 -10.1 3.3 c-15.6 5 -31.4 8.4 -42.6 9.1 -6.6 0.5 -10.5 1.2 -11.2 2.1 -0.6 0.7 -1.7 1.2 -2.3 1.2 -0.6 -0.1 -2.4 -0.4 -4.1 -0.6z"/>
  <path d="M646.7 671.8 c3.8 -14.3 -3.8 -28.8 -19.4 -36.6 -5.9 -3 -6.6 -3.3 -14 -5.2 -3.6 -0.9 -4.3 -1.5 -4.3 -3.5 0 -3.9 2.3 -11.4 3.7 -11.9 1.7 -0.7 12.1 3 18.7 6.5 3 1.6 7.9 5.7 11 9 9.7 10.4 12 24 6.6 39.4 -2.7 7.7 -4.2 9.2 -2.3 2.3z"/>
  <path d="M532.6 646.3 c3.3 -14.3 15.4 -26.4 31.1 -31.1 11 -3.4 11.3 -3.3 11.3 3.6 0 3.1 -0.5 6.4 -1 7.2 -0.5 0.9 -3.9 1.9 -8.8 2.6 -13.2 1.9 -23.6 8 -29.3 17.2 -2.5 3.9 -4.2 4.2 -3.3 0.5z"/>
  <path d="M420.1 580 c-3.9 -4.9 -9.2 -14.9 -10.6 -19.9 -0.6 -2.1 -0.5 -2.3 1.1 -1.6 3.7 1.5 15 4.5 21.2 5.6 5.5 1 6.2 1.4 6.2 3.4 0 1.5 -0.8 2.6 -2 3 -1.1 0.3 -2 1.1 -2 1.6 0 0.9 -1.7 3.1 -5.7 7.3 -1.3 1.3 -2.3 3.1 -2.3 4 0 2.8 -1.8 1.8 -5.9 -3.4z"/>
  <path d="M826.1 339.8 c0.8 -1.4 1.4 -1.8 1.7 -1 0.2 0.6 1.5 1.2 2.8 1.2 1.4 0 2.2 0.4 1.9 1 -0.3 0.6 -2.2 1 -4.1 1 -3.3 0 -3.4 -0.1 -2.3 -2.2z"/>
  <path d="M704.7 232.3 c-1.1 -1.8 0.3 -8.5 1.7 -8 0.6 0.2 1.2 1.4 1.4 2.8 0.2 1.8 0.1 2.1 -0.7 1 -0.7 -1.1 -1 -0.6 -1.3 2 -0.2 2.1 -0.6 2.9 -1.1 2.2z"/>
 </g>
 <g fill="#ffeac1">
  <path d="M803.5 839.3 c-1.6 -0.2 -10.2 -1 -19 -1.9 -21.8 -2.1 -65.6 -12.2 -75.1 -17.3 l-3.3 -1.8 7.1 -6.9 c16.1 -15.8 27.9 -33.8 53.3 -81.4 8 -15 19.5 -32.4 26.3 -40 l4.9 -5.4 9.5 1.8 c5.3 1 14.7 3 20.9 4.6 6.3 1.5 11.5 2.7 11.7 2.5 0.5 -0.4 -19.8 -10.5 -26.8 -13.3 -8.9 -3.5 -34.1 -12 -46 -15.6 -8.7 -2.6 -15 -5.8 -15 -7.6 0 -5.2 38.4 -7.7 69.8 -4.5 30.5 3.1 55 8.3 75.7 16 4.9 1.9 -0.7 -1.7 -10 -6.3 -20.2 -10.1 -46.5 -17.5 -71.7 -20.2 -5.4 -0.5 -10.4 -1 -11.3 -1 -3.7 0 -0.1 -1.8 5.7 -2.9 6.1 -1.2 8.8 -2 22.8 -7.4 8.3 -3.2 29.8 -13.6 30.6 -14.8 0.7 -1.1 -2 -1.1 -8.2 0 -2.7 0.5 -9.6 1.2 -15.3 1.6 l-10.4 0.7 0.7 -2.8 c1.7 -6.5 2.3 -19 1.4 -27.2 -1.1 -10.4 -7.8 -30.5 -14.6 -43.8 -1.7 -3.4 -2.8 -6.4 -2.5 -6.8 1.4 -1.4 5.2 -0.4 9.7 2.4 l4.8 3.1 -2.2 -3.1 c-3.3 -4.6 -11.4 -12.5 -16.4 -15.9 -10 -6.9 -26.9 -12.1 -39.4 -12.1 -42.5 0 -72.8 27 -78 69.5 l-0.9 7 -1.7 -3.7 c-2.5 -5.8 -3.3 -5.4 -10.6 5.5 l-3.9 5.8 -1.1 -4.3 c-3.1 -12.1 -4.4 -15.9 -5.3 -16.5 -1 -0.6 -7.2 5.5 -13.4 13.1 l-3.1 3.9 -1.2 -4.4 c-2.9 -11.4 -6.6 -21.4 -8 -21.4 -2.2 0 -5.6 5.8 -8.6 14.7 l-2.7 8.1 -1.4 -2.9 c-0.9 -1.6 -3.5 -6.2 -6 -10.1 -6.6 -10.8 -8.9 -9.8 -14.2 6.3 l-2.7 8.5 -6.3 -9.1 c-3.4 -4.9 -6.6 -9 -7.1 -9 -1.1 0 -2.7 5.3 -4.2 14.4 l-1.1 6.8 -3.6 -4.3 c-2 -2.4 -5.2 -6.1 -7.2 -8.2 -2.7 -2.8 -3.9 -5 -4.4 -8.5 -1.9 -12.8 -10.8 -33.3 -18.6 -42.7 -21.5 -26 -55.6 -25 -68.4 2.1 -3.4 7.2 -3.2 8.1 1.2 4.5 3.1 -2.5 4.7 -3.1 8.6 -3.1 l4.8 0 -2 2.6 c-7.4 9.4 -9.9 42.5 -4.2 57.3 1.2 3.1 1.5 5.1 0.8 5.4 -1.5 0.5 1.9 10 6.3 17.8 l3.8 6.7 -2.7 0.5 c-1.5 0.3 -7.8 0.9 -14.1 1.3 -6.3 0.4 -11.8 1.1 -12.1 1.6 -1.1 1.7 -8.3 2.8 -9.1 1.5 -0.5 -0.9 -1.5 -0.7 -3.8 0.6 -1.6 1 -3 1.3 -3 0.8 0 -0.6 -1.1 -1.1 -2.5 -1.1 -1.6 0 -2.5 -0.6 -2.5 -1.5 0 -0.8 -0.3 -1.4 -0.7 -1.4 -0.5 0.1 -1.5 0.1 -2.3 0 -1.2 -0.1 -1.2 -0.4 0.3 -1.2 0.9 -0.5 1.7 -1.5 1.7 -2 0 -0.6 -0.5 -0.7 -1 -0.4 -0.6 0.3 -1 0.1 -1 -0.4 0 -2.3 -0.2 -2.6 -2.1 -3.4 -1.9 -0.6 -1.6 -1.1 3 -4.7 2.8 -2.2 5.1 -4.4 5 -4.8 0 -0.4 -3 -2.1 -6.7 -3.9 -9.8 -4.7 -20.9 -12.4 -27.2 -18.9 -3 -3.1 -4.9 -5.4 -4.2 -5 0.7 0.5 1.2 0.1 1.2 -1 0 -0.9 1 -2.7 2.2 -4 4 -4.1 5.8 -6.4 5.8 -7.2 0 -0.5 1 -1.4 2.3 -2 l2.2 -1.1 -2.2 0 c-1.3 -0.1 -2.3 -0.6 -2.3 -1.2 0 -0.7 1.1 -0.8 3.2 -0.4 5.4 1.2 23.7 1 24.9 -0.2 0.9 -0.9 0 -3.3 -3.4 -9.6 -5.5 -10.2 -5.1 -11.2 3.5 -8.5 3.4 1 6.6 1.7 7.1 1.5 0.5 -0.1 -3 -3.8 -7.8 -8.2 -10.5 -9.5 -21.9 -23.5 -20.5 -24.9 0.7 -0.7 4.5 -0.1 11.2 1.7 5.7 1.4 12.8 2.9 15.8 3.3 l5.5 0.7 -6 -4.6 c-9.3 -7 -39 -37.6 -37.8 -38.8 1.8 -1.8 14.6 -3.9 23.9 -3.9 9.4 0 20.9 2.4 29.2 6 2.3 1 4.2 1.6 4.2 1.2 0 -3.2 -22.6 -36.7 -28.4 -42.1 -1.4 -1.4 -2.6 -2.9 -2.6 -3.4 0 -1.5 12.7 -0.2 19 1.9 12 4 29.2 14.3 41.9 25.1 l4.4 3.8 -0.8 -3.5 c-2.5 -11.5 -12.8 -40.6 -20.1 -56.7 -2.7 -5.9 -3 -7.4 -1.9 -8.3 1.1 -0.9 3 0.4 9 6.1 7.3 6.9 19.3 21 25 29.4 l2.8 4 -0.6 -15.2 c-0.6 -14.5 -0.5 -15.3 1.2 -15.3 4.4 0 32.8 31.1 45.5 49.8 2.7 3.9 5 7.1 5.2 6.9 0.1 -0.1 -0.1 -6.9 -0.6 -15.2 -0.8 -17.4 -0.4 -50.6 0.8 -55 0.5 -1.9 1.6 -3.1 2.9 -3.3 1.7 -0.3 2.9 1.8 8.1 14 5.9 13.8 11.8 29.1 18 46.8 3.4 9.7 2.8 10.6 5.7 -8.5 2.1 -13.7 6.7 -33.5 11.2 -49 3.4 -11.2 4.2 -13 6.1 -13.3 1.2 -0.2 2.2 -0.1 2.2 0.2 0 0.3 1.8 7.4 4 15.8 4.6 17.7 8.2 37.9 10.5 59.3 0.9 8.2 1.7 15.1 1.8 15.2 0.1 0.1 4.4 -5.2 9.6 -11.8 16.8 -21.4 38.5 -42.7 60.7 -59.7 9.4 -7.2 11.6 -7.8 10.8 -2.9 -3.4 19 -8.9 37.7 -15.3 52 -1.7 3.8 -3.1 7.1 -3.1 7.3 0 0.3 3.3 -1.9 7.3 -4.7 10.8 -7.7 36.9 -24.9 37.8 -24.9 0.4 0 3.1 -1.6 6.1 -3.6 6.8 -4.6 50.7 -26.4 53 -26.4 1 0 1.8 0.5 1.8 1.2 0 2 -12 23.9 -18 32.8 -5 7.3 -10.6 14.6 -20.8 27.2 -2.8 3.3 -2 3.5 4.7 0.9 7.2 -2.9 21.8 -7.2 27.6 -8.2 15.2 -2.5 29.5 -3.9 41.1 -3.9 22.2 0 22.1 -0.9 2.1 14.2 -9.5 7.2 -18.3 14.1 -19.7 15.5 l-2.5 2.5 4 -0.6 c2.2 -0.3 7.6 -1.3 12.1 -2 19.2 -3.5 63 -4.6 68 -1.8 2.5 1.4 -16 17.1 -33.2 28.2 -7.6 4.9 -14.2 9.4 -14.7 9.9 -2.3 2.3 16.5 2.5 62.3 0.6 l12.5 -0.6 -5.5 5.1 c-11 10.2 -27.3 21.2 -42.6 28.8 -3.3 1.7 -6.7 3.8 -7.5 4.8 -1.3 1.6 -0.6 1.7 13.6 1.1 8.3 -0.4 19.3 -0.9 24.5 -1.2 l9.5 -0.6 -8.3 7.9 c-7.8 7.5 -21.9 18.2 -24 18.2 -0.5 0 -1.5 0.7 -2.2 1.5 -1.1 1.3 -0.3 1.5 6.2 1.5 9.5 0 17.5 -2.1 26.6 -7 35.4 -19.1 59.6 -63 61.9 -112 1 -21.9 -2.5 -37.3 -11.3 -50.3 -10.3 -15 -24.7 -22.5 -46.9 -24.3 -9 -0.7 -26.9 1.9 -38.5 5.6 -15.6 5.1 -35.4 16.5 -49.8 28.9 l-7.7 6.7 -3.8 -3.9 -3.8 -3.8 9.8 -9.6 c19 -18.6 40.9 -31.4 63.8 -37.4 10.4 -2.7 14.2 -3.2 28.1 -3.7 14.2 -0.4 16.9 -0.2 23.9 1.7 25.7 7.1 43.9 26.3 51.7 54.6 1.9 7.1 2.2 10.5 2.2 30 0 19 -0.3 23.4 -2.2 32.3 -10.5 48.3 -36.9 88.1 -71.5 107.7 -3.9 2.2 -7.2 4.5 -7.4 5.1 -0.2 0.6 4.2 1.7 11.4 2.8 6.5 0.9 17 2.8 23.3 4.2 12.4 2.8 39 11.1 39 12.2 0 2 -21.7 13.5 -37 19.7 -10.3 4.2 -12.5 5.4 -11.3 6.5 1.2 1 10.5 2.6 29.3 5 22.2 2.8 46.3 6.5 58.7 9.1 l10.2 2.1 -7.8 3.8 c-11.6 5.6 -30.8 12.7 -45 16.6 -15.3 4.2 -33.6 7.4 -37.5 6.7 l-2.9 -0.6 2.9 -1.2 c2.9 -1.2 2.9 -1.2 0.6 -1.9 -1.9 -0.6 -2.1 -1 -1.1 -2.2 1.1 -1.3 0.8 -1.4 -1.7 -0.9 -7 1.7 -22.9 5.8 -23.2 6 -0.9 0.8 30.8 15.7 40.5 19.1 6.2 2.2 11.3 4.2 11.3 4.5 0 0.7 -9.1 3.2 -21.6 5.9 -12.5 2.7 -36.4 4.1 -56 3.3 -9 -0.3 -16.4 -0.4 -16.4 -0.1 0 2.3 34 27.5 46 34.1 l7.5 4.2 -7.5 0.8 c-9.7 1.1 -30.1 0.2 -41.5 -1.8 -11.3 -2 -27 -7.2 -37.5 -12.4 -4.4 -2.2 -8 -3.8 -8 -3.5 0 0.3 2.8 4.7 6.3 9.7 6 8.8 23.3 27.4 32.7 35 l4.5 3.7 -4.8 0 c-8.2 0 -23.6 -2.1 -33.2 -4.5 -11.7 -3 -21 -6.7 -30.8 -12.3 -4.3 -2.4 -8 -4.2 -8.3 -3.9 -1.5 1.5 11.9 26.3 21.1 39.1 3.1 4.3 5.4 8.1 5.1 8.3 -1 1 -18 -1.9 -27.7 -4.8 -14.6 -4.3 -23.9 -9 -34.3 -17.1 -2.7 -2.1 -5.1 -3.7 -5.3 -3.5 -0.2 0.2 0.2 2.8 0.8 5.8 2 9.2 8.6 25.1 14.4 34.3 5.7 9 6 9.7 4.8 9.5 -0.5 -0.1 -2.1 -0.4 -3.8 -0.6z"/>
  <path d="M429 700.6 c0 -0.3 1.5 -1.5 3.3 -2.7 2.3 -1.7 2.8 -1.8 1.8 -0.6 -1.4 1.8 -5.1 4.2 -5.1 3.3z"/>
  <path d="M412 670.5 c0 -0.6 5.6 -3.5 6.7 -3.5 1.4 0.1 -3.9 4 -5.3 4 -0.8 0 -1.4 -0.2 -1.4 -0.5z"/>
  <path d="M532.1 650.4 c-0.2 -3.3 2.8 -12 4.5 -13.5 1.3 -1.1 1.4 -0.9 0.8 1.6 -0.5 2.2 -0.4 2.6 0.7 2 0.9 -0.6 0.9 -0.2 -0.2 1.1 -0.9 1 -2.6 3.9 -3.7 6.4 -1.4 3 -2.1 3.8 -2.1 2.4z"/>
  <path d="M410.5 632 c2.8 -1.2 3.7 -1.2 3 0 -0.3 0.6 -1.6 1 -2.8 0.9 -2.1 0 -2.1 -0.1 -0.2 -0.9z"/>
  <path d="M609.5 629.2 c-4.1 -1 -12.3 -1.5 -25.7 -1.5 -10.8 -0.1 -19.4 -0.5 -19.2 -0.9 0.3 -0.4 1.2 -0.8 2 -0.8 4.7 0 7.5 -9.3 3.2 -10.9 -2.2 -0.9 -2.2 -0.9 -0.3 -1.7 1.1 -0.5 10.1 -0.9 20 -0.9 14.5 0 19.3 0.4 24.8 1.9 6.7 1.8 10.7 4.4 5.2 3.3 -3.2 -0.6 -5.7 0.1 -5 1.3 0.3 0.4 -0.2 2.1 -1 3.6 -1.1 2.2 -1.2 3 -0.2 3.6 0.7 0.4 0.8 0.8 0.2 0.8 -0.5 0 0.1 0.7 1.4 1.4 3.6 2 1.2 2.4 -5.4 0.8z"/>
  <path d="M873 210.5 c4.7 -1.8 5.8 -1.8 3.4 0 -1 0.8 -3 1.4 -4.4 1.4 -2.2 0 -2.1 -0.2 1 -1.4z"/>
 </g>
 <g fill="#fefaf7">
  <path d="M603.5 660.3 c-4.1 -2.2 -5.4 -4.2 -5.5 -8 0 -4.5 3.8 -7.3 9.9 -7.3 5.7 0 9.2 1.7 10.9 5.4 1.9 3.8 0.1 8 -4.3 10 -4.1 2 -7.2 2 -11 -0.1z"/>
  <path d="M773.5 567.9 c-12.3 -3.8 -13 -21.7 -1 -25.7 16 -5.3 26.2 17.4 11.1 24.8 -4.6 2.2 -5.6 2.3 -10.1 0.9z"/>
  <path d="M542.5 565.6 c-6.3 -2.8 -9 -12.2 -5.2 -18 2.2 -3.3 7.4 -6.6 10.4 -6.6 2.5 0 6.9 5 10.2 11.5 2.1 4.1 2.1 4.6 0.6 7.4 -2.9 5.8 -10.2 8.4 -16 5.7z"/>
 </g>
</svg>